<svg xmlns="http://www.w3.org/2000/svg" width="200" height="400" viewBox="0 0 200 400"><path d="M166 1h-52c-7.18 0-13 5.82-13 13v52c0 7.18 5.82 13 13 13h52c7.18 0 13-5.82 13-13V14c0-7.18-5.82-13-13-13z" fill="#fff"/><path d="M139.133 28.106c1.732 0 2.88-1.17 2.88-2.916 0-1.754-1.15-2.908-2.88-2.908-1.724 0-3.454 1.154-3.454 2.908 0 1.746 1.73 2.916 3.453 2.916zM146.616 39.184c-1.146 0-2.303 1.17-2.303 2.33 0 1.177 1.157 2.33 2.303 2.33 1.74 0 2.88-1.153 2.88-2.33 0-1.16-1.14-2.33-2.88-2.33zM123.033 22.282c-1.724 0-3.465 1.154-3.465 2.908 0 1.746 1.74 2.916 3.465 2.916 1.724 0 2.872-1.17 2.872-2.916 0-1.754-1.148-2.908-2.872-2.908zM159.27 39.184c-1.14 0-2.286 1.17-2.286 2.33 0 1.177 1.148 2.33 2.286 2.33 1.724 0 2.88-1.153 2.88-2.33 0-1.16-1.156-2.33-2.88-2.33z" fill="#36ad37"/><path d="M166 1h-52c-7.18 0-13 5.82-13 13v52c0 7.18 5.82 13 13 13h52c7.18 0 13-5.82 13-13V14c0-7.18-5.82-13-13-13zm-35.494 51.015c-2.872 0-5.18-.592-8.06-1.17l-8.04 4.085 2.3-7.01c-5.76-4.074-9.206-9.33-9.206-15.728 0-11.086 10.36-19.816 23.006-19.816 11.313 0 21.223 6.974 23.213 16.363a19.643 19.643 0 0 0-2.216-.14c-10.93 0-19.56 8.262-19.56 18.442 0 1.693.26 3.324.71 4.882-.71.055-1.426.09-2.148.09zm33.936 8.16l1.73 5.825-6.31-3.5c-2.3.584-4.612 1.17-6.903 1.17-10.947 0-19.568-7.577-19.568-16.91 0-9.315 8.62-16.91 19.567-16.91 10.337 0 19.54 7.594 19.54 16.91 0 5.255-3.44 9.908-8.058 13.416z" fill="#36ad37"/><path d="M66 201H14c-7.18 0-13 5.82-13 13v52c0 7.18 5.82 13 13 13h52c7.18 0 13-5.82 13-13v-52c0-7.18-5.82-13-13-13z" fill="#278acf"/><g fill-rule="evenodd" clip-rule="evenodd"><path d="M12.375 217.25h55.25a3.25 3.25 0 0 1 3.25 3.25v39a3.25 3.25 0 0 1-3.25 3.25h-55.25a3.25 3.25 0 0 1-3.25-3.25v-39a3.25 3.25 0 0 1 3.25-3.25z" fill="#fff"/><path d="M7.697 228.625h64.278v6.5H7.697v-6.5zM15.625 243.25h26v3.25h-26v-3.25zM15.625 251.375h9.75v3.25h-9.75v-3.25zM56.25 243.25h8.125v8.125H56.25v-8.125z" fill="#278acf"/></g><g><path d="M165.902 101H113.98c-7.17 0-12.98 5.82-12.98 13v52c0 7.18 5.812 13 12.98 13h51.922c7.17 0 12.98-5.82 12.98-13v-52c0-7.18-5.81-13-12.98-13z" fill="#1eaa39"/><path d="M113.927 140.03c0-16.278 13.665-29.57 30.852-30.39-.62-.026-1.243-.04-1.87-.04-19.93 0-36.09 13.624-36.09 30.43 0 16.808 16.16 30.432 36.09 30.432.628 0 1.25-.014 1.87-.04-17.187-.82-30.853-14.113-30.853-30.392z" fill="#fff"/><path d="M146.117 114.98c-.63 0-1.25.026-1.87.064 12.498.877 22.38 11.73 22.38 24.997s-9.88 24.123-22.38 25c.62.038 1.24.064 1.87.064 15.194 0 27.51-11.222 27.51-25.063s-12.315-25.06-27.51-25.06z" fill="#fff"/><path d="M143.74 137.675s-1.396 1.314-.06 3.043c1.336 1.73 2.827.836 3.025.71l9.47-7.154s1.555-1.254.045-3.21c0 0-7.11-11.86-18.895-5.052l-9.367 4.462s-12.13 4.65-5.36 13.363c0 0 1.336 1.908 3.26 3.107 0 0 9.49 7.526 10.798 8.16 0 0 7.81 4.174 13.716-1.946 0 0 10.96-11.875 11.888-14.09 0 0 .434-.908.407-1.825 0 0-.67-2.633-4 .352 0 0-4.912 5.29-7.377 7.628 0 0-2.942 3.723-6.844 1.14 0 0-1.967-.9-9.143-7.607 0 0-3.15-2.788-1.054-5.25 0 0 7.3-6.317 11.447-3.65 0 0 1.86 1.114 2.878 1.96 0 0 1.498 1.12-.03 2.26l-4.805 3.6z" fill="#fff"/></g><path d="M19.375 63.446c-7.585 0-11.482-3.26-11.482-9.9 0-3.525 2.07-6.148 5.184-7.616 4.21-1.983 9.307-1.133 13.585.306 4.08 1.372 7.75 3.855 11.466 5.983l-.632.723c-2.845 3.14-6.11 5.674-9.587 7.727-3.372 1.81-6.216 2.655-8.535 2.776zm54.763-5.612a65.455 65.455 0 0 1-2.548-.873 5105.01 5105.01 0 0 0-10.156-3.643c-.654-.234-9.117-3.442-9.203-3.27 4.832-9.722 4.954-13.965 5.645-21.422h-13V20.5h16.25v-3.25h-16.25V9.125H38.76c-2.843 0-5.26.69-5.26 1.625v6.5H17.25v3.25H33.5v8.125h-13v3.25h27.625c-1.094 4.702-2.564 9.818-5.192 14.24-1.314-.523-2.477-1.003-2.933-1.24a46.91 46.91 0 0 0-14.23-4.432c-4.182-.604-8.582-.918-12.597.637-4.042 1.565-6.594 4.402-8.198 8.38-1.62 4.023-1.222 8.803.86 12.585 3.488 6.34 12.242 8.26 18.86 7.263 4.15-.625 8.15-1.888 11.724-4.12 1.87-1.168 3.598-2.552 5.204-4.06.634-.726 3.613-3.668 4.244-4.272l.16-.096.184.122c5.76 3.3 11.87 6.064 17.854 8.923a997.05 997.05 0 0 0 13.06 6.1c.195.09.253.335.13.51C74.576 76.25 70.9 79 66 79H14C6.82 79 1 73.18 1 66V14C1 6.82 6.82 1 14 1h52c7.18 0 13 5.82 13 13v44.587c0 .533-3.087-.243-3.665-.4-.404-.11-.802-.23-1.197-.353z" fill-rule="evenodd" clip-rule="evenodd" fill="#3f81ee"/><g><path d="M11.516 171.483l14.692-63.093c.78-3.313 3.454-6.17 6.603-7.39H14c-7.18 0-13 5.82-13 13v52c0 7.18 5.82 13 13 13h1.092c-2.847-1.1-4.394-4.04-3.576-7.517z" fill="#de3232"/><path d="M66 101H32.812c-3.15 1.22-5.823 4.077-6.603 7.39l-14.693 63.093c-.818 3.476.73 6.415 3.576 7.516h34.865c-2.85-1.102-4.398-4.04-3.58-7.517l14.69-63.093c.764-3.246 3.35-6.04 6.416-7.3-.488-.055-.982-.09-1.484-.09z" fill="#004888"/><path d="M74.8 104.45a12.94 12.94 0 0 0-7.317-3.36c-3.066 1.26-5.652 4.054-6.416 7.3l-14.69 63.093c-.818 3.476.73 6.415 3.58 7.516H66c7.18 0 13-5.82 13-13v-52c0-3.78-1.624-7.173-4.2-9.55z" fill="#008089"/><g fill="#fff"><path d="M17.692 130.394c-2.246.024-2.907 0-3.12-.05-.087.384-1.606 7.39-1.613 7.39-.327 1.42-.562 2.432-1.365 3.08a2.473 2.473 0 0 1-1.617.567c-.994 0-1.578-.498-1.677-1.44l-.016-.32s.3-1.9.304-1.907c0 0 1.59-6.386 1.878-7.227.008-.05.017-.07.026-.093-3.106.027-3.656 0-3.69-.05-.02.064-.102.464-.102.464l-1.623 7.187-.144.617-.265 1.995c0 .587.113 1.07.347 1.48.746 1.298 2.856 1.49 4.05 1.49 1.544 0 2.986-.326 3.96-.923 1.694-1 2.145-2.573 2.535-3.96l.185-.71s1.644-6.635 1.925-7.497a.202.202 0 0 1 .022-.09zM23.283 135.74c-.4 0-1.12.094-1.77.41-.238.126-.464.266-.696.404l.206-.767-.113-.134c-1.373.285-1.686.326-2.954.5l-.102.073c-.156 1.224-.283 2.143-.83 4.554-.21.88-.428 1.78-.648 2.668l.06.107c1.31-.062 1.7-.062 2.832-.048l.096-.098c.14-.74.16-.91.48-2.403.15-.713.46-2.265.615-2.823.283-.125.557-.254.825-.254.638 0 .56.552.537.773-.027.37-.26 1.582-.5 2.623l-.155.666c-.107.498-.228.982-.345 1.47l.054.094a35.05 35.05 0 0 1 2.77-.048l.127-.098c.2-1.15.26-1.46.61-3.136l.177-.77c.345-1.51.516-2.274.257-2.9-.272-.7-.934-.865-1.534-.865zM29.514 137.32c-.682.128-1.116.21-1.55.277-.425.066-.847.123-1.505.218l-.056.047-.048.04c-.066.49-.117.915-.203 1.417a30.815 30.815 0 0 1-.394 1.944c-.15.645-.23.872-.314 1.1-.08.225-.176.45-.34 1.082l.037.056.038.05c.615-.025 1.018-.047 1.432-.05.413-.012.845 0 1.507.003l.06-.045.062-.054c.097-.573.108-.728.17-1.008.055-.298.153-.71.4-1.817.117-.52.245-1.044.368-1.568l.38-1.577-.02-.056-.026-.06zM35.075 135.786c-.63 0-2.132.062-3.31 1.152-.84.776-1.23 1.84-1.47 2.853-.234 1.034-.512 2.9 1.204 3.594.534.226 1.29.287 1.782.287 1.26 0 2.546-.343 3.51-1.372.75-.832 1.09-2.068 1.208-2.58.384-1.69.09-2.478-.29-2.965-.578-.73-1.587-.967-2.635-.967zm.045 3.814c-.056.277-.307 1.343-.644 1.793-.233.332-.514.535-.826.535-.088 0-.628 0-.64-.81-.007-.396.073-.808.178-1.247.286-1.282.632-2.356 1.504-2.356.686 0 .727.797.428 2.086zM63.546 136.36l-.098.08-.045.327a1.878 1.878 0 0 0-.964-.816c-.587-.223-1.966.074-3.147 1.153-.832.77-1.234 1.823-1.465 2.835-.238 1.02-.512 2.886 1.193 3.555a3.533 3.533 0 0 0 1.53.278c.52-.03 1-.304 1.448-.68-.042.157-.08.316-.12.474l.08.1c1.232-.052 1.61-.052 2.94-.042l.118-.093c.194-1.14.382-2.25.887-4.433.24-1.04.49-2.083.744-3.118l-.048-.118c-1.374.255-1.736.305-3.054.497zm-.7 3.407c-.088.383-.196.762-.29 1.143-.092.24-.192.47-.31.62-.224.32-.757.517-1.068.517-.086 0-.623 0-.642-.794-.005-.39.078-.805.176-1.254.293-1.25.63-2.322 1.507-2.322.57 0 .844.563.758 1.49-.042.197-.078.37-.13.6zM45.147 135.74c-.393 0-1.12.094-1.77.41-.23.126-.46.266-.688.404l.2-.767-.11-.134c-1.377.285-1.684.326-2.958.5l-.1.073c-.156 1.224-.284 2.143-.827 4.554-.21.88-.42 1.78-.642 2.668l.063.107a36.22 36.22 0 0 1 2.822-.048l.096-.098c.144-.74.162-.91.472-2.403.155-.713.472-2.265.627-2.823.28-.125.557-.254.828-.254.632 0 .556.552.535.773-.027.37-.26 1.582-.497 2.623l-.156.666c-.116.498-.238.982-.347 1.47l.045.094a35.21 35.21 0 0 1 2.773-.048l.135-.098c.193-1.15.248-1.46.606-3.136l.174-.77c.348-1.51.52-2.274.26-2.9-.28-.7-.943-.865-1.54-.865zM59.606 134.205c.085-.355.147-.78.147-1.194 0-.548-.108-1.088-.43-1.518-.81-1.13-2.415-1.146-4.276-1.157l-.915.01c-2.38.03-3.33.016-3.722-.03-.034.173-.102.483-.102.483l-.847 3.954s-2.036 8.398-2.133 8.79c2.07-.022 2.927-.022 3.28.013.085-.394.566-2.74.572-2.74 0 0 .408-1.718.432-1.78 0 0 .128-.177.263-.253h.19c1.79 0 3.814 0 5.398-1.163 1.072-.805 1.81-1.983 2.143-3.415zm-3.368.24c-.195.875-.76 1.612-1.49 1.97-.608.305-1.342.327-2.103.327h-.493l.037-.194.906-3.93.02-.203.022-.156.36.037s1.866.164 1.913.164c.738.282 1.04 1.025.828 1.986zM75.664 135.732c-1.36.272-1.604.316-2.855.483l-.09.09c-.007.015-.01.036-.014.057l-.007-.02c-.932 2.15-.903 1.685-1.66 3.37-.006-.076-.006-.127-.012-.204l-.185-3.66-.12-.116c-1.42.272-1.456.316-2.77.483l-.107.09c-.008.048-.012.095-.018.143l.01.024c.16.84.127.65.29 1.976.076.648.175 1.305.252 1.946.128 1.072.203 1.602.36 3.24-.885 1.464-1.1 2.02-1.944 3.305l.047.122c1.284-.048 1.58-.048 2.533-.048l.21-.24c.716-1.54 6.18-10.925 6.18-10.925l-.102-.118zM29.526 135.19c-.618-.368-1.7-.254-2.433.253-.738.502-.824 1.202-.204 1.57.61.362 1.704.254 2.435-.257.725-.505.818-1.206.2-1.567z"/></g></g><g><path d="M166 201h-52c-7.18 0-13 5.82-13 13v52c0 7.18 5.82 13 13 13h52c7.18 0 13-5.82 13-13v-52c0-7.18-5.82-13-13-13z" fill="#fd7800"/><g fill-rule="evenodd" clip-rule="evenodd" fill="#fff"><path d="M103.4 256.938c6.97-3.87 9.81-10.402 12.027-17.36.68-2.142 1.45-4.265 2.29-6.354 2.628-6.52 7.784-9.906 14.695-10.988 2.112-.33 4.26-.455 6.53-.688-.14.285-.17.468-.268.518-4.982 2.56-8.006 6.693-9.845 11.734-1.294 3.54-2.45 7.127-3.72 10.673-2.817 7.883-8.88 11.594-17.08 12.5-1.48.163-2.974.216-4.458.317-.06-.118-.114-.234-.17-.352zM176.618 221.654c-1.337.97-2.332 1.64-3.27 2.384-4.104 3.268-6.358 7.683-8.024 12.447a512.15 512.15 0 0 0-2.47 7.29c-2.694 8.076-8.56 12.23-17.065 13.133-1.014.107-2.03.184-3.046.25-.48.03-.962.005-1.44.005-.006-.126-.042-.274-.008-.294 5.37-2.862 8.346-7.517 10.22-12.985 1.04-3.02 2.02-6.06 3.07-9.078 2.867-8.223 9.118-12.05 17.673-12.855 1.308-.12 2.623-.18 4.358-.298zM165.302 242.225c2.005 6.042 5.158 11.378 11.27 14.82-5.635.537-13.896-1.58-16.426-4.607l5.156-10.213zM114.544 236.5c-3.924-8.867-3.924-8.867-11.162-14.813 6.097.244 11.776.998 16.268 4.76-1.756 3.455-3.424 6.744-5.106 10.053zM140.912 221.803c6.025.115 11.867.762 16.36 4.61l-5.25 10.172c-1.97-6.018-4.826-11.59-11.11-14.782zM138.685 257.064c-5.944-.07-11.677-.784-16.114-4.552 1.772-3.4 3.457-6.638 5.212-10.007 1.98 5.912 4.764 11.413 10.903 14.56z"/></g></g><g><path d="M66 301H14c-7.18 0-13 5.82-13 13v52c0 7.18 5.82 13 13 13h52c7.18 0 13-5.82 13-13v-52c0-7.18-5.82-13-13-13z" fill="#fd7800"/><g fill="#fff"><path d="M53.494 339.224c.198.02 1.228-2.103 1.302-2.247 1.038-2.033 1.57-4.194 1.696-6.46.167-3.004.053-6.153-1.18-8.956-1.49-3.394-4.215-4.628-7.704-5.605-4.33-1.212-9.445-1.33-13.702.23-4.67 1.71-8.155 5.236-10.924 9.165-6.683 9.485-12.786 18.12-12.786 18.12s25.136-6.228 43.298-4.246z"/><path d="M57.563 322.526c.175.862.962 1.88 1.36 2.66 1.093 2.128 2.193 4.25 3.29 6.376 2.328 4.504 4.697 9.002 6.973 13.524 3.827 7.604-3.676 13.744-10.317 16.17-12.932 4.724-26.3 3.596-26.3 3.596s30.653-14.44 24.993-42.326z"/><path d="M41.878 355.93l-13.665-14.44c-5.2.51-11.105 1.084-15.832 3.347-5.822 2.787-.504 10.213 2.612 13.074 3.69 3.388 7.362 6.462 12.84 5.874 4.384-.47 8.486-3.282 11.864-5.882a18.437 18.437 0 0 0 2.182-1.973z"/></g></g></svg>