<svg xmlns="http://www.w3.org/2000/svg" width="150" height="300" viewBox="0 0 150 300"><linearGradient id="a" gradientUnits="userSpaceOnUse" x1="25" y1="51.285" x2="25" y2="98.523"><stop offset="0" stop-color="#27c244"/><stop offset="1" stop-color="#46c773"/></linearGradient><path d="M25 51c13.255 0 24 10.745 24 24S38.255 99 25 99 1 88.255 1 75s10.745-24 24-24z" fill-rule="evenodd" clip-rule="evenodd" fill="url(#a)"/><path d="M12.733 81.728l-3.33.084c-3.435-7.839-.499-17.173 7.086-21.552 4.514-2.606 9.725-2.906 14.274-1.271l.716 2.841c-1.086.182-2.856.656-4.473 1.884l-8.953-1.722-.453-1.191s-2.4 1.084-4.52 3.484c0 0-1.584 1.61-2.644 3.99l1.413.561 2.956 8.066c-.888 1.474-1.684 3.674-2.072 4.826zM12.921 83.129h-2.869c.069.127.135.255.208.381a16.931 16.931 0 0 0 6.982 6.636l.017-2.654c-.9-.622-2.657-2.015-4.338-4.363zM40.742 68.536l-3.466-.361c.009 1.382-.981 3.48-1.491 4.469l2.417 8.156c.63.251.698.286 1.592.48 0 0-.954 2.306-3.034 4.646 0 0-2.06 2.16-3.898 3.147 0 0-.177-.389-.895-2.331l-7.419-1.649c-.849.535-3.664 2.22-6.129 2.703v2.899c4.734 1.981 10.304 1.809 15.091-.955 7.473-4.314 10.432-13.439 7.232-21.204zM36.957 66.917l3.329.606a16.936 16.936 0 0 0-8.345-8.061l.73 2.342c2.539 1.38 3.786 3.843 4.286 5.113z" fill="#fff"/><path d="M27.975 70.891c-.515-1.97-1.5-5.047-1.817-6.026l-7.967-1.476c-1.95 1.527-4.107 4.215-4.951 5.309l2.771 7.696c1.443.363 4.642 1.141 6.252 1.329l5.712-6.832zM24.425 83.818l8.524 1.894c1.201-.982 3.114-2.741 4.096-4.657l-2.326-8.056c-1.957-.476-4.797-1.008-5.989-1.226l-5.652 6.908c.302 1.273.868 3.592 1.347 5.137z" fill="#fff"/><linearGradient id="b" gradientUnits="userSpaceOnUse" x1="75" y1="51.051" x2="75" y2="98.57"><stop offset="0" stop-color="#ffae01"/><stop offset="1" stop-color="#f8c823"/></linearGradient><path d="M91.971 91.971c-9.372 9.372-24.568 9.372-33.941 0-9.373-9.372-9.373-24.569 0-33.941 9.373-9.373 24.569-9.372 33.941 0 9.372 9.372 9.372 24.568 0 33.941z" fill="url(#b)"/><path d="M65.502 61.117l-.036-.238a16.973 16.973 0 0 1 7.931-2.842c-1.51.523-2.941 1.473-3.638 2.775-.53.99-.592 2.252-.176 3.41a39.678 39.678 0 0 0-2.841 1.421 29.12 29.12 0 0 1-.796-2.468 18.906 18.906 0 0 1-.444-2.058zm14.794 1.948c-2.709 0-5.64.627-8.715 1.865a6.852 6.852 0 0 0 1.438 1.494c1.554 1.219 3.466 2.066 5.315 2.884l.49.217c4.874 2.161 10.314 4.596 12.663 9.74 1.186-4.607.42-9.613-2.305-13.702-.507-.342-1.492-.761-1.712-.869-2.2-1.076-4.695-1.629-7.174-1.629zM61.92 69.359l-.045-.079c-.488-.844-1.172-1.55-1.925-1.989l-.112-.065a17.06 17.06 0 0 0-1.799 9.382 21.28 21.28 0 0 1 2.038-4.828 17.818 17.818 0 0 1 1.843-2.421zm12.068-10.302c-1.109.501-2.41 1.258-2.939 2.405-.338.643-.38 1.39-.128 2.176 3.292-1.338 6.446-2.016 9.378-2.016 2.541 0 5.053.615 7.251 1.868a16.959 16.959 0 0 0-10.322-5.378c-.458.089-.989.256-1.209.303-.695.15-1.381.349-2.031.642zM62.968 68.3c.53-.491 1.087-.946 1.659-1.353.258-.178.53-.356.85-.556-.624-1.654-1.064-3.177-1.315-4.537a17.02 17.02 0 0 0-3.61 4.119l.106.06c.901.511 1.696 1.292 2.31 2.267zm18.533 3.962c-3.113-1.495-6.637-2.548-9.378-4.701a8.314 8.314 0 0 1-1.887-2.05 38.318 38.318 0 0 0-2.962 1.49c.814 1.964 1.865 4.064 3.127 6.245a72.41 72.41 0 0 0 1.489 2.455c5.262 8.318 9.921 12.248 11.68 13.552l.35.26a17.088 17.088 0 0 0 3.119-2.463 16.966 16.966 0 0 0 3.972-6.248c-.492-.796-.852-1.691-1.416-2.462-2.039-2.787-5.03-4.607-8.094-6.078zM65.844 87.877c-2.218-3.363-2.499-7.287-2.692-11.204-.024-.487-.048-.97-.076-1.449l-.016-.245c-.087-1.389-.178-2.82-.536-4.113-.44.53-.85 1.093-1.221 1.677a20.115 20.115 0 0 0-2.563 5.133l-.353 1.088a16.952 16.952 0 0 0 4.566 8.285 17.007 17.007 0 0 0 4.992 3.464c-.814-.712-1.541-1.786-2.101-2.636zm4.824-11.404a76.955 76.955 0 0 1-1.517-2.504c-1.251-2.161-2.303-4.251-3.129-6.216-.204.131-.387.252-.559.371-.633.451-1.245.964-1.818 1.525.626 1.665.737 3.372.844 5.025l.031.464c.025.441.046.88.068 1.319.231 4.728.957 9.439 4.116 13.201.316.377.644.745.974 1.109.175.193.39.393.584.601a17.074 17.074 0 0 0 12.271-1.087l-.115-.089c-2.231-1.711-6.721-5.769-11.75-13.719z" fill="#fff"/><linearGradient id="c" gradientUnits="userSpaceOnUse" x1="125" y1="51.205" x2="125" y2="99"><stop offset="0" stop-color="#27c244"/><stop offset="1" stop-color="#46c773"/></linearGradient><path d="M125 51c13.255 0 24 10.745 24 24s-10.745 24-24 24-24-10.745-24-24 10.745-24 24-24z" fill="url(#c)"/><path d="M132.045 87.566c-6.547-1.868-8.74-1.736-12.194 1.873-3.14 2.639-4.812 2.703-4.069-1.819 1.523-4.699 3.135-6.167-3.746-8.615-4.594-1.722-4.357-2.453.555-4.841 5.536-3.581 6.181-6.616 4.522-11.287-3.841-4.515 2.947-5.115 8.105-.934 4.535 3.714 5.17 6.606 10.6 6.538 4.588-.474 5.588.274 2.494 3.736-3.207 2.429-6.641 7.931-.626 10.586 2.031.897 2.553.634 2.801 2.179.135.844-4.152 3.808-8.442 2.584z" fill="#fff"/><linearGradient id="d" gradientUnits="userSpaceOnUse" x1="119.919" y1="78.42" x2="131.766" y2="78.42"><stop offset="0" stop-color="#27c244"/><stop offset="1" stop-color="#46c773"/></linearGradient><path d="M119.919 77.822s7.586 5.397 11.535-1.868l.312.623s-3.364 8.296-11.846 1.868v-.623z" fill="url(#d)"/><linearGradient id="e" gradientUnits="userSpaceOnUse" x1="124.603" y1="74.553" x2="127.082" y2="74.553"><stop offset="0" stop-color="#27c244"/><stop offset="1" stop-color="#46c773"/></linearGradient><path d="M125.594 73.492c.671-.157 1.325.192 1.463.778.137.586-.295 1.188-.966 1.345-.671.156-1.325-.192-1.463-.778-.137-.587.296-1.189.966-1.345z" fill="url(#e)"/><linearGradient id="f" gradientUnits="userSpaceOnUse" x1="123.98" y1="69.255" x2="131.15" y2="69.255"><stop offset="0" stop-color="#27c244"/><stop offset="1" stop-color="#46c773"/></linearGradient><path d="M127.565 65.67a3.585 3.585 0 1 1 0 7.17 3.585 3.585 0 0 1 0-7.17z" fill="url(#f)"/><linearGradient id="g" gradientUnits="userSpaceOnUse" x1="116.78" y1="71.438" x2="123.98" y2="71.438"><stop offset="0" stop-color="#27c244"/><stop offset="1" stop-color="#46c773"/></linearGradient><path d="M120.38 67.86c1.988 0 3.6 1.602 3.6 3.578 0 1.976-1.612 3.577-3.6 3.577s-3.6-1.602-3.6-3.577c0-1.976 1.612-3.578 3.6-3.578z" fill="url(#g)"/><path d="M127.865 65.04a3.588 3.588 0 0 1 3.585 3.592 3.59 3.59 0 0 1-3.585 3.593 3.589 3.589 0 0 1-3.585-3.593 3.588 3.588 0 0 1 3.585-3.592zM120.703 67.23a3.58 3.58 0 0 1 3.577 3.585 3.581 3.581 0 0 1-3.577 3.585 3.582 3.582 0 0 1-3.578-3.585 3.582 3.582 0 0 1 3.578-3.585z" fill="#fff"/><linearGradient id="h" gradientUnits="userSpaceOnUse" x1="127.715" y1="67.552" x2="129.59" y2="67.552"><stop offset="0" stop-color="#27c244"/><stop offset="1" stop-color="#46c773"/></linearGradient><path d="M128.653 66.63a.93.93 0 0 1 .937.922.93.93 0 0 1-.937.923.93.93 0 0 1-.938-.923.93.93 0 0 1 .938-.922z" fill="url(#h)"/><linearGradient id="i" gradientUnits="userSpaceOnUse" x1="120.53" y1="69.728" x2="122.405" y2="69.728"><stop offset="0" stop-color="#27c244"/><stop offset="1" stop-color="#46c773"/></linearGradient><path d="M121.467 68.79a.937.937 0 1 1 0 1.874.937.937 0 0 1 0-1.874z" fill="url(#i)"/><g><linearGradient id="j" gradientUnits="userSpaceOnUse" x1="25" y1="100.885" x2="25" y2="148.885"><stop offset="0" stop-color="#27c244"/><stop offset="1" stop-color="#46c773"/></linearGradient><path d="M25 101c13.255 0 24 10.745 24 24s-10.745 24-24 24-24-10.745-24-24 10.745-24 24-24z" fill="url(#j)"/><path d="M32.045 137.566c-6.547-1.868-8.74-1.736-12.194 1.873-3.14 2.639-4.812 2.703-4.069-1.819 1.523-4.699 3.135-6.167-3.746-8.615-4.594-1.722-4.357-2.453.555-4.841 5.536-3.581 6.181-6.616 4.522-11.287-3.841-4.515 2.947-5.115 8.105-.934 4.535 3.714 5.17 6.606 10.6 6.538 4.588-.474 5.588.274 2.494 3.736-3.207 2.429-6.641 7.931-.626 10.586 2.031.896 2.553.634 2.801 2.179.135.844-4.152 3.808-8.442 2.584z" fill="#fff"/><linearGradient id="k" gradientUnits="userSpaceOnUse" x1="23.98" y1="119.255" x2="31.15" y2="119.255"><stop offset="0" stop-color="#27c244"/><stop offset="1" stop-color="#46c773"/></linearGradient><path d="M27.565 115.67a3.585 3.585 0 1 1 0 7.17 3.585 3.585 0 0 1 0-7.17z" fill="url(#k)"/><linearGradient id="l" gradientUnits="userSpaceOnUse" x1="16.78" y1="121.438" x2="23.98" y2="121.438"><stop offset="0" stop-color="#27c244"/><stop offset="1" stop-color="#46c773"/></linearGradient><path d="M20.38 117.86c1.988 0 3.6 1.602 3.6 3.578 0 1.976-1.612 3.577-3.6 3.577s-3.6-1.602-3.6-3.577c0-1.976 1.612-3.578 3.6-3.578z" fill="url(#l)"/><path d="M27.865 115.04a3.588 3.588 0 0 1 3.585 3.592 3.59 3.59 0 0 1-3.585 3.593 3.589 3.589 0 0 1-3.585-3.593 3.588 3.588 0 0 1 3.585-3.592zM20.703 117.23a3.58 3.58 0 0 1 3.577 3.585 3.581 3.581 0 0 1-3.577 3.585 3.582 3.582 0 0 1-3.578-3.585 3.582 3.582 0 0 1 3.578-3.585z" fill="#fff"/><path d="M34.285 129.135h5.04v5.415h-5.04v-5.415z" fill="#3ac560"/><linearGradient id="m" gradientUnits="userSpaceOnUse" x1="19.919" y1="128.42" x2="31.766" y2="128.42"><stop offset="0" stop-color="#27c244"/><stop offset="1" stop-color="#46c773"/></linearGradient><path d="M19.919 127.822s7.586 5.397 11.535-1.868l.312.623s-3.364 8.296-11.846 1.868v-.623z" fill="url(#m)"/><linearGradient id="n" gradientUnits="userSpaceOnUse" x1="27.715" y1="117.552" x2="29.59" y2="117.552"><stop offset="0" stop-color="#27c244"/><stop offset="1" stop-color="#46c773"/></linearGradient><path d="M28.653 116.63a.93.93 0 0 1 .937.922.93.93 0 0 1-.937.923.93.93 0 0 1-.938-.923.93.93 0 0 1 .938-.922z" fill="url(#n)"/><linearGradient id="o" gradientUnits="userSpaceOnUse" x1="20.53" y1="119.728" x2="22.405" y2="119.728"><stop offset="0" stop-color="#27c244"/><stop offset="1" stop-color="#46c773"/></linearGradient><path d="M21.467 118.79a.937.937 0 1 1 0 1.874.937.937 0 0 1 0-1.874z" fill="url(#o)"/><linearGradient id="p" gradientUnits="userSpaceOnUse" x1="24.603" y1="124.553" x2="27.082" y2="124.553"><stop offset="0" stop-color="#27c244"/><stop offset="1" stop-color="#46c773"/></linearGradient><path d="M25.594 123.491c.671-.156 1.325.192 1.463.778.137.586-.295 1.188-.966 1.344-.671.156-1.325-.192-1.463-.778-.137-.585.296-1.187.966-1.344z" fill="url(#p)"/><path d="M39.576 141.39l2.843-13.68h-9.29l-1.936 8.516h6.194l-.674 2.39h-6.377l-.582 2.775h9.822zm-1.802-8.261h-2.323l.387-2.323h2.323l-.387 2.323z" fill="#fff" stroke="#3ac560" stroke-width="1.014" stroke-miterlimit="10"/></g><g><linearGradient id="q" gradientUnits="userSpaceOnUse" x1="25" y1=".885" x2="25" y2="48.17"><stop offset="0" stop-color="#fe4233"/><stop offset="1" stop-color="#fc695a"/></linearGradient><path d="M25 1c13.255 0 24 10.745 24 24S38.255 49 25 49 1 38.255 1 25 11.745 1 25 1z" fill-rule="evenodd" clip-rule="evenodd" fill="url(#q)"/><path d="M36.4 32.246a2.883 2.883 0 0 1 2.88 2.886 2.883 2.883 0 0 1-2.88 2.886 2.883 2.883 0 0 1-2.88-2.886 2.883 2.883 0 0 1 2.88-2.886z" fill-rule="evenodd" clip-rule="evenodd" fill="#00dfff" stroke="#fff" stroke-width="1.106" stroke-miterlimit="10"/><path d="M18.783 32.24a2.886 2.886 0 0 1 2.88 2.893 2.886 2.886 0 0 1-2.88 2.893 2.886 2.886 0 0 1-2.88-2.893 2.885 2.885 0 0 1 2.88-2.893zM29.62 25.466a2.883 2.883 0 0 1 2.88 2.886 2.883 2.883 0 0 1-2.88 2.886 2.883 2.883 0 0 1-2.88-2.886 2.883 2.883 0 0 1 2.88-2.886z" fill-rule="evenodd" clip-rule="evenodd" fill="#ffe41b" stroke="#fff" stroke-width="1.106" stroke-miterlimit="10"/><path d="M14.862 28.627c.067 1.114-.382 1.643-1.347 1.589-1.01.054-1.47-.476-1.38-1.589v-2.72h-1.347v3.124c.045 1.239.954 1.876 2.727 1.912 1.728-.036 2.626-.673 2.693-1.912v-3.124h-1.347v2.72zm8.181 2.262h-1.919L18.7 26.741l-.034.027v4.121H17.42v-4.983h1.986l2.357 3.932.034-.027v-3.905h1.246v4.983zm2.39-4.983v4.983h-1.347v-4.983h1.347zm13.871 4.983h-1.919l-2.424-4.148-.034.027v4.121h-1.246v-4.983h1.986l2.357 3.932.034-.027v-3.905h1.246v4.983zm-24.543 6.513h-4.006V32.42h1.313v4.148h2.693v.834zm7.44-4.147v-.835h5.05v.835h-1.852v4.148h-1.347v-4.148h-1.851zm5.252 0v-.835h5.05v.835h-1.852v4.148h-1.347v-4.148h-1.851z" fill="#fff"/><g fill="#fff"><path d="M17.932 15.882a315.37 315.37 0 0 0-.8 2.794c-.319-.72-.641-1.44-.967-2.159-.457.022-.915.045-1.372.069a264.495 264.495 0 0 1 1.758 3.797c-.213.704-.423 1.408-.63 2.113-.018.188-.134.274-.35.258l-.322.017.058 1.078c.36-.019.72-.038 1.081-.055.4-.019.645-.217.736-.594l.286-.853.397.824c.121.342.354.506.702.494.4-.015.801-.028 1.202-.04l-.031-1.04-.524.016c-.214.034-.338-.055-.372-.268a333.13 333.13 0 0 0-.798-1.852 300.541 300.541 0 0 1 1.53-4.775l-.033-1.12c-1.582.047-3.163.113-4.743.198l.067 1.238a230.27 230.27 0 0 1 3.125-.14zm-6.544.959c-.429.031-.858.063-1.287.097a297.005 297.005 0 0 1 1.67 3.525c-.228.818-.453 1.637-.675 2.456-.019.109-.069.153-.152.132l-.362.028.085 1.077.919-.07c.322.003.536-.173.646-.528l.36-1.228c.188.388.376.777.562 1.165.101.314.324.46.671.439.373-.023.747-.045 1.12-.065l-.06-1.078-.483.027c-.133.035-.231-.027-.294-.183a295.05 295.05 0 0 0-.986-2.143c.434-1.524.881-3.047 1.34-4.568l-.06-1.078c-1.496.083-2.991.184-4.486.301l.097 1.236c.971-.076 1.943-.146 2.916-.207-.211.842-.419 1.684-.624 2.526-.302-.621-.608-1.241-.917-1.861zM21.452 16.541c.388.019.636-.052.745-.213l.411-.406c1.807-.025 3.614-.025 5.421.001-.367.408-.732.817-1.095 1.228a194.213 194.213 0 0 0-6.34.05l.13 5.358c-.166.858.27 1.218 1.309 1.093 2.616-.046 5.233-.036 7.849.028l.027-1.12a188.77 188.77 0 0 0-7.373-.036c-.268.058-.377-.047-.328-.315l-.02-1.24a190.51 190.51 0 0 1 6.459.004c.918.124 1.347-.264 1.288-1.173l.063-2.599c-.387-.009-.773-.018-1.16-.025.38-.406.763-.812 1.149-1.216l.027-1.12a192.871 192.871 0 0 0-6.543-.048l.333-.403c-.588.004-1.177.012-1.765.021-.234.257-.467.515-.699.773-.137.163-.261.232-.372.208l-.418.01.028 1.16c.292-.008.583-.015.874-.02zm.693 1.707c.797-.013 1.593-.021 2.39-.024l.006 1.6c-.79.003-1.58.011-2.37.024l-.026-1.6zm5.747 1.592c-.627-.009-1.253-.014-1.88-.016l.006-1.6c.81.003 1.621.011 2.431.024l-.02 1.2c.05.321-.129.451-.537.392zM34.795 16.735c.72.035 1.44.075 2.159.118l-.183 3.034c-.45-.027-.899-.053-1.349-.076-.213.923-.424 1.847-.632 2.771-.065.211-.176.298-.336.264l-.08-.004-.05 1.039.76.038c.453.024.747-.213.883-.713.211-.869.424-1.739.639-2.607l.122.007-.13 2.156c-.01.16-.082.235-.215.228l-.201-.012-.06 1.038.84.051c.634.12.952-.232.955-1.06l.156-2.315.163.011.096 2.733c-.009.507.268.766.829.782l.759.058.081-1.037-.241-.019c-.163.014-.235-.098-.217-.337-.023-.938-.048-1.876-.074-2.813-.449-.033-.899-.065-1.348-.095l.207-3.073.872.061c.828.087 1.268-.212 1.323-.904l.059-.758c-.405-.032-.809-.062-1.214-.091l-.026.359c-.04.158-.143.23-.31.219l-.585-.04.051-.758c-.461-.031-.922-.061-1.384-.088l-.046.759c-.738-.045-1.476-.085-2.215-.121l-.058 1.195zm-2.691 1.968c-.384-.014-.767-.026-1.151-.037l-.033 1.12c.382.011.763.024 1.144.037l-.105 2.958c-.389-.014-.778-.026-1.167-.038l-.029 1c1.134.033 2.268.077 3.402.131l.049-1.039c-.322-.015-.644-.03-.966-.043l.124-2.917.981.044.051-1.079c-.329-.016-.657-.03-.986-.044l.12-2.837c.348.015.695.03 1.042.047l.051-1.079a192.662 192.662 0 0 0-3.565-.138l-.033 1.119c.389.011.779.024 1.168.038l-.097 2.757zm7.11.906c.487.089.79-.101.909-.574l.359-1.416c-.427-.034-.855-.066-1.283-.097l-.225.826c-.071.209-.159.296-.267.262l-.247-.017-.066.958.82.058zm-2.685-1.179l-.206-.012c-.194.016-.285-.069-.275-.256l-.121-.808c-.428-.024-.856-.046-1.284-.066l.142 1.329c.03.509.292.749.786.721.301.016.601.033.902.051l.056-.959z"/></g></g><g><path d="M92.637 28.82l1.056.042.427 1.712-1.053.005-.43-1.759z" fill="#fff"/><linearGradient id="r" gradientUnits="userSpaceOnUse" x1="75" y1="1.305" x2="75" y2="48.702"><stop offset="0" stop-color="#fc7c36"/><stop offset="1" stop-color="#ff9f43"/></linearGradient><path d="M75 1c13.255 0 24 10.745 24 24S88.255 49 75 49 51 38.255 51 25 61.745 1 75 1z" fill-rule="evenodd" clip-rule="evenodd" fill="url(#r)"/><path d="M63.138 13.607l-1.508.306-.164 1.651 1.548-.326-.092 1.018-1.023.22-.078.807 1.058-.232-.095 1.05-1.065.239-.15 1.562 5.767-1.27-.051 1.205-6.543 1.377c-.212.05-.42.068-.624.055-.204-.013-.33-.033-.376-.059l-.192-.1-.269.284c-.165.173-.418.301-.76.382l-.552.131.132-1.131.056-.013c.089-.021.148-.062.179-.124a.926.926 0 0 0 .071-.226c.017-.089.027-.15.031-.184l.317-2.772 1.215-.264-.245 2.281a1.203 1.203 0 0 0-.007.152c.001.044.031.1.088.168.056.067.111.101.164.099l.357.006.326-3.154-2.083.449.121-1.045 1.496-.316.178-1.664-1.5.304.117-1.016 1.49-.296.083-.777 1.249-.243-.077.771 1.498-.297-.087.992zm.941-.794l-.584.116.088-.986 3.8-.742-.17 2.592a3.2 3.2 0 0 1-.077.491.962.962 0 0 1-.237.462c-.116.121-.387.228-.817.319l-.6.128.074-.987.26-.054c.108-.023.172-.081.193-.175.02-.094.034-.187.04-.279l.094-1.299-.863.173-.444 1.986a1.982 1.982 0 0 1-.129.381 1.37 1.37 0 0 1-.231.337c-.1.109-.286.193-.557.251l-.704.15.087-.986.161-.034c.161-.034.262-.146.303-.336l.313-1.508zm-.838 3.134l3.968-.85-.129 1.989c-.024.37-.136.676-.334.917-.2.241-.515.412-.944.51l-2.846.654.285-3.22zm1.097.765l-.092 1.134 1.281-.289c.138-.032.237-.085.295-.163.058-.078.094-.2.106-.367l.048-.674-1.638.359zM69.685 13.374l.564-.111.641-1.073 1.49-.289-2.343 4.022 1.776-.364-.056 1.129-3.467.72.063-.932 1.27-2.099-1.306.26.087-1.281 1.566-2.831 1.484-.279-1.769 3.128zm1.829 5.496l-3.487.748.078-1.154 3.466-.732-.057 1.138zm2.181-4.861l1.057-.217.631 1.1.731-1.493-1.338.268.037-1.046 1.142-2.167-3.824.728.052-1.053 5.331-1-.019.849-1.336 2.359 1.324-.266-.014 1.074-1.44 2.834.25.362c.093.134.164.214.212.237.048.022.162.014.343-.024l.871-.241-.025 1.242-1.09.231c-.281.06-.514.022-.659.04-.145.018-.291-.066-.437-.252l-.277-.346-.334.443a2.272 2.272 0 0 1-.322.342c-.126.11-.311.191-.554.244l-.521.111.046-1.118.144-.03c.201-.043.344-.132.427-.266l.501-.835-.94-1.712-.368 2.873c-.06.457-.144.773-.252.947-.109.174-.353.302-.734.384l-.542.116.053-1.083.099-.021c.056-.011.101-.052.137-.122.036-.07.067-.208.094-.415l.701-5.711 1.236-.238-.393 2.872z" fill="#ffe41b"/><path d="M56.17 29.58c.092.693-.132 1.318-.504 1.309-1.151-.027-1.199-.5-1.295-1.191-.096-.695.586-1.289.958-1.322.372-.033.749.508.841 1.204z" fill="#fff"/><path d="M55.768 29.614c.037.278-.054.514-.203.527-.148.013-.755-.2-.793-.478-.038-.279.509-.518.658-.531.149-.013.3.204.338.482zM56.281 28.79s.383.982.164 1.496l2.266-.151s4.347 7.02 4.637 7.243l2.573.221s-3.292-4.107-5.031-7.521c0 0 3.058-.203 3.792-.066l.8-1.747s-3.474.068-4.838.171l-1.799.105-2.564.249zM66.953 32.253s-.539-1.512-.582-4.686c-.044-3.24.467-4.996.467-4.996s7.424-1.834 16.439-.407l-.728 2.613s-7.599-.839-12.43.047c0 0-.371 1.002-.366 2.617.005 1.599.322 2.519.322 2.519l4.32-.022.051-4.304 3.217-.024-.094 4.312 7.287-.037-1.218 2.355-6.016.023-.265 7.06h-5.324l.009-2.034 2.37-.003.061-5.061-7.52.028zM87.342 26.808c-.04.759-.712 1.376-1.502 1.381-.789.005-1.401-.604-1.369-1.362.033-.762.704-1.387 1.5-1.393.798-.005 1.411.612 1.371 1.374z" fill="#fff"/><path d="M84.796 29.15l2.45-.013s.11 2.646-.357 5.893l.428.274 1.401-3.012-1.141.004.061-1.126 6.45-.17-.063.848-.554.753.498-.002-.252 1.397-1.172 1.158-1.447.233.064-.967 1.501-.235.039-.557-.698.049.057-.838.6-.751-2.201.149-1.538 3.337-.687.001.323.365s4.699-.375 5.333-.928l-.434 1.194s-2.321.869-6.044.964l-.759-.407-1.899.997s.639-6.393.568-7.004l-.597.003.07-1.609z" fill="#fff"/><path d="M90.697 26.858l-.03.484-2.923-.03-.062 1.153 2.966-.017-.106 2.473 1.588-.575.174-1.812 1.756.133.125-1.009c-.297-.095-2.008-.229-2.008-.229l.038-.561c.246-.101 1.766.113 1.766.113l.176-1.022c-1.452-.331-6.168-.394-6.168-.394l-.067 1.246c0 .001 1.578-.093 2.775.047z" fill="#fff"/><path d="M90.23 28.69l-1.658.01-.963 2.046 1.845-.008.776-2.048zM78.932 33.496l3.32-.01 2.107 5.25-3.052.183-2.375-5.423zM62.515 25.177s-2.669 5.532-3.786 11.67l-1.87-.553s1.068-6.422 3.392-10.962l2.264-.155zM71.756 35.549c-.006 1.692-.949 2.943-2.714 2.944-1.762.001-3.157-.827-3.184-2.51-.027-1.701.904-2.985 2.696-2.991 1.796-.006 3.208.845 3.202 2.557z" fill="#fff"/><path d="M70.744 35.839a1.935 1.935 0 1 1-1.936-1.934c1.07 0 1.936.866 1.936 1.934z" fill="#ffe41b"/><path fill="#fff" d="M92.415 28.874l1.501.051.785 1.821h-1.5z"/></g><g><linearGradient id="s" gradientUnits="userSpaceOnUse" x1="125" y1=".806" x2="125" y2="48.806"><stop offset="0" stop-color="#0091f6"/><stop offset="1" stop-color="#2faefd"/></linearGradient><path d="M149 25c0 13.255-10.745 24-24 24s-24-10.745-24-24 10.745-24 24-24 24 10.745 24 24z" fill="url(#s)"/><path d="M142.9 24.336c0 5.918-4.996 9.554-8.518 11.144-1.376.621-5.533 1.696-6.309 1.495l1.748-8.928c1.024.448 1.324 1.117 3.448 1.117 1.925 0 4.159-.868 4.487-4.148.31-3.098-1.832-5.606-4.859-5.606-2.027 0-3.506 1.269-4.454 2.953l-.065.019-1.433 9.325h-4.926l2.174-16.172.353-.352h9.882c5.72 0 8.472 3.993 8.472 9.153z" fill-rule="evenodd" clip-rule="evenodd" fill="#fff"/><path d="M112.758 27.485h1.892c1.524 0 2.522.223 2.996.669.473.446.643 1.12.509 2.021-.127.851-.523 1.53-1.189 2.036-.666.507-1.473.76-2.421.76-2.038 0-3.11-1.072-3.215-3.216l-4.485.64c.015 1.794.632 3.297 1.849 4.508 1.217 1.211 3.022 1.817 5.413 1.817 2.492 0 4.535-.589 6.128-1.767s2.526-2.68 2.798-4.508c.379-2.548-.763-4.193-3.428-4.934 2.485-.834 3.897-2.384 4.234-4.652.257-1.728-.249-3.091-1.518-4.087-1.27-.996-2.944-1.495-5.022-1.495-1.988 0-3.739.526-5.253 1.577-1.514 1.052-2.567 2.38-3.159 3.985l4.182.686c.698-1.778 1.885-2.667 3.561-2.667.878 0 1.523.257 1.936.77.413.513.57 1.1.472 1.76-.088.589-.392 1.143-.913 1.661s-1.402.777-2.644.777h-2.18l-.543 3.659z" fill="#fff"/><path d="M133.175 18.958a5.247 5.247 0 1 1 0 10.494 5.247 5.247 0 0 1 0-10.494z" fill-rule="evenodd" clip-rule="evenodd" fill="#ffe41b" stroke="#ffba28" stroke-width="2.212" stroke-miterlimit="10"/><path d="M139.295 10.285a1.35 1.35 0 1 1 .001 2.699 1.35 1.35 0 0 1-.001-2.699zM139.558 14.83c1.023 0 1.853.833 1.853 1.86 0 1.027-.829 1.86-1.853 1.86a1.857 1.857 0 0 1-1.853-1.86c0-1.027.83-1.86 1.853-1.86z" fill-rule="evenodd" clip-rule="evenodd" fill="#ffe41b"/></g><g><linearGradient id="t" gradientUnits="userSpaceOnUse" x1="75" y1="101.162" x2="75" y2="148.65"><stop offset="0" stop-color="#fc7c36"/><stop offset="1" stop-color="#ff9f43"/></linearGradient><path d="M75 101c13.255 0 24 10.745 24 24s-10.745 24-24 24-24-10.745-24-24 10.745-24 24-24z" fill-rule="evenodd" clip-rule="evenodd" fill="url(#t)"/><path d="M88.073 108.05c1.479 0 2.677 1.202 2.677 2.685s-1.199 2.685-2.677 2.685c-1.479 0-2.678-1.202-2.678-2.685s1.199-2.685 2.678-2.685zM78.285 102.935a4.065 4.065 0 1 1 0 8.13 4.065 4.065 0 0 1 0-8.13zM69.356 112.738c-.237.115-.024-.047-.144-.276l-3.838-6.37c-.12-.229.126-.947.364-1.062l.43-.208c.237-.115 1.085.093 1.205.322l2.24 7.243c.12.23-.019.237-.257.351zM67.97 113.556c-.095.12.219.122-.017.006l-5.415-3.206c-.236-.116-.342-.859-.22-1.087l.222-.413c.122-.228 1.309-.399 1.545-.283l4.125 4.487c.075.038-.118.268-.24.496zM67.406 114.699c.017.256-.385.047-.65.066l-9.304-2.176c-.265.019-.56-.632-.576-.887l-.03-.463c-.017-.255.894-.706 1.16-.725l8.98 3.735c.479.078.406.313.42.45zM61.153 123.86c.002.284-.057.001-.334.008l-7.216-.461c-.277.007-.862-.572-.865-.856l-.004-.515c-.002-.284.588-1.007.865-1.014l7.331 2.423c.278-.007.221.131.223.415zM60.635 125.476c.071.15.223-.15-.002.019l-5.047 2.885c-.225.169-.991-.093-1.152-.323l-.292-.415c-.161-.229.24-1.452.464-1.621l5.665-1.019c.072-.053.202.244.364.474zM60.558 127.349c.183.108-.147.394-.257.659l-3.894 6.152c-.11.265-1.366.544-1.549.436l-.332-.195c-.183-.108-.069-1.205.041-1.47l5.486-5.393c.277-.426.405-.242.505-.189z" opacity=".5" fill-rule="evenodd" clip-rule="evenodd" fill="#ffe41b"/><path d="M64.721 131.008c-.24.449-.481.641-.726.577h-.288l-.255 1.442h1.49c.251.032.484-.112.701-.433l.373-.481h2.403l-1.334 5.383c-.117.481-.333.705-.647.673h-3.845l-.229 1.298h4.325c1.11.064 1.729-.353 1.855-1.25l1.85-7.497h-3.652l.554-.961h5.444l.237-1.346H64.41l-.237 1.346h1.201l-.653 1.249zm7.32 6.728c-.045.257-.145.369-.3.336h-1.346l-.237 1.346h2.115c.731.032 1.151-.353 1.261-1.153l1.738-9.852h-1.586l-1.645 9.323zm-1.921-.734h1.442l1.369-8.397h-1.442l-1.369 8.397zm-4.088-.083l-.731-2.931h-1.634l.21 2.355c-.01.417.276.609.859.577l1.296-.001zM64.938 118.376h2.067l-.204 1.153-2.157 3.508c-.136.225-.249.321-.339.288h-.288l-.271 1.538h.865c.346.032.639-.176.879-.625l.71-1.298-.415 2.355c-.051.288-.186.417-.404.384h-1.394l-.221 1.249h2.018c.859.032 1.338-.321 1.437-1.057l.94-5.334h.481l.246-1.394h-.433l.136-.769h2.356l.211-1.346h-2.33l.161-.913h-1.586l-.152.865h-2.066l-.247 1.396zm6.041-.034l-.457 2.438H69.08l-.229 1.298h1.442l-.415 2.355h-1.442l-.237 1.346h1.442l-.229 1.298h1.586l1.924-10.909h-1.586l-.127.879h-1.346l-.229 1.298h1.345zm.547 8.733h1.538l.237-1.346h1.586l.221-1.25h-1.586l.424-2.403h1.586l.221-1.25h-1.586l.466-2.486h1.634l.229-1.298H74.86l.119-.83h-1.538l-1.915 10.863zM81.411 127.7h1.81c1.457 0 2.431.215 2.921.643.49.429.709 1.077.657 1.945-.05.819-.372 1.472-.966 1.96s-1.345.731-2.252.731c-1.95 0-3.064-1.031-3.345-3.095l-4.235.616c.165 1.727.881 3.173 2.147 4.338 1.266 1.166 3.043 1.748 5.33 1.748 2.384 0 4.288-.567 5.713-1.7 1.424-1.133 2.19-2.579 2.297-4.338.149-2.453-1.083-4.035-3.693-4.749 2.307-.802 3.526-2.295 3.659-4.477.101-1.663-.498-2.975-1.796-3.933-1.298-.959-2.941-1.438-4.929-1.438-1.901 0-3.532.506-4.891 1.518s-2.255 2.29-2.686 3.835l4.057.66c.519-1.711 1.579-2.567 3.181-2.567.84 0 1.478.247 1.917.741.438.494.638 1.058.599 1.694-.034.567-.279 1.1-.734 1.599-.455.499-1.276.748-2.463.748h-2.085l-.213 3.521z" fill="#fff"/></g><g><linearGradient id="u" gradientUnits="userSpaceOnUse" x1="125" y1="101.205" x2="125" y2="148.279"><stop offset="0" stop-color="#27c244"/><stop offset="1" stop-color="#46c773"/></linearGradient><path d="M125 101c13.255 0 24 10.745 24 24s-10.745 24-24 24-24-10.745-24-24 10.745-24 24-24z" fill-rule="evenodd" clip-rule="evenodd" fill="url(#u)"/><path d="M141.745 116.261h-12.45l-1.461 11.352 3.732.63c.729-1.036 1.706-1.555 2.932-1.555.878 0 1.598.308 2.159.924.561.616.815 1.354.763 2.215-.05.821-.378 1.535-.984 2.141-.606.606-1.392.909-2.357.909-1.757 0-2.803-.88-3.141-2.64l-4.383.66c.764 3.794 3.25 5.691 7.458 5.691 2.422 0 4.347-.662 5.773-1.987 1.427-1.325 2.203-3.029 2.329-5.111.114-1.877-.416-3.41-1.589-4.598-1.173-1.188-2.652-1.782-4.438-1.782-1.747 0-3.186.572-4.317 1.716l.588-4.459h8.628l.758-4.106z" fill="#fff"/><path d="M138.073 108.05c1.479 0 2.677 1.202 2.677 2.685s-1.199 2.685-2.677 2.685c-1.479 0-2.678-1.202-2.678-2.685s1.199-2.685 2.678-2.685zM128.285 102.935a4.065 4.065 0 1 1 0 8.13 4.065 4.065 0 0 1 0-8.13zM117.97 113.556c-.095.12.219.122-.017.006l-5.415-3.206c-.236-.116-.342-.859-.22-1.087l.222-.413c.122-.228 1.309-.399 1.545-.283l4.125 4.487c.075.038-.118.268-.24.496zM119.356 112.738c-.237.115-.024-.047-.144-.276l-3.838-6.37c-.12-.229.126-.947.364-1.062l.43-.207c.237-.115 1.085.093 1.205.322l2.24 7.243c.12.229-.019.236-.257.35zM117.406 114.699c.017.256-.385.047-.65.066l-9.304-2.176c-.265.019-.56-.632-.576-.887l-.03-.463c-.017-.256.894-.706 1.16-.725l8.98 3.735c.479.078.406.313.42.45zM111.153 123.86c.002.284-.057.001-.334.008l-7.216-.461c-.277.007-.862-.572-.865-.856l-.004-.515c-.002-.284.588-1.007.865-1.014l7.331 2.423c.278-.007.221.131.223.415zM110.635 125.476c.071.15.223-.15-.002.019l-5.047 2.885c-.225.169-.991-.093-1.152-.323l-.292-.415c-.161-.229.24-1.451.464-1.621l5.665-1.019c.072-.053.202.244.364.474zM110.558 127.349c.183.108-.147.394-.257.659l-3.894 6.152c-.11.265-1.366.544-1.549.436l-.332-.195c-.183-.108-.069-1.205.041-1.47l5.486-5.393c.277-.426.405-.242.505-.189z" opacity=".5" fill-rule="evenodd" clip-rule="evenodd" fill="#ffe41b"/><path d="M115.281 131.152c-.24.449-.481.641-.726.577h-.288l-.255 1.442h1.49c.251.032.484-.112.701-.433l.373-.481h2.403l-1.334 5.383c-.117.481-.333.705-.647.673h-3.845l-.229 1.298h4.325c1.11.064 1.729-.353 1.855-1.25l1.85-7.497h-3.652l.554-.961h5.444l.237-1.346h-8.568l-.237 1.346h1.201l-.652 1.249zm7.32 6.729c-.045.257-.145.369-.3.336h-1.346l-.237 1.346h2.115c.731.032 1.151-.353 1.261-1.153l1.738-9.852h-1.586l-1.645 9.323zm-1.985-.776h1.442l1.434-8.355h-1.442l-1.434 8.355zm-4.023-.042l-.731-2.931h-1.634l.21 2.355c-.01.417.276.609.859.577l1.296-.001zM115.498 118.521h2.067l-.204 1.153-2.157 3.508c-.136.225-.249.321-.339.288h-.288l-.271 1.538h.865c.346.032.639-.176.879-.625l.71-1.298-.415 2.355c-.051.288-.186.417-.404.384h-1.394l-.221 1.249h2.018c.859.032 1.338-.321 1.436-1.057l.94-5.334h.481l.246-1.394h-.433l.136-.769h2.356l.211-1.346h-2.33l.161-.913h-1.586l-.152.865h-2.066l-.246 1.396zm6.042-.035l-.457 2.438h-1.442l-.229 1.298h1.442l-.415 2.355h-1.442l-.237 1.346h1.442l-.229 1.298h1.586l1.924-10.909h-1.586l-.127.879h-1.346l-.229 1.298h1.345zm.546 8.733h1.538l.237-1.346h1.586l.221-1.25h-1.586l.424-2.403h1.586l.221-1.25h-1.586l.466-2.486h1.634l.229-1.298h-1.634l.119-.83h-1.538l-1.917 10.863z" fill="#fff"/></g><g><linearGradient id="v" gradientUnits="userSpaceOnUse" x1="75" y1="151.765" x2="75" y2="198.821"><stop offset="0" stop-color="#6871d0"/><stop offset="1" stop-color="#8d96e4"/></linearGradient><path d="M75 151c13.255 0 24 10.745 24 24s-10.745 24-24 24-24-10.745-24-24 10.745-24 24-24z" fill-rule="evenodd" clip-rule="evenodd" fill="url(#v)"/><path d="M77.521 159.546c8.616 1.916 14.017 7.873 12.049 16.258a15.289 15.289 0 0 1-.486 1.644c.368-1.034 1.774-2.051 2.334-3.076.672-1.232 1.022-2.561 1.108-3.947.204-3.268-.75-6.68-2.452-9.486-1.932-3.185-4.878-5.347-8.203-7.065-2.493-1.288-8.066-2.485-8.066-2.485 0 1.904.976 5.873 1.106 7.799.865.052 1.737.164 2.61.358z" opacity=".75" fill="#535dd1"/><path d="M90.452 177.482c-1.916 8.614-7.875 14.015-16.262 12.047a15.374 15.374 0 0 1-1.645-.486c1.034.368 2.051 1.774 3.077 2.333 1.232.672 2.562 1.022 3.948 1.108 3.269.204 6.682-.749 9.487-2.451 3.185-1.932 5.348-4.877 7.067-8.201 1.289-2.492 2.486-8.064 2.486-8.064-1.904 0-5.874.976-7.801 1.106-.05.864-.162 1.736-.357 2.608z" opacity=".75" fill="#535dd1"/><path d="M72.555 190.454c-8.616-1.916-14.017-7.873-12.049-16.258.132-.563.296-1.111.486-1.644-.368 1.034-1.774 2.051-2.334 3.077-.672 1.232-1.022 2.561-1.108 3.947-.204 3.268.75 6.68 2.452 9.486 1.932 3.185 4.878 5.347 8.203 7.065 2.493 1.288 8.066 2.485 8.066 2.485 0-1.904-.976-5.873-1.106-7.799a16.702 16.702 0 0 1-2.61-.359z" opacity=".75" fill="#535dd1"/><path d="M59.551 172.497c1.917-8.526 7.879-13.872 16.27-11.924a15.59 15.59 0 0 1 1.645.481c-1.034-.364-2.052-1.756-3.079-2.31-1.233-.665-2.563-1.011-3.95-1.097-3.271-.201-6.685.742-9.492 2.426-3.187 1.912-5.351 4.828-7.07 8.118-1.289 2.467-2.487 7.982-2.487 7.982 1.905 0 5.877-.966 7.805-1.095.052-.855.164-1.717.358-2.581z" opacity=".75" fill="#535dd1"/><path d="M79.551 176.224H77.58l.475-3.819h1.925l-.429 3.819zm0-9.835v3.35c0 .181.093.271.278.271h2.099v-2.582h1.983v2.582h4.221v1.695h-4.221v4.48h-2.006v-3.396c.015-.723-.325-1.085-1.021-1.085h-1.681c-1.013-.007-1.519-.49-1.519-1.446v-4.13c.015-.859.495-1.326 1.438-1.401h8.454v.599c0 .708-.414 1.062-1.241 1.062h-6.784zm7.12 5.96c.51 0 .812.207.905.621l.603 3.288h-1.995l-.812-3.909h1.299z" fill="#fff"/><path d="M76.915 163.728l1.338.118c.14.012.206.176.117.284-.583.703-1.716 2.532-1.929 2.981-2.108 4.446-3.008 7.045-4.289 11.626-.53 1.896-.895 3.834-1.236 5.773-.313 1.777-1.16 2.864-1.716 2.876-2.772.056-4.396-.056-7.168 0 4.489-8.608 5.409-13.591 9.983-19.56l-5.99.675c-2.535 1.327-.467 4.04-5.639 3.411l2.345-6.406c.293.032 1.308.004 2.648.233.237.04.041.454.268.324 3.523-2.025 8.1-2.174 10.561-2.075.185.006.477-.071.707-.26z" fill-rule="evenodd" clip-rule="evenodd" fill="#fff"/><g fill="#fff"><path d="M78.56 187.516H76.7v-3.713c.021-.657-.304-1.007-.827-1.009h-1.606v-1.543l2.314-.006.047-.454h1.785l.087.451h2.377v1.552H78.56v4.722zM74.39 176.069h6.49l.012.715c-.023.552-.381.859-1.073.859h-5.55v-1.574h.121z"/><path d="M76.38 183.366l-.506 4.15h-1.577l.57-4.15zM79.185 178.194H80.7l-.273 1.748a.765.765 0 0 1-.755.645l-.954-.007.467-2.386zM79.647 183.364a.79.79 0 0 1 .799.593l.42 3.559H79.29l-.454-4.15.811-.002zM85.333 183.796c-.7 2.289-2.337 3.528-4.197 3.72v-1.839c1.145-.256 2.023-.879 2.358-1.881h1.839zM85.308 176.069c-.677 2.145-2.312 3.39-4.172 3.678v-1.839c1.002-.088 1.883-.783 2.358-1.839h1.814zM85.309 179.932c-.677 2.289-2.313 3.463-4.173 3.695v-1.839c1.002-.104 1.984-.855 2.412-1.856h1.761zM75.486 180.589c-.513 0-.809-.359-.886-.943l-.303-1.458 1.447-.012.599 2.389-.857.024zM77.531 180.589c-.513 0-.809-.359-.886-.943l-.303-1.458 1.447-.012.599 2.389-.857.024z"/></g></g><g><linearGradient id="w" gradientUnits="userSpaceOnUse" x1="125" y1="151" x2="125" y2="198.79"><stop offset="0" stop-color="#ffae01"/><stop offset="1" stop-color="#f8c823"/></linearGradient><path d="M125 151c13.255 0 24 10.745 24 24s-10.745 24-24 24-24-10.745-24-24 10.745-24 24-24z" fill-rule="evenodd" clip-rule="evenodd" fill="url(#w)"/><path d="M112.201 190.538l3.799-.699.665-3.813 1.878 3.413 3.832-.503-2.638 2.808 1.703 3.502-3.509-1.677-2.779 2.668.47-3.845-3.421-1.854zM123.501 195.453l2.515-2.932-1.879-3.384 3.606 1.474 2.664-2.8-.287 3.842 3.525 1.654-3.783.901-.485 3.822-2.051-3.285-3.825.708zM135.285 193.246l.445-3.838-3.451-1.753 3.813-.796.641-3.812 1.912 3.345 3.847-.602-2.631 2.864 1.736 3.439-3.538-1.575-2.774 2.728zM144.076 166.467l-3.768-.852-2.112 3.244-.384-3.876-3.721-1.045 3.53-1.544-.188-3.89 2.566 2.922 3.605-1.359-1.944 3.35 2.416 3.05zM115.787 164.76l-3.767.854-.509 3.837-2.016-3.333-3.808.659 2.521-2.914-1.845-3.43 3.574 1.532 2.668-2.779-.312 3.861 3.494 1.713zM123.721 161.033l-3.694-1.13-2.347 3.078-.095-3.894-3.633-1.319 3.635-1.277.102-3.893 2.341 3.105 3.696-1.087-2.188 3.196 2.183 3.221zM132.211 162.854l-2.383-3.041-3.686 1.181 2.15-3.248-2.225-3.161 3.712 1.033 2.311-3.135.144 3.887 3.653 1.224-3.623 1.369-.053 3.891z" opacity=".4" fill="#ffea94"/><path d="M106.578 187.451c1.926-6.552 5.357-12.127 6.639-14-4.643-.559-9 1-9 1l1.889-5h12.75s-3.527 4.661-8.028 18h-4.25zm11.139-13.5l1.855-4.326h12.68l-1.666 3.672-2.369.654h-3l-.815 1.197h5.412l-.707 1.085h-5.23l-.308.638h5.538l-.707 1.085h-5.356l-.247.511h5.795l-.772 1.404c-6.493-.511-11.326 1.468-16.008 6.382l3.922-7.786h5.038l.247-.511h-4.899l.45-1.085h4.973l.308-.638h-5.025l.45-1.085h5.099l.84-1.197h-5.498zm18.595 1.324l-1.798 4.463h-2.25l1.798-4.463h-2.946l.45-1.085h2.971l.179-.415h2.154l-.152.415h3.142l-.707 1.085h-2.841zm5.624.945h2.377l-4.368 3.345h-2.377l4.802-3.345h-.434zm-8.988-5.285l.422-1.311h8.205l-.591 1.311h-8.036zm-.82 1.053h2.153l.17 1.532h-2.154l-.169-1.532zm2.535 0h2.154l.17 1.532h-2.154l-.17-1.532zm3.469-.212h2.427l-.782 1.726h-2.427l.782-1.726zm-6.774 4.055h2.25l-2.075 3.529h-2.25l2.943-3.529h-.868zm5.011 0h2.25l-1.042 3.721h-2.25l1.042-3.721zm7.97-6.376h2.377l-3.856 3.14h-2.377l4.291-3.14h-.435zm-1.09 3.459h2.377l-4.208 3.077h-1.943l4.208-3.077h-.434z" fill="#fff"/><path d="M127.669 176.043l-3.18-2.441-4.949 2.394 2.899-4.08-2.968-2.616 4.972-.081 3.115-4.011.174 4.03 4.893.137-4.865 2.572-.091 4.096z" fill="#fe8e3d"/></g><g><linearGradient id="x" gradientUnits="userSpaceOnUse" x1="25" y1="151" x2="25" y2="199.357"><stop offset="0" stop-color="#0091f6"/><stop offset="1" stop-color="#2faefd"/></linearGradient><path d="M49 175c0 13.255-10.745 24-24 24S1 188.255 1 175s10.745-24 24-24 24 10.745 24 24z" fill="url(#x)"/><linearGradient id="y" gradientUnits="userSpaceOnUse" x1="22.681" y1="151" x2="22.681" y2="199.357"><stop offset="0" stop-color="#0091f6"/><stop offset="1" stop-color="#2faefd"/></linearGradient><path fill="url(#y)" d="M22.665 174.555l.031.012z"/><path opacity=".66" fill="#5b4588" d="M22.665 174.555l.031.012z"/><path d="M24.295 175.849l-1.258.198-.002.002c-6.382 4.732-9.388 12.664-7.96 19.671.096.47.098.838.306 1.276C18.153 198.184 21.374 199 25 199c-1.129-.954-7.905-7.286-.705-23.151z" opacity=".5" fill="#0372f8"/><linearGradient id="z" gradientUnits="userSpaceOnUse" x1="23.619" y1="151" x2="23.619" y2="199.357"><stop offset="0" stop-color="#0091f6"/><stop offset="1" stop-color="#2faefd"/></linearGradient><path fill="url(#z)" d="M23.611 173.026l.016.029z"/><path opacity=".66" fill="#5b4588" d="M23.611 173.026l.016.029z"/><path d="M24.149 174.906l-1.103-.635-.003.001c-8.002-.337-15.304 2.976-18.709 9.302-.237.441-.525.888-.637 1.378-.074.322-.051.616.025.904.311.627.646 1.248 1.017 1.857a23.969 23.969 0 0 0 4.85 5.71c-.255-1.372-1.333-10.697 14.56-18.517z" opacity=".6" fill="#0372f8"/><path d="M24.703 173.882l-.459-1.216.012.031-.002-.001c-5.994-5.28-13.795-7.294-20.512-4.528-.468.193-.979.359-1.382.668a1.797 1.797 0 0 0-.36.377 24.03 24.03 0 0 0-.47 9.791c.879-1.491 6.211-8.94 23.173-5.122z" opacity=".7" fill="#0372f8"/><path d="M25.694 173.602l.427-1.23-.011.032-.001-.002c-1.25-7.852-6.007-14.306-13.002-16.377-.487-.144-.991-.336-1.503-.349a1.907 1.907 0 0 0-.334.027 23.848 23.848 0 0 0-6.682 7.269c2.035-.68 10.742-2.536 21.106 10.63z" opacity=".8" fill="#0372f8"/><path d="M26.625 174.44l1.11-.677.001-.002c4.153-6.949 4.64-15.021.505-21.069-.288-.421-.558-.89-.951-1.224a1.881 1.881 0 0 0-.263-.179 23.865 23.865 0 0 0-10.132 1.422c1.809.628 10.217 4.478 9.73 21.729z" opacity=".82" fill="#0372f8"/><path d="M25.195 168.415a6.78 6.78 0 1 1 0 13.56 6.78 6.78 0 0 1 0-13.56z" fill-rule="evenodd" clip-rule="evenodd" fill="#19a1fa"/><path d="M43.689 166.796H30.721l-3.05 11.825 3.811.657c.898-1.079 1.985-1.619 3.262-1.619.915 0 1.623.321 2.125.963.502.642.668 1.411.499 2.307-.162.856-.599 1.599-1.311 2.23-.713.632-1.572.947-2.577.947-1.83 0-2.802-.917-2.918-2.75l-4.654.688c.288 3.952 2.624 5.928 7.007 5.928 2.523 0 4.616-.69 6.28-2.07 1.663-1.38 2.7-3.155 3.11-5.324.37-1.955.023-3.552-1.04-4.79-1.063-1.237-2.524-1.856-4.384-1.856-1.82 0-3.395.596-4.726 1.787l1.21-4.644h8.987l1.337-4.279z" fill="#fff"/><path d="M19.49 169.445h-3.184l-.275 1.552h.894l-1.461 7.821 3.213.02h12.43l-1.117-1.701-11.917-.007.214-.904 1.203-6.781zm-1.553-3.144a1.67 1.67 0 0 0-.61.513c-.166.223-.27.456-.313.697-.049.251-.03.483.059.697.088.214.229.384.422.509.193.125.416.186.669.181.248 0 .489-.062.724-.185s.436-.292.602-.506c.162-.214.263-.444.305-.69a1.31 1.31 0 0 0-.068-.704.98.98 0 0 0-.429-.509 1.3 1.3 0 0 0-.642-.181c-.238 0-.478.059-.719.178zm1.856 4.423l-.264 1.49h4.566l-.709 4.074 3.781.007.964-1.518-2.298.007.456-2.57h1.458l.938-1.49h-3.384l.36-2.03h2.6l.983-1.511H25.93l.19-1.073h-2.18l-.19 1.073h-.77l.4-.937h-2.208l-1.583 3.692h2.208l.537-1.244h1.148l-.36 2.03h-3.329zm1.318 2.03l-1.958 3.555h2.18l1.958-3.555h-2.18zM11.911 171.014l-.954 7.774 3.361.003 1.499-12.216-2.243-.004c.011-.029-.08.118-2.371 1.111l-.409 3.332c.213-.03.882.052 1.117 0zM6.708 171.014l-.954 7.774 3.361.003 1.499-12.216-2.243-.004c.011-.029-.08.118-2.371 1.111l-.409 3.332c.213-.03.882.052 1.117 0z" fill="#fff"/></g><g><linearGradient id="A" gradientUnits="userSpaceOnUse" x1="75" y1="201" x2="75" y2="249.357"><stop offset="0" stop-color="#6871d0"/><stop offset="1" stop-color="#8d96e4"/></linearGradient><path d="M99 225c0 13.255-10.745 24-24 24s-24-10.745-24-24 10.745-24 24-24 24 10.745 24 24z" fill="url(#A)"/><linearGradient id="B" gradientUnits="userSpaceOnUse" x1="72.681" y1="201" x2="72.681" y2="249.357"><stop offset="0" stop-color="#0091f6"/><stop offset="1" stop-color="#2faefd"/></linearGradient><path fill="url(#B)" d="M72.665 224.555l.031.012z"/><path opacity=".66" fill="#5b4588" d="M72.665 224.555l.031.012z"/><path d="M74.295 225.849l-1.258.198-.002.002c-6.382 4.732-9.388 12.664-7.96 19.671.096.47.098.838.306 1.276C68.153 248.184 71.374 249 75 249c-1.129-.954-7.905-7.286-.705-23.151z" fill="#6c79e1"/><linearGradient id="C" gradientUnits="userSpaceOnUse" x1="73.619" y1="201" x2="73.619" y2="249.357"><stop offset="0" stop-color="#0091f6"/><stop offset="1" stop-color="#2faefd"/></linearGradient><path fill="url(#C)" d="M73.611 223.026l.016.029z"/><path opacity=".66" fill="#5b4588" d="M73.611 223.026l.016.029z"/><path d="M74.149 224.906l-1.103-.635-.003.001c-8.002-.337-15.304 2.976-18.709 9.302-.237.441-.525.888-.637 1.378-.074.322-.051.616.025.904.311.627.646 1.248 1.017 1.857a23.969 23.969 0 0 0 4.85 5.71c-.255-1.372-1.333-10.697 14.56-18.517z" fill="#6774de"/><path d="M74.703 223.882l-.459-1.216.012.031-.002-.001c-5.993-5.28-13.795-7.294-20.512-4.528-.468.193-.979.359-1.382.668a1.797 1.797 0 0 0-.36.377 24.03 24.03 0 0 0-.47 9.791c.879-1.491 6.211-8.94 23.173-5.122z" fill="#5e68d9"/><path d="M75.694 223.602l.427-1.23-.011.032-.001-.002c-1.25-7.852-6.007-14.306-13.002-16.377-.487-.144-.991-.336-1.503-.349a1.907 1.907 0 0 0-.334.027 23.848 23.848 0 0 0-6.682 7.269c2.035-.68 10.742-2.536 21.106 10.63z" fill="#5665d1"/><path d="M76.625 224.44l1.11-.677.001-.002c4.153-6.949 4.64-15.021.505-21.069-.288-.421-.558-.89-.951-1.224a1.881 1.881 0 0 0-.263-.179 23.865 23.865 0 0 0-10.132 1.422c1.809.628 10.217 4.478 9.73 21.729z" fill="#535dd1"/><path d="M75.195 218.415a6.78 6.78 0 1 1 0 13.56 6.78 6.78 0 0 1 0-13.56z" fill-rule="evenodd" clip-rule="evenodd" fill="#7b84da"/><path d="M93.689 216.796H80.721l-3.05 11.825 3.811.657c.898-1.079 1.985-1.619 3.262-1.619.915 0 1.623.321 2.125.963.502.642.668 1.411.499 2.307-.162.856-.599 1.599-1.311 2.23-.713.632-1.572.947-2.577.947-1.83 0-2.803-.917-2.918-2.75l-4.654.688c.288 3.952 2.624 5.928 7.007 5.928 2.523 0 4.616-.69 6.28-2.07 1.663-1.38 2.7-3.155 3.11-5.324.37-1.955.023-3.552-1.04-4.79-1.063-1.237-2.524-1.856-4.384-1.856-1.82 0-3.395.596-4.726 1.787l1.21-4.644h8.987l1.337-4.279z" fill="#fff"/><path d="M69.49 219.445h-3.184l-.275 1.552h.894l-1.461 7.821 3.213.02h12.43l-1.117-1.701-11.917-.007.214-.904 1.203-6.781zm-1.553-3.144a1.67 1.67 0 0 0-.61.513c-.166.223-.27.456-.313.697-.049.251-.03.483.059.697.088.214.229.384.422.509.193.125.416.186.669.181.248 0 .489-.062.724-.185s.436-.292.602-.506c.162-.214.263-.444.305-.69a1.31 1.31 0 0 0-.068-.704.98.98 0 0 0-.429-.509 1.3 1.3 0 0 0-.642-.181c-.238 0-.478.059-.719.178zm1.856 4.423l-.264 1.49h4.566l-.709 4.074 3.781.007.964-1.518-2.298.007.456-2.57h1.458l.938-1.49h-3.384l.36-2.03h2.6l.983-1.511H75.93l.19-1.073h-2.18l-.19 1.073h-.77l.4-.937h-2.208l-1.583 3.692h2.208l.537-1.244h1.148l-.36 2.03h-3.329zm1.318 2.03l-1.958 3.555h2.18l1.958-3.555h-2.18zM61.911 221.014l-.954 7.774 3.361.003 1.499-12.216-2.243-.004c.011-.029-.081.118-2.371 1.111l-.409 3.332c.213-.03.882.052 1.117 0zM56.708 221.014l-.954 7.774 3.361.003 1.499-12.216-2.243-.004c.011-.029-.08.118-2.371 1.111l-.409 3.332c.213-.03.882.052 1.117 0z" fill="#fff"/></g><g><linearGradient id="D" gradientUnits="userSpaceOnUse" x1="25" y1="200.437" x2="25" y2="248.018"><stop offset="0" stop-color="#fe4233"/><stop offset="1" stop-color="#fc695a"/></linearGradient><path d="M25 201c13.255 0 24 10.745 24 24s-10.745 24-24 24-24-10.745-24-24 10.745-24 24-24z" fill-rule="evenodd" clip-rule="evenodd" fill="url(#D)"/><path d="M28.264 223.378l6.281-6.341a3.92 3.92 0 0 1 5.583 0l6.281 6.341a4.013 4.013 0 0 1 0 5.637l-6.281 6.342a3.92 3.92 0 0 1-5.583 0l-6.281-6.342a4.015 4.015 0 0 1 0-5.637zM3.592 223.378l6.281-6.341a3.92 3.92 0 0 1 5.583 0l6.281 6.341a4.013 4.013 0 0 1 0 5.637l-6.281 6.342a3.92 3.92 0 0 1-5.583 0l-6.281-6.342a4.013 4.013 0 0 1 0-5.637zM15.928 209.944l6.281-6.342a3.92 3.92 0 0 1 5.583 0l6.281 6.342a4.013 4.013 0 0 1 0 5.637l-6.281 6.342a3.92 3.92 0 0 1-5.583 0l-6.281-6.342a4.013 4.013 0 0 1 0-5.637z" opacity=".6" fill-rule="evenodd" clip-rule="evenodd" fill="#ff9183"/><path d="M13.48 219.72h-2.4v12h2.4v-9.6h.96v12.48h2.4v-12.48h1.44v-2.4h-1.44v-2.4h-2.4v2.4h-.96zm4.32 2.4h2.88v3.84h-3.36v2.4h2.88l-1.53 3.279c-.251.401-.575.575-.975.525l-.375.036v2.4h1.44c.799.049 1.559-.636 2.009-1.386l1.35-2.454 1.8 2.454c.4.75.91 1.436 1.56 1.386h2.4v-2.4l-1.186-.036c-.45.05-.8-.199-1.05-.75l-2.085-3.054h4.32v-2.4H27.4v-6.24h-4.32v-2.4h-2.4v2.4l-3.061-.006.181 2.406zm5.28 0H25v3.84h-1.92v-3.84zM33.561 234.871c3.563-.249 5.531-1.688 5.906-4.313-.063-2.312-1.157-3.812-3.281-4.5 1.999-.5 3.062-1.875 3.187-4.125-.25-2.437-2.125-3.844-5.625-4.219-3.625.126-5.501 1.687-5.625 4.687h3.656c.125-1.313.781-2.063 1.969-2.25 1.312.063 1.999.813 2.062 2.25 0 1.75-1.345 2.625-4.031 2.625v2.344c2.625-.062 3.968.844 4.031 2.719-.126 1.626-.844 2.47-2.156 2.531-1.312-.125-2.001-.968-2.062-2.531h-3.656c-.063 3.188 1.812 4.782 5.625 4.782z" fill="#fff"/></g><g><linearGradient id="E" gradientUnits="userSpaceOnUse" x1="125" y1="201" x2="125" y2="249.357"><stop offset="0" stop-color="#fc7c36"/><stop offset="1" stop-color="#ff9f43"/></linearGradient><path d="M149 225c0 13.255-10.745 24-24 24s-24-10.745-24-24 10.745-24 24-24 24 10.745 24 24z" fill="url(#E)"/><linearGradient id="F" gradientUnits="userSpaceOnUse" x1="122.681" y1="201" x2="122.681" y2="249.357"><stop offset="0" stop-color="#0091f6"/><stop offset="1" stop-color="#2faefd"/></linearGradient><path fill="url(#F)" d="M122.665 224.555l.031.012z"/><path opacity=".66" fill="#5b4588" d="M122.665 224.555l.031.012z"/><path d="M124.295 225.849l-1.258.198-.002.002c-6.382 4.732-9.388 12.664-7.96 19.671.096.47.098.838.306 1.276 2.77 1.189 5.992 2.005 9.617 2.005-1.127-.955-7.903-7.287-.703-23.152z" fill="#fe832b"/><linearGradient id="G" gradientUnits="userSpaceOnUse" x1="123.619" y1="201" x2="123.619" y2="249.357"><stop offset="0" stop-color="#0091f6"/><stop offset="1" stop-color="#2faefd"/></linearGradient><path fill="url(#G)" d="M123.611 223.026l.016.029z"/><path opacity=".66" fill="#5b4588" d="M123.611 223.026l.016.029z"/><path d="M124.149 224.906l-1.103-.635-.003.001c-8.002-.337-15.304 2.976-18.709 9.302-.237.441-.525.888-.637 1.378-.074.322-.051.616.025.904.311.627.646 1.248 1.017 1.857a23.969 23.969 0 0 0 4.85 5.71c-.255-1.372-1.333-10.697 14.56-18.517z" fill="#fe7e2a"/><path d="M124.703 223.882l-.459-1.216.012.031-.002-.001c-5.993-5.28-13.795-7.294-20.512-4.528-.468.193-.979.359-1.382.668a1.797 1.797 0 0 0-.36.377 24.03 24.03 0 0 0-.47 9.791c.879-1.491 6.211-8.94 23.173-5.122z" fill="#fd7528"/><path d="M125.694 223.602l.427-1.23-.011.032-.001-.002c-1.25-7.852-6.007-14.306-13.002-16.377-.487-.144-.991-.336-1.503-.349a1.907 1.907 0 0 0-.334.027 23.848 23.848 0 0 0-6.682 7.269c2.035-.68 10.742-2.536 21.106 10.63z" fill="#fd6926"/><path d="M126.625 224.44l1.11-.677.001-.002c4.153-6.949 4.64-15.021.505-21.069-.288-.421-.558-.89-.951-1.224a1.881 1.881 0 0 0-.263-.179 23.865 23.865 0 0 0-10.132 1.422c1.809.628 10.217 4.478 9.73 21.729z" fill="#fc6324"/><path d="M125.195 218.415a6.78 6.78 0 1 1 0 13.56 6.78 6.78 0 0 1 0-13.56z" fill-rule="evenodd" clip-rule="evenodd" fill="#fe8e3d"/><path d="M143.689 216.796h-12.968l-3.05 11.825 3.811.657c.898-1.079 1.985-1.619 3.262-1.619.915 0 1.623.321 2.125.963.502.642.668 1.411.499 2.307-.162.856-.599 1.599-1.311 2.23-.713.632-1.572.947-2.577.947-1.83 0-2.803-.917-2.918-2.75l-4.654.688c.288 3.952 2.624 5.928 7.007 5.928 2.523 0 4.616-.69 6.28-2.07 1.663-1.38 2.7-3.155 3.11-5.324.37-1.955.023-3.552-1.04-4.79-1.063-1.237-2.524-1.856-4.384-1.856-1.82 0-3.395.596-4.726 1.787l1.21-4.644h8.987l1.337-4.279z" fill="#fff"/><path d="M119.49 219.445h-3.184l-.275 1.552h.894l-1.461 7.821 3.213.02h12.43l-1.117-1.701-11.917-.007.214-.904 1.203-6.781zm-1.553-3.144a1.67 1.67 0 0 0-.61.513c-.166.223-.27.456-.313.697-.049.251-.03.483.059.697.088.214.229.384.422.509.193.125.416.186.669.181.248 0 .489-.062.724-.185s.436-.292.602-.506c.162-.214.263-.444.305-.69a1.31 1.31 0 0 0-.068-.704.98.98 0 0 0-.429-.509 1.3 1.3 0 0 0-.642-.181c-.238 0-.478.059-.719.178zm1.856 4.423l-.264 1.49h4.566l-.709 4.074 3.781.007.964-1.518-2.298.007.456-2.57h1.458l.938-1.49h-3.384l.36-2.03h2.6l.983-1.511h-3.315l.19-1.073h-2.18l-.19 1.073h-.77l.4-.937h-2.208l-1.583 3.692h2.208l.537-1.244h1.148l-.36 2.03h-3.328zm1.318 2.03l-1.958 3.555h2.18l1.958-3.555h-2.18zM111.911 221.014l-.954 7.774 3.361.003 1.499-12.216-2.243-.004c.011-.029-.08.118-2.371 1.111l-.409 3.332c.213-.03.882.052 1.117 0zM106.708 221.014l-.954 7.774 3.361.003 1.499-12.216-2.243-.004c.011-.029-.08.118-2.371 1.111l-.409 3.332c.213-.03.882.052 1.117 0z" fill="#fff"/></g><g><linearGradient id="H" gradientUnits="userSpaceOnUse" x1="25.195" y1="251.103" x2="25.195" y2="299.459"><stop offset="0" stop-color="#6871d0"/><stop offset="1" stop-color="#8d96e4"/></linearGradient><path d="M49.195 275.103c0 13.255-10.745 24-24 24s-24-10.745-24-24 10.745-24 24-24 24 10.745 24 24z" fill="url(#H)"/><path d="M25.181 260.732s-13.94 11.43-13.905 16.587c.056 8.127 7.439 9.13 12.4 4.345-.5 3.177-1.342 6.704-2.724 8.345h8.492s-1.8-2.497-2.792-8.375c4.893 4.858 12.405 3.763 12.461-4.368.036-5.193-13.932-16.534-13.932-16.534z" opacity=".95" fill-rule="evenodd" clip-rule="evenodd" fill="#fff"/><path d="M22.799 251.61h4.8a1.92 1.92 0 0 1 0 3.84h-4.8a1.92 1.92 0 0 1 0-3.84zm17.334 5.191l3.394 3.394a1.92 1.92 0 1 1-2.715 2.715l-3.394-3.394a1.92 1.92 0 1 1 2.715-2.715zm8.586 15.929v4.8a1.92 1.92 0 0 1-3.84 0v-4.8a1.92 1.92 0 0 1 3.84 0zm-5.192 17.334l-3.394 3.394a1.92 1.92 0 1 1-2.715-2.715l3.394-3.394a1.92 1.92 0 1 1 2.715 2.715zm-15.928 8.586h-4.8a1.92 1.92 0 0 1 0-3.84h4.8a1.92 1.92 0 0 1 0 3.84zm-17.334-5.192l-3.394-3.394a1.92 1.92 0 1 1 2.715-2.715l3.394 3.394a1.92 1.92 0 1 1-2.715 2.715zM1.679 277.53v-4.8a1.92 1.92 0 0 1 3.84 0v4.8a1.92 1.92 0 0 1-3.84 0zm5.192-17.335l3.394-3.394a1.92 1.92 0 1 1 2.715 2.715l-3.394 3.394a1.92 1.92 0 1 1-2.715-2.715z" fill-rule="evenodd" clip-rule="evenodd" fill="#949ce4"/></g></svg>