<svg xmlns="http://www.w3.org/2000/svg" xmlns:xlink="http://www.w3.org/1999/xlink" width="320" height="320" viewBox="0 0 320 320"><path d="M40 2c20.987 0 38 17.013 38 38S60.987 78 40 78 2 60.987 2 40 19.013 2 40 2z" fill="#fc4545"/><path d="M23.144 50.831c.111 1.837-.63 2.71-2.221 2.621-1.666.089-2.425-.784-2.277-2.621v-4.487h-2.221v5.153c.074 2.043 1.573 3.094 4.498 3.154 2.85-.06 4.331-1.111 4.442-3.154v-5.153h-2.221v4.487zM36.637 46.344h-2.054v6.441l-.055.044-3.887-6.485h-3.276v8.218h2.054v-6.796l.055-.044 3.998 6.841h3.165v-8.219zM38.358 46.344v8.218h2.221v-8.218h-2.221zM63.456 46.344h-2.054v6.441l-.056.044-3.887-6.485h-3.276v8.218h2.054v-6.796l.056-.044 3.998 6.841h3.165v-8.219zM22.977 63.928h-4.442v-6.841H16.37v8.218h6.608v-1.377zM38.303 58.464v6.841h2.221v-6.841h3.054v-1.377h-8.329v1.377h3.054zM46.965 58.464v6.841h2.221v-6.841h3.054v-1.377h-8.329v1.377h3.054z" fill="#5f5f5f"/><path d="M58.648 56.185a5.278 5.278 0 1 1 0 10.556 5.278 5.278 0 0 1 0-10.556z" fill="#4c72ff" stroke="#fff" stroke-width=".313" stroke-miterlimit="10"/><path d="M29.093 56.185a5.278 5.278 0 1 1 0 10.556 5.278 5.278 0 0 1 0-10.556zM47.389 44.926a5.278 5.278 0 1 1 0 10.556 5.278 5.278 0 0 1 0-10.556z" fill="#f01829" stroke="#fff" stroke-width=".313" stroke-miterlimit="10"/><path d="M46.173 66.096v-6.841h-4.858v6.841h-3.804v-6.841h-3.054v-2.96h18.574v2.96h-3.054v6.841h-3.804zm-30.595 0v-9.801h3.749v6.841h4.442v2.96h-8.191zm5.329-10.654c-4.244-.087-5.21-2.178-5.272-3.917l-.001-5.973h3.804v5.278c-.059.762.038 1.269.278 1.529.187.203.518.306.981.306.06 0 .226-.007.226-.007s.158.007.214.007c.635 0 .837-.215.904-.286.247-.263.355-.782.311-1.501l-.001-5.326h3.804v5.944c-.095 1.775-1.077 3.859-5.217 3.945h-.016l-.015.001zm38.93-.088l-2.808-4.804v4.804h-3.638v-9.801h4.517l2.702 4.509v-4.509h3.638v9.801h-4.411zm-22.271 0v-9.801h3.804v9.801h-3.804zm-4.548 0L30.21 50.55v4.804h-3.638v-9.801h4.516l2.702 4.509v-4.509h3.638v9.801h-4.41z" fill="#c41919"/><path d="M23.144 50.831c.111 1.837-.63 2.71-2.221 2.621-1.666.089-2.425-.784-2.277-2.621v-4.487h-2.221v5.153c.074 2.043 1.573 3.094 4.498 3.154 2.85-.06 4.331-1.111 4.442-3.154v-5.153h-2.221v4.487zm13.493 3.731h-3.165l-3.998-6.841-.055.044v6.796h-2.054v-8.218h3.276l3.887 6.485.055-.044v-6.441h2.054v8.219zm3.942-8.218v8.218h-2.221v-8.218h2.221zm22.877 8.218h-3.165l-3.998-6.841-.056.044v6.796h-2.054v-8.218h3.276l3.887 6.485.056-.044v-6.441h2.054v8.219zM22.977 65.305H16.37v-8.218h2.166v6.841h4.442v1.377zm12.272-6.841v-1.377h8.329v1.377h-3.054v6.841h-2.221v-6.841h-3.054zm8.662 0v-1.377h8.329v1.377h-3.054v6.841h-2.221v-6.841h-3.054z" fill="#fff68d"/><path d="M17.696 43.426l-2.244.003v-3.365h1.021l1.171-3.355-2.542-6.804h.283v-2.969h7.587v-.066h9.038v2.773l-2.654 7.638 1.066 2.784h1.522v3.299h-2.771c-.741 0-1.33-.337-1.675-.941-.341.633-.987 1.007-1.822 1.007h-4.222c-.917 0-1.573-.485-1.809-1.334l-.007-.017-.014.04c-.442 1.146-1.29 1.315-1.756 1.315a3.515 3.515 0 0 1-.172-.008zm6.62-3.362l1.045-3.018-2.071-5.286-1.785 5.125 1.214 3.179H24.316zm2.877-8.201l.435-1.365h-.956l.521 1.365zm-7.747-.392l.278-.907h-.637l.359.907z" fill="#c41919"/><path d="M28.712 29.706l-1.451 4.552-1.385-3.629h-2.177l2.507 6.399-1.188 3.431c-.044.308-.242.44-.594.396h-.528v1.781h1.781c.66 0 1.077-.308 1.253-.924l.528-1.385.594 1.385c.175.571.549.858 1.121.858h1.979v-1.715h-.858c-.353.044-.55-.109-.594-.462l-1.188-3.101 2.705-7.785V27.66h-7.455v2.045h4.95zm-10.424.99h-2.045l2.243 6.003-1.386 3.959c-.044.176-.132.242-.264.198h-.594v1.781h1.517c.528.043.901-.221 1.121-.792l.726-1.979.792 1.979c.132.528.483.792 1.056.792h1.847v-1.781h-.791c-.221.044-.374-.066-.462-.33l-1.385-3.628 2.573-7.389v-1.781h-7.059v2.045h4.618l-1.253 4.09-1.254-3.167z" fill="#fff"/><path d="M34.446 43.523c-.923 0-1.602-.263-2.019-.781-.394-.49-.512-1.152-.35-1.968V28.255h1.397l1.415-1.583h4.772l-.528.66h9.436v2.935l-.834.957h.9v5.08c.08.869-.112 1.599-.572 2.101-.424.463-1.036.698-1.82.698-.154 0-.318-.009-.49-.028H36.1v.99h12.601v3.43H35.018a6.154 6.154 0 0 1-.572.028zm10.165-7.878v-1.057h-2.309v1.056l2.309.001zm-6.267-.001v-1.056H36.1v1.056h2.244zm4.248-4.421l.387-.462h-6.551l-.384.384a.96.96 0 0 1-.065.078h6.613z" fill="#c41919"/><path d="M34.253 30.96c.615.044 1.011-.066 1.188-.33l.66-.66h8.576l-1.715 2.045H32.868v8.84c-.308 1.407.396 2.022 2.111 1.847H47.91v-1.847H35.837c-.44.089-.616-.088-.528-.528v-2.045h10.49c1.495.176 2.177-.483 2.045-1.979v-4.288h-1.847l1.781-2.045v-1.847H37.486l.528-.66h-2.771l-1.122 1.254c-.221.264-.418.374-.594.33h-.66v1.913h1.386zm1.056 2.836h3.826v2.639h-3.826v-2.639zm9.236 2.639H41.51v-2.639h3.892v1.979c.088.528-.197.749-.857.66z" fill="#fff"/><path d="M59.853 43.644c-.099 0-.203-.006-.312-.017H57.41v-.252a2.247 2.247 0 0 1-.923.186H48.57v-3.233h1.913V37.03h-1.847v-3.431h1.847V30.63h-1.847V27.2h7.191v.99h2.309v-1.253h3.76v.264h3.299v2.045c0 .762-.231 1.365-.663 1.781h.938l-.549 3.297c-.116.694-.439 1.201-.926 1.481l.452 4.525h.814v3.299h-2.045a2.055 2.055 0 0 1-.133.003c-.743 0-1.322-.254-1.685-.712-.042.056-.086.11-.134.161-.243.255-.684.563-1.411.563zm-4.713-3.382l.558-3.233h-1.521v3.233h.963zm.62-3.593l.142-.822a2.045 2.045 0 0 1-.142-.065v.887zm-1.058-3.004l-.39-2.573h.327v-.528h-.462v3.101h.525z" fill="#c41919"/><path d="M55.43 30.96h3.431v5.014h-2.177l-.792 4.618c-.089.353-.264.506-.528.462h-.132v1.715h1.254c.747 0 1.209-.419 1.385-1.254l.792-4.354h.198v3.563c0 .264-.11.396-.33.396h-.33v1.715h1.385c1.056.132 1.539-.484 1.451-1.847v-3.826h.264l.462 4.486c.043.835.528 1.231 1.451 1.188h1.253v-1.715h-.396c-.264.044-.396-.132-.396-.528l-.462-4.618h-2.177v-5.08h1.385c1.319.044 1.979-.505 1.979-1.649v-1.253h-1.913v.594c-.044.264-.198.396-.462.396h-.924V27.73h-2.177v1.253H55.43v1.977zm-4.156 3.43h-1.847v1.847h1.847v4.882h-1.913v1.649h5.608v-1.715h-1.583v-4.816h1.583v-1.781h-1.583v-4.684h1.649v-1.781h-5.608v1.847h1.847v4.552zm11.479.858c.792.089 1.253-.264 1.385-1.056l.396-2.375h-2.045l-.264 1.385c-.089.353-.221.506-.396.462h-.396v1.583h1.32zm-4.42-1.649h-.33c-.308.044-.462-.088-.462-.396l-.264-1.319h-2.045l.33 2.177c.088.836.528 1.21 1.319 1.121h1.451v-1.583z" fill="#fff"/><path d="M40 18.458c-12.608 0-23.616 3.285-29.556 8.172C13.618 19.367 25.642 13.963 40 13.963s26.382 5.404 29.556 12.667c-5.94-4.887-16.948-8.172-29.556-8.172z" fill="#fff68d" stroke="#c41919" stroke-width=".313" stroke-miterlimit="10"/><path d="M57.593 58.296a1.407 1.407 0 1 1 0 2.814 1.407 1.407 0 0 1 0-2.814zM28.037 58.296a1.407 1.407 0 1 1 0 2.814 1.407 1.407 0 0 1 0-2.814zM46.333 47.037a1.407 1.407 0 1 1 0 2.814 1.407 1.407 0 0 1 0-2.814z" fill="#fff"/><path d="M36.519 25.395v-.922l.052-.158.53-1.39-1.794.087.751-1.976-.596-.03-.024.077-.641.008c-1.634 0-3.061-.768-3.915-2.106-.97-1.521-1.059-3.573-.231-5.356.675-1.452 1.968-2.573 3.548-3.074l1.222-.29.68-.075.17-.001c.634 0 1.275.032 1.952.097l1.518-4.109h6.035l-.755 2.014 1.782.01L46 10.239l1.302.019.089.022c1.13.28 2.471 1.358 3.065 2.196.306.432.556.932.702 1.409.98 3.178-1.377 5.661-2.924 6.627l-.169.111c-.278.184-.623.414-1.025.513l-.098.024-3.268-.039-1.602 4.39-5.553-.116zm-.122-10.164c-.416.081-.985.736-1.017 1.202-.006.094-.015.235.457.298l.006.001.554-1.501z" fill-rule="evenodd" clip-rule="evenodd" fill="#fff"/><path d="M40.292 6.97h4.341l-.592 1.579-2.806.022-4.517 11.708-1.294-.066v-.066L40.292 6.97zm1.206 1.995l4.144.022-.614 1.557h-2.806l-4.407 11.554-1.337.066 5.02-13.199zm-5.35 2.017c.78-.006 1.51.042 2.171.11l-1.359 3.464c-1.448-.814-3.793 2.618-1.228 2.96l-.877 2.784c-3.242.041-4.869-3.359-3.486-6.336.573-1.234 1.701-2.219 3.069-2.653l1.118-.263.592-.066zM50.4 14.117a4.349 4.349 0 0 0-.592-1.184c-.497-.702-1.675-1.654-2.609-1.886l-4.692-.066-5.196 13.615v.022l4.21.088 1.601-4.385 3.727.044c.342-.084.688-.353.965-.526 1.43-.893 3.399-3.081 2.586-5.722zm-6.095 3.289h-.044c.072-.323.996-2.671 1.14-2.784l.219-.044c2.672-.049.351 3.521-1.315 2.828z" fill-rule="evenodd" clip-rule="evenodd" fill="#fe0000"/><g><path d="M120 2c20.987 0 38 17.013 38 38s-17.013 38-38 38-38-17.013-38-38S99.013 2 120 2z" fill="#ffc556"/><path d="M91.393 33.216l.452-.102c.02-.106.035-.181.04-.226l.458-3.933-.367.078.397-3.364 2.474-.513.116-1.064-2.495.497.388-3.311 2.465-.481.138-1.268 3.688-.706-.127 1.253 1.349-.263.09-1 7.892-1.515-.349 5.245a5.825 5.825 0 0 1-.204 1.136l.267-.056-.283 4.281c-.043.653-.227 1.223-.549 1.699l1.019-.221-.156 3.603-11.446 2.368a4.364 4.364 0 0 1-1.246.104 3.565 3.565 0 0 1-.709-.096l-.056.058c-.384.396-.938.679-1.651.844l-2.012.471.417-3.518zm7.36-1.779l.605-.131.08-.893-.598.132-.087.892zm4.419-3.352l1.103-.245c.005-.031.012-.077.017-.141l.003-.044-1.107.239-.016.191zm-4.587-3.704l1.336-.276.073-.81.737-.152.045-.213-2.086.417-.105 1.034z" fill="#fff"/><path d="M100.459 22.186l-2.499.499-.272 2.69 2.565-.531-.152 1.658-1.696.359-.129 1.314 1.753-.378-.157 1.71-1.765.39-.249 2.544 9.558-2.068-.085 1.962-10.841 2.242a3.521 3.521 0 0 1-1.034.089c-.338-.022-.546-.054-.623-.096l-.318-.163-.445.463c-.274.282-.693.49-1.259.621l-.914.214.218-1.841.093-.021c.147-.034.246-.101.296-.202.05-.102.089-.223.117-.368a5.21 5.21 0 0 0 .051-.3l.526-4.514 2.013-.43-.405 3.715c-.01.094-.014.175-.011.247.003.072.051.163.145.273.093.11.185.164.271.16l.591.01.541-5.137-3.452.732.201-1.702 2.479-.514.295-2.71-2.485.496.194-1.655 2.469-.482.138-1.266 2.069-.396-.128 1.256 2.483-.484-.147 1.614zm1.559-1.293l-.969.189.145-1.605 6.299-1.209-.281 4.222a5.113 5.113 0 0 1-.128.8c-.07.305-.201.556-.392.752-.191.197-.642.371-1.354.519l-.995.209.123-1.607.431-.088c.179-.038.285-.132.319-.285.033-.152.056-.304.067-.455l.156-2.115-1.43.281-.736 3.235a3.159 3.159 0 0 1-.214.62 2.21 2.21 0 0 1-.383.548c-.166.178-.473.314-.924.408l-1.167.244.144-1.606.268-.055c.266-.055.433-.237.501-.547l.52-2.455zm-1.387 5.105l6.576-1.385-.214 3.239c-.04.603-.225 1.102-.554 1.493-.331.393-.853.671-1.564.831l-4.716 1.066.472-5.244zm1.817 1.245l-.153 1.846 2.124-.47c.229-.051.393-.139.489-.266.097-.127.155-.326.175-.597l.081-1.098-2.716.585z" fill="#006cff"/><path d="M107.943 29.442l6.147-1.276.001-.02-5.953 1.216.188-2.75 1.259-2.045-1.403.275.228-3.295 2.865-5.089 4.51-.834-.019.033 9.335-1.72-.057 2.557-1.446 2.508 1.443-.285-.038 2.913-2.252 4.355.17.241.082-.016 2.416-.658-.078 3.71-2.424.506a3.856 3.856 0 0 1-.803.075l-.28-.002c-.026 0-.235.013-.235.013-.396 0-.763-.169-1.095-.503a4.573 4.573 0 0 1-.597.613c-.314.269-.729.456-1.27.571l-1.862.39.005-.131a3.875 3.875 0 0 1-.957.317l-.717.152-.007.143-7.4 1.56.244-3.524zm10.345-2.759l.258-.423-.165-.295-.093.718zm-4.806-1.85l1.534-.309.361-2.888-1.895 3.197zm5.412-2.99l.079-.016.026-.736-.105.752zm.233-1.665l1.097-2.046-.833.156-.264 1.89zm-5.268-1.21l.683-.13.059-1.158-.742 1.288z" fill="#fff"/><path d="M111.31 21.807l.935-.181 1.062-1.747 2.47-.47-3.884 6.551 2.944-.593-.093 1.838-5.746 1.173.104-1.517 2.105-3.419-2.164.424.144-2.086 2.595-4.61 2.461-.455-2.933 5.092zm3.03 8.951l-5.779 1.218.13-1.88 5.745-1.192-.096 1.854zm3.616-7.918l1.752-.353 1.046 1.791 1.212-2.432-2.217.437.061-1.704 1.892-3.529-6.337 1.185.087-1.715 8.835-1.628-.031 1.382-2.215 3.842 2.195-.434-.023 1.75-2.387 4.616.415.59c.155.219.272.348.351.386.079.036.269.024.569-.038l1.443-.392-.042 2.022-1.807.377c-.465.098-.851.035-1.093.065-.24.029-.482-.107-.725-.409l-.459-.564-.553.722a3.699 3.699 0 0 1-.534.557c-.209.18-.515.312-.919.397l-.863.181.077-1.822.238-.049c.334-.069.569-.214.707-.434l.831-1.359-1.558-2.788-.609 4.679c-.099.744-.239 1.258-.418 1.542-.18.283-.585.493-1.216.625l-.898.19.089-1.764.163-.034c.092-.019.167-.085.226-.199.06-.114.111-.339.156-.676l1.161-9.301 2.049-.388-.651 4.676z" fill="#006cff"/><path d="M115.439 65.421v-3.254c-.875 1.176-2.218 1.847-3.884 1.847-1.796 0-3.263-.526-4.261-1.455l-4.947-.463-.189-.159c-.17-.143-.42-.353-4.399-7.448a74.037 74.037 0 0 0-1.544 6.099l-.178.864-4.416-1.419.137-.692c.009-.045.843-4.227 2.381-9.071l-1.724.111a2.076 2.076 0 0 1-.338.513 1.36 1.36 0 0 1-1.002.463l-.038-.001c-2.463-.072-2.583-1.542-2.671-2.616-.133-1.618 1.302-2.929 2.295-3.012l.112-.005c.475 0 .91.252 1.249.682l3.593-.343c.679-1.745 1.386-3.314 2.105-4.672l.207-.392 5.234-.329-.605 1.226c-.008.017-.731 1.487-1.713 3.876 2.362-.084 5.352-.128 5.387-.129l.583-.008-.001-.295c0-5.123.795-7.875.829-7.989l.129-.437.443-.108c.224-.055 5.578-1.338 13.38-1.338 3.832 0 7.602.315 11.207.937l.826.142-1.275 5.493-.707-.087c-.052-.006-5.227-.634-10.703-.634-2.758 0-5.125.157-7.047.466-.152.597-.389 1.788-.389 3.39 0 1.493.175 2.599.305 3.212h5.141v-6.783h6.376v6.783h9.222V47.22h1.609a2.937 2.937 0 0 1-2.243-2.857c0-1.619 1.308-2.936 2.916-2.936.871 0 1.654.387 2.189.999v-.791l.809.018c.286.006 7.041.159 9.26.699l.665.162-.24 2.536.43.145-.142 2.996-.285-.025.618 2.043h.005v.016l.275.909h-.275v1.464l-.116.188h.198l-.313 3.164 1.135-1.146-.782 2.89-.623 2.332-.359.15c-.146.061-3.629 1.488-9.373 1.641l-.22.006-.987-.561-2.816 1.646.591 1.447-6.349.415-4.597-10.614h6.783l2.806 6.875c.162-3.367.352-7.918.355-9.672h-.1l-1.057 2.369h-8.829v7.536l-3.968 4.152h-6.08zm3.675-5.016v-6.753h-5.86c2.071.705 3.316 2.376 3.316 4.644 0 .766-.096 1.473-.278 2.109h2.822zm-18.728-10.386c1.627 3.291 3.95 6.875 5.453 9.086l-.001-.105c0-2.645 1.141-4.577 3.03-5.348h-1.041l-.178-.547c-.03-.093-.659-2.075-.805-6.078l-1.407 3.092-.617-.124c-.126-.025-.474-.068-1.386-.068a65.751 65.751 0 0 0-3.048.092zm42.634 8.039a65.572 65.572 0 0 0 1.516-.184v-2.028l1.192-.2v-1.931l.04-.058-1.143.079-1.605 4.322zm-3.109-4.211c-.009.366-.022.745-.039 1.133l.432-1.133h-.393zm-1.112-6.623v-.69c-.36.331-.802.573-1.292.69h1.292z" fill="#fff"/><path d="M91.934 48.455c.092 1.118-.298 2.128-.873 2.111-1.78-.052-1.818-.819-1.91-1.937-.092-1.118 1.003-2.063 1.576-2.111.575-.049 1.115.819 1.207 1.937zm-.622.052c.037.449-.12.828-.351.848-.23.019-1.15-.329-1.188-.778-.037-.449.824-.828 1.054-.847.231-.02.447.328.485.777zm4.798-1.696l2.757-.151c2.086-.15 7.376-.225 7.376-.225l-1.267 2.783c-1.118-.225-5.811.076-5.811.076 2.533 5.567 7.525 12.413 7.525 12.413l-4.023-.377c-.447-.376-6.855-11.961-6.855-11.961l-3.502.226c.373-.827-.149-2.407-.149-2.407l3.949-.377zm12.292 6.049s-.797-2.452-.797-7.519c0-5.068.797-7.765.797-7.765s10.989-2.679 24.265-.39l-.924 3.983s-11.278-1.385-18.468-.078c0 0-.559 1.554-.559 4.087 0 2.533.479 4.004.479 4.004h6.551v-6.783h4.793v6.783h10.943l-1.677 3.76h-9.106v8.01l-3.515 3.678h-4.952v-3.433h3.675V52.86h-11.505zm7.376 5.436c0 2.821-1.465 4.926-4.222 4.926-2.758 0-4.926-1.401-4.926-4.222 0-2.822 1.465-4.926 4.222-4.926 2.757 0 4.926 1.401 4.926 4.222zm23.179-13.929c0 1.184-.95 2.144-2.124 2.144a2.134 2.134 0 0 1-2.124-2.144c0-1.184.951-2.144 2.124-2.144 1.174 0 2.124.96 2.124 2.144zm-3.614 3.648h3.651s.373 4.213-.075 9.479l.671.451 1.863-4.89h-1.714V51.25l9.612-.225v1.354l-.745 1.204h.745l-.223 2.256-1.639 1.881-2.161.376v-1.58l2.236-.376v-.903l-1.044.075v-1.354l.82-1.204-3.278.226-2.012 5.417h-1.043l.522.602s7.078-.602 7.973-1.505l-.522 1.956s-3.427 1.43-9.09 1.58l-1.192-.677-2.831 1.655s.522-10.457.373-11.435h-.894v-2.558zm4.471-3.638v-1.93s6.929.151 9.09.677l-.149 1.58s-2.255-.349-2.608-.194v.872s2.533.226 2.98.376l-.075 1.578-2.608-.224-.075 2.859-2.31.903-.074-3.912h-4.396v-1.806l4.322.076v-.753c-1.775-.23-4.097-.102-4.097-.102zm2.608 6.196h-2.757l1.267-3.234h2.459l-.969 3.234zm4.545-3.009l1.565.075.819 2.708h-1.565l-.819-2.783zm-20.231 7.389h5.046l3.547 8.689-4.696.307-3.897-8.996zm-24.889-13.407s-4.322 8.759-6.408 18.883l-2.905-.934s2.086-10.554 5.886-17.733l3.427-.216z" fill="#f01829"/><path d="M114.37 58.648a3.166 3.166 0 1 1-6.333.001 3.166 3.166 0 0 1 6.333-.001z" fill="#fff68d"/></g><g><path d="M178.524 64.377c-3.312.15-5.552-1.092-5.467-4.902l-1.822-1.219-6.892 1.638c.03 3.425 1.227 7.096 3.593 9.408 2.365 2.312 5.871 3.468 10.518 3.468 4.842 0 8.811-1.124 11.907-3.372 3.095-2.248 4.907-5.117 5.436-8.605.737-4.865-1.483-8.784-6.66-10.199 4.829-1.592 7.571-3.772 8.227-8.101.5-3.299-.484-5.9-2.95-7.802-2.467-1.902-5.719-2.853-9.758-2.853-3.863 0-8.648-.582-11.589 1.425-2.941 2.007-4.576 2.181-7.839 8.805l2.176 1.315 7.712 1.266c1.357-3.394 3.761-5.271 7.014-5.163 2.382.079 3.484.823 4.286 1.802.802.98 1.809.954 1.618 2.215-.17 1.125-.762 2.182-1.774 3.171-1.013.989-2.725 1.484-5.136 1.484l-7.284.866-1.038 6.05 2.18.55s.955-.548 4.203-.396c3.248.152 4.975 1.968 5.008 3.807.083 4.788-5.669 5.342-5.669 5.342z" fill="#3679de"/><path d="M173.453 54.491h3.665c2.951 0 4.886.432 5.803 1.295.917.863 1.246 2.169.986 3.916-.245 1.649-1.013 2.964-2.302 3.945-1.29.982-2.853 1.472-4.691 1.472-3.949 0-6.024-2.076-6.227-6.229L162 60.13c.03 3.475 1.224 6.386 3.582 8.732 2.358 2.346 5.853 3.519 10.486 3.519 4.828 0 8.785-1.141 11.871-3.422 3.086-2.281 4.893-5.192 5.42-8.732.735-4.936-1.479-8.122-6.64-9.558 4.814-1.615 7.549-4.619 8.203-9.011.498-3.348-.482-5.987-2.941-7.917-2.459-1.93-5.702-2.895-9.729-2.895-3.851 0-7.243 1.018-10.175 3.055-2.932 2.037-4.972 4.61-6.119 7.72l8.1 1.328c1.353-3.444 3.652-5.166 6.897-5.166 1.701 0 2.951.497 3.751 1.491.8.994 1.105 2.131.914 3.41-.17 1.142-.76 2.214-1.769 3.218-1.01 1.004-2.716 1.505-5.121 1.505h-4.222l-1.055 7.084z" fill="#40b8fc" stroke="#3679de" stroke-width=".911" stroke-miterlimit="10"/><path d="M199.059 18.618c-15.009 0-28.114 3.937-35.184 9.794 3.779-8.704 18.092-15.182 35.184-15.182s31.405 6.477 35.184 15.182c-7.07-5.857-20.175-9.794-35.184-9.794z" fill="#40b8fc" stroke="#3679de" stroke-width=".304" stroke-miterlimit="10"/><path d="M238 52.618c0 10.224-9.515 17.139-16.737 20.155-2.821 1.178-11.341 3.218-12.933 2.835l3.582-16.295c1.063 1.328 2.714 2.118 7.069 2.118 3.946 0 9.217-2.285 9.89-8.506.636-5.876-4.446-10.633-10.651-10.633-4.156 0-7.186 1.769-9.129 4.962l-.912.036-2.157 18.326-12.029.018 6.979-31.528h20.198v.065c10.201.667 16.83 8.66 16.83 18.447z" fill="#3679de"/><path d="M235.081 50.897c0 10.946-9.472 18.351-16.661 21.58-2.808 1.261-11.289 3.445-12.874 3.036 0 0 3.496-16.661 3.508-16.664 2.253 1.741 4.482 2.171 6.844 2.107 4.055-.11 9.425-3.069 10.096-9.729.633-6.291-4.426-11.384-10.602-11.384-4.137 0-7.377 2.374-9.088 5.313-.807 1.386-1.146 2.929-1.146 2.929-.01.022-.569 2.24-.572 3.529l-1.337 13.2h-10.053l5.026-33.737H208.274c6.843 0 14.064-.776 19.749 3.814 4.768 3.85 7.058 9.986 7.058 16.006z" fill="#40b8fc" stroke="#3679de" stroke-width=".911" stroke-miterlimit="10"/><path d="M215.445 40.623c5.395 0 9.769 4.383 9.769 9.79s-4.374 9.79-9.769 9.79c-5.395 0-9.769-4.383-9.769-9.79s4.374-9.79 9.769-9.79z" fill="#fff864" stroke="#ffbf5a" stroke-width="1.215" stroke-miterlimit="10"/><path d="M230.537 29.935a2.274 2.274 0 0 1 2.272 2.277 2.275 2.275 0 0 1-2.272 2.277 2.274 2.274 0 0 1-2.272-2.277 2.274 2.274 0 0 1 2.272-2.277zM230.537 36.806c2.091 0 3.787 1.699 3.787 3.795s-1.695 3.795-3.787 3.795c-2.091 0-3.787-1.699-3.787-3.795s1.696-3.795 3.787-3.795z" fill="#fff864" stroke="#ffbf5a" stroke-width=".607" stroke-miterlimit="10"/><path d="M195.275 27.482v-.907l.051-.161.752-1.971-2.196.107.91-2.39-1.136-.058-.033.104-.645.008c-1.933 0-3.621-.907-4.631-2.49-1.153-1.807-1.257-4.248-.271-6.372.803-1.728 2.343-3.063 4.227-3.66l1.47-.349.812-.09.193-.001c.814 0 1.639.043 2.519.132l1.862-5.04h6.98l-.924 2.463 2.176.011-.982 2.491 1.845.026.087.021c1.341.332 2.934 1.615 3.641 2.613a6.07 6.07 0 0 1 .833 1.67c1.164 3.778-1.65 6.738-3.497 7.892l-.213.139c-.327.217-.734.487-1.194.601l-.097.024-4.108-.048-1.96 5.37-6.471-.135zm-.239-12.45c-.612 0-1.485.945-1.532 1.658-.011.162-.03.464.722.564l.157.021.817-2.211a.403.403 0 0 0-.164-.032z" fill-rule="evenodd" clip-rule="evenodd" fill="#fff"/><path d="M199.702 5.123h5.312l-.724 1.931-3.434.027-5.526 14.325-1.583-.08v-.08l5.955-16.123zm1.476 2.442l5.07.027-.751 1.905h-3.434l-5.392 14.137-1.636.08 6.143-16.149zm-6.546 2.468a24.21 24.21 0 0 1 2.656.134l-1.663 4.239c-1.771-.996-4.641 3.203-1.502 3.622l-1.073 3.407c-3.966.05-5.958-4.109-4.265-7.753.701-1.51 2.081-2.715 3.756-3.246l1.368-.322c.24-.028.482-.055.723-.081zm17.437 3.836a5.33 5.33 0 0 0-.724-1.449c-.608-.858-2.05-2.024-3.192-2.307l-5.741-.08-6.358 16.659v.027l5.151.107 1.958-5.365 4.56.054c.419-.103.842-.432 1.18-.644 1.752-1.095 4.162-3.772 3.166-7.002zm-7.457 4.024h-.054c.088-.395 1.219-3.268 1.395-3.407l.268-.054c3.27-.06.43 4.309-1.609 3.461z" fill-rule="evenodd" clip-rule="evenodd" fill="#fe0000"/></g><g><path d="M280 2c20.987 0 38 17.013 38 38s-17.013 38-38 38-38-17.013-38-38 17.013-38 38-38z" fill-rule="evenodd" clip-rule="evenodd" fill="#ffc018"/><path d="M268.967 74.39l-3.04-5.063-5.785 1.082 3.845-4.508-2.779-5.215 5.417 2.277 4.067-4.305-.497 5.915 5.293 2.554-5.724 1.379-.797 5.884zM293.015 73.834l-5.546-1.975-3.789 4.525.127-5.936-5.439-2.259 5.624-1.693.427-5.921 3.349 4.889 5.704-1.4-3.555 4.715 3.098 5.055zM305.098 66.125l-3.315-4.886-5.716 1.403 3.59-4.715-3.063-5.052 5.534 1.972 3.823-4.525-.17 5.934 5.426 2.255-5.639 1.696-.47 5.918zM307.424 31.449l-3.749-4.558-5.563 1.926 3.143-5.027-3.513-4.747 5.691 1.451 3.392-4.859.374 5.924 5.609 1.743-5.46 2.21.076 5.937zM262.98 28.146l-5.868-.425-2.458 5.373-1.445-5.757-5.841-.727 4.975-3.133-1.152-5.822 4.52 3.821 5.129-2.872-2.182 5.495 4.322 4.047zM273.71 19.536l-4.424-3.898-5.186 2.794 2.304-5.467-4.221-4.122 5.848.519 2.577-5.341 1.311 5.788 5.814.821-5.039 3.058 1.016 5.848zM295.077 17.354l-5.42-2.3-4.047 4.293.475-5.918-5.298-2.577 5.714-1.358.773-5.885 3.057 5.079 5.776-1.061-3.825 4.497 2.795 5.23z" fill="#ffdf5c"/><path d="M243.849 41.228l1.853-9.025h24.478s-7.095 8.637-13.921 28.92h-12.19s11.191-18.439 14.019-22.418c-5.56-.776-14.239 2.523-14.239 2.523zm24.892-2.329l2.828-6.696h19.017l-2.438 5.24-3.803 1.456h-4.921l-.656 1.359h8.21l-1.073 1.65h-7.933l-.468.97h8.4l-1.073 1.65h-8.124l-.374.776h8.791l-1.17 2.135c-9.85-.776-15.121.858-22.223 8.331l3.889-10.466h7.642l.374-.776h-7.431l.683-1.65h7.544l.468-.97h-7.622l.683-1.65h7.735l.656-1.359h-7.611zm28.093 1.553l-2.728 6.786h-3.412l2.727-6.786h-4.469l.683-1.65h4.507l.272-.631h3.267l-.231.631h4.766l-1.073 1.65h-4.309zm8.305 1.436h3.605l-5.834 5.087h-3.606l7.284-5.087h-1.449zm-13.408-8.035l.683-1.65h12.58l-1.073 1.65h-12.19zm-1.244 1.601h3.266l.258 2.329h-3.267l-.257-2.329zm3.846 0h3.267l.257 2.329h-3.267l-.257-2.329zm5.262-.323h3.681l-1.187 2.625h-3.681l1.187-2.625zm-10.275 6.165h3.413l-3.147 5.366h-3.413l4.464-5.366h-1.317zm7.601 0h3.412l-1.581 5.657h-3.413l1.582-5.657zm13.314-9.695h2.155l-5.058 4.775h-3.606l6.509-4.775zm-2.312 5.26h2.814l-5.591 4.679h-2.948l6.384-4.679h-.659z" fill="#fff" stroke="#ff6c12" stroke-width="2.717" stroke-miterlimit="10"/><path d="M243.849 41.228l1.853-9.025h24.478s-7.095 8.637-13.921 28.92h-12.19s11.191-18.439 14.019-22.418c-5.56-.776-14.239 2.523-14.239 2.523zm24.892-2.329l2.828-6.696h19.017l-2.438 5.24-3.803 1.456h-4.921l-.656 1.359h8.21l-1.073 1.65h-7.933l-.468.97h8.4l-1.073 1.65h-8.124l-.374.776h8.791l-1.17 2.135c-9.85-.776-15.807 1.545-22.909 9.018l4.576-11.153h7.642l.374-.776h-7.431l.683-1.65h7.544l.468-.97h-7.622l.683-1.65h7.735l.656-1.359h-7.612zm28.093 1.553l-2.728 6.786h-3.412l2.727-6.786h-4.469l.683-1.65h4.507l.272-.631h3.267l-.231.631h4.766l-1.073 1.65h-4.309zm8.964 1.436h2.947l-5.834 5.087h-3.606l6.493-5.087zm-14.067-8.035l.683-1.65h12.58l-1.073 1.65h-12.19zm-1.244 1.601h3.266l.258 2.329h-3.267l-.257-2.329zm3.846 0h3.267l.257 2.329h-3.267l-.257-2.329zm5.262-.323h3.681l-1.187 2.625h-3.681l1.187-2.625zm-10.275 6.165h3.413l-3.147 5.366h-3.413l4.464-5.366h-1.317zm7.601 0h3.412l-1.581 5.657h-3.413l1.582-5.657zm12.522-9.695h2.947l-5.85 4.775h-2.814l5.717-4.775zm-1.654 5.26h2.947l-6.383 4.679h-2.948l6.384-4.679z" fill="#fff"/><path d="M284.878 41.819l-5.794-4.044-5.847 3.967 2.056-6.76-5.58-4.335 7.064-.134 2.398-6.646 2.31 6.677 7.062.227-5.637 4.261 1.968 6.787z" fill="#ff6c12"/></g><g><path d="M40 82c20.987 0 38 17.013 38 38s-17.013 38-38 38-38-17.013-38-38 17.013-38 38-38z" fill="#8b68f1"/><defs><path id="a" d="M45.837 101.473c.751-1.137 5.576-10.503 6.344-10.503h-4.119c-.404.674-1.136 2.686-3.432 2.794-5.718.268-16.285 1.558-24.026 6.984-.498.349-.13-.653-.686-.698-3.148-.258-5.492.015-6.178 0l-4.119 15.364c12.102.403 6.759-5.476 12.356-9.079l13.729-2.793C21.328 118.347 15.487 130.39 8.247 151.03l19.221-2.095c1.352-.148 2.209-9.434 2.448-10.736a80.477 80.477 0 0 1 3.654-13.286c3.056-8.303 7.487-16.203 12.267-23.44zm2.51-1.202c-1.725.251-6.901 10.532-6.901 10.532l-1.109 2.855s10.271-1.152 10.351-1.168c-.339.149-.247 2.834-.288 3.258-.164 1.715-1.154 3.477-3.039 3.706.045-.005 1.602-4.328 1.623-4.742.025-.493-.286-1.042-.77-1.088-.831-.08-1.989 1.477-2.608 1.961-2.437 1.904-7.033 2.365-7.841 5.79-.186.79-.788 2.848.447 3.115.869.188 7.868-1.994 7.299-3.113l.616 1.212 4.313.251c.942.055 2.046.141 2.891-.382 1.562-.967 1.733-3.42 2.066-5.05.161-.792.726-5.246 1.328-5.476l2.865-.416c1.43-.208 3.507-.138 4.81-.733 1.525-.697 1.025-3.165.953-4.492 0 .14-6.701.922-7.228.939-.129-.983 1.342-3.131 1.806-4.074 0 0-5.299-.251-6.532.752-1.183.964-1.534 2.957-1.685 4.374-1.372 0-3.311.551-4.615.187.428-1.355 2.619-4.206 3.958-4.811 1.109-.502 9.366-1.881 9.736-1.881s5.669-.502 5.669-.502 2.834-5.266 2.711-6.896c.001 0-19.101 5.642-20.826 5.892zm-1.16 35.275c1.335-.879 3.154-1.237 4.541-1.989l.453-1.372s-4.534.361-4.999.181c-.245-.095-.33-.45-.332-.912.488-.037 1.039-.09 1.634-.09 1.907 0 3.796-1.038 3.796-2.319s-1.685-1.984-3.483-1.338c-.544.195-1.019.384-1.446.574l.296-1.179s3.666-.97 5.269-1.519c.991-.34 1.552-1.121 1.479-1.707a.957.957 0 0 0-.083-.292c-.344-.722-1.563-.671-2.286-.604-5.037.47-10.166 1.5-14.863 3.446-.458.19-.923.396-1.278.745-.719.709-.708 1.964.536 1.704 1.166-.243 2.321-.535 3.488-.773 1.339-.273 1.678-.421 1.881.95.103.692.174 1.622.101 2.52-.667-.386-1.868-.621-3.419-.873-1.802-.293-2.746.054-3.305.79-.574.755 2.653 2.91 4.478 2.91.198 0 .38-.004.552-.011-.401.114-.836.179-1.201.273l-4.697 1.216c-1.312.411-1.47 2.128-1.433 3.207 1.456-.093 3.45-1.042 4.906-1.135-1.185.076-5.227 3.761-5.977 4.627-1.07 1.237 0 3.612 0 3.612.847-.452 5.831-3.541 5.831-3.541v4.89l6.795-1.29c-.287-2.165-.38-4.573.178-6.703.397-1.518 1.259-3.124 2.588-3.998zm14.298-23.255c-2.749 0-4.977 2.267-4.977 5.064a5.065 5.065 0 0 0 3.026 4.658l-2.585 2.146-3.547 2.944.491 1.631c.014.128 2.305-.039 2.536-.036 2.137.033.234 1.137-.882 1.979-.605.456-1.66 1.188-1.914 1.447-.544.556-.324 2.002-.215 2.731.02.133 2.716-.144 2.955.24.063.101-2.266 2.168-2.484 2.386a13.69 13.69 0 0 0-1.468 1.762c-.546-1.589-2.017-2.736-3.766-2.736-2.212 0-4.005 1.824-4.005 4.075s1.793 4.075 4.005 4.075c.353 0 .689-.061 1.016-.149-.214.623-.346 1.23-.303 1.744-.77.219 1.589-.195 4.034-.539 1.519-.214 3.107-.515 3.485-1.17.337-.582 1.242-2.198 1.544-2.799.871-1.739 1.889-3.377 3.055-5.236 1.032-1.645 1.382-2.189 1.049-4.111-.023-.132-2.99.076-3.352.089 1.341-1.837 3.172-4.048 3.289-5.278-1.107-.354-3.125-.185-4.321-.094l1.166-1.262 2.545-3.468c2.571-.198 4.603-2.359 4.603-5.025-.002-2.801-2.231-5.068-4.98-5.068z"/></defs><clipPath id="b"><use xlink:href="#a" overflow="visible"/></clipPath><path d="M40 82c20.987 0 38 17.013 38 38s-17.013 38-38 38-38-17.013-38-38 17.013-38 38-38z" clip-path="url(#b)" fill="#ffec47"/></g><g><path d="M120 82c20.987 0 38 17.013 38 38s-17.013 38-38 38-38-17.013-38-38 17.013-38 38-38z" fill="#4399ff"/><path d="M143.139 96.218c2.342 0 4.242 1.906 4.242 4.257s-1.899 4.257-4.242 4.257-4.242-1.906-4.242-4.257 1.899-4.257 4.242-4.257zM128.994 86.995c3.123 0 5.655 2.541 5.655 5.676s-2.532 5.676-5.655 5.676-5.655-2.541-5.655-5.676 2.531-5.676 5.655-5.676zM112.397 101.036c-.423.193-.04-.086-.239-.5l-6.441-11.554c-.199-.415.268-1.684.691-1.877l.766-.349c.423-.193 1.903.22 2.103.634l3.588 13.034c.2.414-.045.419-.468.612zM109.92 102.428c-.172.211.38.229-.03.01l-9.366-5.986c-.41-.219-.56-1.549-.334-1.95l.409-.726c.226-.401 2.321-.649 2.73-.429l7.036 8.208c.131.07-.219.472-.445.873zM108.873 104.439c.017.457-.679.065-1.146.086l-16.253-4.338c-.467.021-.953-1.154-.971-1.611l-.031-.827c-.017-.457 1.606-1.216 2.073-1.237l15.608 7.104c.842.162.703.578.72.823zM98.79 125.815c.12.446-.091.024-.533.148l-11.759 2.198c-.442.124-1.615-.55-1.735-.996l-.217-.807c-.12-.446.534-1.82.975-1.944l12.742.839c.443-.124.407.116.527.562zM98.616 128.564c.175.207.296-.326.005.031l-6.919 6.578c-.291.357-1.627.254-1.979-.041l-.638-.534c-.352-.295-.206-2.378.085-2.736l8.67-3.896c.094-.112.424.303.776.598zM99.255 131.54c.337.095-.074.679-.143 1.14l-3.741 11.246c-.069.462-1.969 1.408-2.307 1.313l-.611-.172c-.337-.095-.601-1.866-.532-2.327l6.603-10.698c.269-.783.548-.545.731-.502zM125.278 101.704c13.408 0 24.278 11.027 24.278 24.63s-10.87 24.63-24.278 24.63S101 139.937 101 126.334s10.869-24.63 24.278-24.63z" fill="#fff864"/><path d="M120.862 129.064h3.583c2.886 0 4.814.41 5.785 1.229.971.819 1.404 2.058 1.3 3.715-.098 1.564-.736 2.812-1.912 3.743-1.177.931-2.663 1.396-4.46 1.396-3.861 0-6.068-1.97-6.623-5.91l-2.445-.224-5.943 1.401c.328 3.297 1.745 6.059 4.253 8.285 2.507 2.226 6.025 3.339 10.555 3.339 4.72 0 8.491-1.082 11.313-3.247 2.821-2.165 4.337-4.926 4.548-8.285.294-4.683-2.144-7.706-7.314-9.068 4.568-1.532 6.984-4.382 7.245-8.549.2-3.176-.986-5.68-3.556-7.511-2.57-1.831-5.824-2.747-9.761-2.747-3.765 0-6.994.966-9.686 2.899s-4.465 4.374-5.319 7.324l5.569 1.638 2.465-.378c1.027-3.267 3.127-4.901 6.3-4.901 1.663 0 2.928.472 3.796 1.414.868.943 1.263 2.021 1.187 3.235-.068 1.083-.553 2.101-1.453 3.053-.901.952-2.526 1.428-4.877 1.428h-4.128l-.422 6.721z" fill="#fc4545"/><path d="M117.975 129.293h3.617c2.913 0 4.86.429 5.84 1.286.98.858 1.418 2.154 1.313 3.889-.099 1.637-.743 2.943-1.93 3.918-1.188.975-2.688 1.462-4.502 1.462-3.897 0-6.126-2.062-6.686-6.186l-8.467 1.231c.331 3.451 1.762 6.342 4.293 8.672 2.531 2.33 6.082 3.495 10.654 3.495 4.765 0 8.571-1.133 11.419-3.399 2.848-2.266 4.378-5.156 4.591-8.672.297-4.903-2.164-8.067-7.383-9.493 4.612-1.604 7.049-4.587 7.314-8.949.201-3.325-.995-5.946-3.589-7.863-2.595-1.917-5.879-2.875-9.853-2.875-3.801 0-7.06 1.012-9.777 3.034-2.718 2.023-4.507 4.579-5.37 7.667l8.109 1.319c1.037-3.42 3.156-5.131 6.359-5.131 1.678 0 2.955.494 3.831 1.481.876.987 1.275 2.116 1.198 3.386-.069 1.134-.558 2.199-1.467 3.196-.91.997-2.55 1.495-4.923 1.495h-4.167l-.424 7.037z" fill="#fff" stroke="#fa3f41" stroke-width=".94" stroke-miterlimit="10"/></g><g><path d="M200 82c20.987 0 38 17.013 38 38s-17.013 38-38 38-38-17.013-38-38 17.013-38 38-38z" fill="#4399ff"/><path d="M223.139 96.218a4.25 4.25 0 0 1 4.242 4.257 4.25 4.25 0 0 1-4.242 4.257 4.25 4.25 0 0 1-4.242-4.257 4.25 4.25 0 0 1 4.242-4.257zM208.994 86.995c3.123 0 5.655 2.541 5.655 5.676 0 3.135-2.532 5.676-5.655 5.676s-5.655-2.541-5.655-5.676c-.001-3.135 2.531-5.676 5.655-5.676zM192.397 101.036c-.423.193-.04-.086-.239-.5l-6.441-11.554c-.199-.414.268-1.684.691-1.877l.766-.349c.423-.193 1.903.22 2.103.634l3.588 13.034c.2.414-.045.419-.468.612zM189.92 102.428c-.172.211.38.229-.03.01l-9.366-5.986c-.41-.219-.56-1.549-.334-1.95l.409-.726c.226-.401 2.321-.648 2.73-.429l7.036 8.208c.131.07-.219.472-.445.873zM188.873 104.439c.017.457-.679.065-1.146.086l-16.253-4.338c-.467.021-.953-1.154-.971-1.611l-.031-.827c-.017-.457 1.606-1.216 2.073-1.237l15.608 7.104c.842.162.703.578.72.823zM178.79 125.815c.12.446-.091.024-.533.148l-11.759 2.198c-.442.124-1.615-.55-1.735-.996l-.217-.807c-.12-.446.534-1.82.975-1.944l12.742.839c.443-.124.407.116.527.562zM178.616 128.564c.175.207.296-.326.005.031l-6.919 6.578c-.291.357-1.627.254-1.979-.041l-.638-.534c-.352-.295-.206-2.378.085-2.736l8.67-3.896c.094-.112.424.303.776.598zM179.255 131.54c.337.095-.074.679-.143 1.14l-3.742 11.246c-.069.462-1.969 1.407-2.307 1.313l-.611-.172c-.337-.095-.601-1.866-.532-2.327l6.603-10.698c.27-.783.549-.545.732-.502zM205.278 101.704c13.408 0 24.278 11.027 24.278 24.63s-10.87 24.63-24.278 24.63S181 139.937 181 126.334s10.87-24.63 24.278-24.63z" fill="#fff864"/><path d="M221.623 110.655s-1.7-4.153-2.218-4.152c-6.141.013-18.833 2.161-18.833 2.161l-7.504 20.344 5.48 2.735 1.979-.88c1.457-1.813 3.41-1.966 5.86-1.966 1.755 0 2.779.547 3.901 1.625 1.121 1.078 2.792 2.361 2.688 3.866-.1 1.437-.755 2.686-1.967 3.746-1.212 1.061-2.782 1.591-4.711 1.591-3.511 0-5.604-1.539-6.278-4.618l-2.498-.681c.63 6.421.233 11.79 8.645 11.79 4.842 0 8.689-1.159 11.541-3.477 2.852-2.318 5.034-7.067 5.286-10.71.227-3.284-1.392-7.72-3.737-9.799-2.345-2.078-6.118-3.363-9.687-3.363-3.492 0-6.368-.507-8.629 1.495l1.924-2.524h17.247l1.511-7.183z" fill="#fc4545"/><path d="M218.634 107.128h-24.887l-2.921 22.694 7.459 1.259c1.457-2.072 3.41-3.108 5.86-3.108 1.755 0 3.194.616 4.316 1.847 1.121 1.231 1.63 2.707 1.526 4.427-.1 1.642-.755 3.069-1.967 4.28-1.212 1.212-2.782 1.818-4.711 1.818-3.511 0-5.604-1.759-6.278-5.277l-8.761 1.319c1.527 7.584 6.497 11.375 14.908 11.375 4.842 0 8.689-1.324 11.541-3.973 2.852-2.648 4.404-6.054 4.656-10.217.227-3.753-.831-6.816-3.176-9.191s-5.302-3.562-8.871-3.562c-3.492 0-6.368 1.143-8.629 3.43l1.176-8.913h17.247l1.512-8.208z" fill="#fff" stroke="#fa3f41" stroke-width=".94" stroke-miterlimit="10"/></g><g><path d="M318 120c0 20.987-17.013 38-38 38s-38-17.013-38-38 17.013-38 38-38 38 17.013 38 38z" fill="#ffd248"/><path d="M276.783 119.227l.048.02-.004.002c-12.378 1.122-22.852 7.763-26.65 18.279-.265.733-.605 1.485-.666 2.269-.07.891.258 1.604.758 2.32.331.474.67.943 1.021 1.403a33.465 33.465 0 0 0 2.266 2.666c.8.849 1.64 1.663 2.516 2.435.874.77 1.787 1.494 2.739 2.166.967.683.767.598 1.778 1.213 0 0-6.435-15.329 18.082-31.993" fill="#57c834"/><path d="M278.262 116.837l.025.046-.004-.001c-10.413-6.963-22.863-8.485-32.562-2.812-.676.395-1.423.758-1.973 1.321-.625.64-.824 1.395-.89 2.26a39.552 39.552 0 0 0-.097 1.722 33.126 33.126 0 0 0 .07 3.48c.084 1.158.221 2.314.414 3.46.192 1.143.444 2.277.761 3.394.321 1.135.218.944.617 2.055 0 0 4.761-15.837 34.619-13.133" fill="#ffa42b"/><path d="M281.195 116.467l-.01.051-.002-.003c-3.704-11.928-12.483-20.966-23.707-22.742-.782-.124-1.599-.318-2.389-.233-.899.097-1.537.55-2.142 1.173-.401.413-.795.832-1.177 1.261a32.552 32.552 0 0 0-2.17 2.716 36.401 36.401 0 0 0-1.888 2.918 31.43 31.43 0 0 0-1.575 3.087c-.474 1.075-.432.863-.83 1.968 0 0 13.855-9.149 35.513 11.8" fill="#5488ff"/><path d="M283.19 117.602l-.04.033v-.004c4.725-11.499 3.628-23.988-4.028-32.446-.533-.589-1.049-1.255-1.723-1.689-.765-.494-1.555-.549-2.428-.453-.578.063-1.154.136-1.728.224a33.668 33.668 0 0 0-3.436.713 37.45 37.45 0 0 0-3.345 1.047c-1.093.4-2.165.858-3.207 1.375-1.059.525-.89.389-1.909.986 0 0 16.702 1.734 20.271 31.509" fill="#4f4f4f"/><path d="M284.267 120.773h-.053l.003-.003c11.205-5.897 18.429-16.275 17.832-27.715-.042-.797-.02-1.642-.273-2.408-.288-.871-.879-1.418-1.634-1.901-.5-.319-1.005-.631-1.518-.929a34.656 34.656 0 0 0-3.191-1.64 38.396 38.396 0 0 0-3.335-1.322 33.146 33.146 0 0 0-3.437-.981c-1.181-.268-.959-.267-2.155-.454 0 0 12.138 12-4.326 37.353" fill="#ff3646"/><path d="M293.587 121.393c0 7.119-5.771 12.89-12.89 12.89-7.119 0-12.89-5.771-12.89-12.89 0-7.119 5.771-12.89 12.89-12.89 7.119.001 12.89 5.772 12.89 12.89z" fill="#ffd564"/><path d="M281.163 123.129l-3.573 9.142h3.229l-7.695 25.065h13.398l8.932-35.869-14.291 1.662zM299.92 121.467l-3.573 9.142h3.229l-6.802 26.727h13.398l8.932-38.362-15.184 2.493z" fill="#fa3f41" stroke="#fff" stroke-width=".921" stroke-miterlimit="10"/></g><g><path d="M65.605 164.064c4.666 0 8.449 3.819 8.449 8.53 0 4.711-3.783 8.53-8.449 8.53s-8.449-3.819-8.449-8.53c0-4.711 3.782-8.53 8.449-8.53z" fill="#fff" stroke="#4f4f4f" stroke-width=".457" stroke-miterlimit="10"/><path d="M60.596 166.027c.924-1.249 2.759-1.814 2.759-1.814 1.672-.219 2.854.045 2.854.045l-.466 1.822c-1.5.158-3.768 1.162-3.768 1.162l-1.379-1.215zM61.294 170.753s2.121 2.112 2.768 2.482c0 0-.802 2.614-.905 3.459 0 0-2.233.143-3.578-.438 0 0-.811-1.358-.94-3.549 0-.001 1.62-1.532 2.655-1.954zM65.701 179.07s2.448-.211 3.716-1.241c0 0 .621.845 1.293 1.32 0 0-1.33 1.265-2.4 1.546 0 0-1.17.603-3.007.291.001 0 .216-.86.398-1.916zM68.537 168.482s-.517 2.482-.828 3.485c0 0 1.837 1.558 2.664 2.403 0 0 1.77-1.045 2.029-1.863 0 0 .544-1.985-.516-3.648 0-.001-1.564-.879-3.349-.377z" fill="#4f4f4f"/><path d="M52.013 227.816c-4.427-1.13-7.586-1.633-10.243-1.633-2.334 0-4.307.388-6.209 1.22l-.091.04-.077-.063c-4.333-3.531-10.391-4.72-14.71-5.097l-.203-.018.061-.194c1.444-4.609 1.166-7.317-4.318-10.243l-.132-.07.058-.138c2.675-6.364.332-12.303-2.105-16.164l-.08-.128.121-.091c4.446-3.335 7.082-6.519 8.295-10.02l.057-.164.161.067c3.703 1.54 7.305 2.321 10.705 2.32 6.66 0 12.308-2.997 16.787-8.908l.111-.146.133.126c3.188 3.034 6.172 5.024 11.191 5.572l.128.014.017.127c.363 2.736 1.586 7.919 5.702 11.886l.117.113-.112.118c-4.929 5.195-8.414 12.552-3.411 17.621l.086.087-.059.107c-1.773 3.213-5.668 9.257-11.843 13.634l-.062.044-.075-.019z" fill="#adadad"/><path d="M63.848 214.079c-5.166-5.235-1.453-12.725 3.409-17.849-4.053-3.906-5.346-8.927-5.751-11.982-5.14-.561-8.139-2.621-11.286-5.616-8.848 11.677-20.432 9.656-27.686 6.64-1.201 3.469-3.84 6.714-8.351 10.097 2.344 3.715 4.859 9.791 2.117 16.315 5.674 3.028 5.83 5.862 4.397 10.436 4.526.394 10.494 1.625 14.799 5.133 4.259-1.864 8.996-1.524 16.557.405 6.15-4.358 10.038-10.395 11.795-13.579z" fill="#fff"/><path d="M50.22 178.633c-2.706-2.574-5.523-5.837-9.914-9.433-11.992-9.722-27.774-8.327-18.844 2.172 1.902 5.356 2.497 9.787 1.072 13.901 7.253 3.015 18.838 5.036 27.686-6.64z" fill="#3e3f40"/><path d="M77.994 222.772c-.575-3.593-2.56-3.155-7.972-5.068-2.794-.988-4.795-2.227-6.174-3.625-1.757 3.184-5.645 9.221-11.794 13.579 1.289.329 2.657.702 4.122 1.12 9.973 2.847 22.132-4.045 21.818-6.006z" fill="#ff3627"/><path d="M18.365 228.904c-1.726 10.513 2.16 10.366 9.461 4.229 2.724-2.846 5.112-4.76 7.671-5.88-4.305-3.508-10.272-4.738-14.799-5.133-.599 1.911-1.471 4.123-2.333 6.784z" fill="#358ef8"/><path d="M67.257 196.23a29.15 29.15 0 0 1 3.49-3.141c9.871-9.509 8.033-11.138-5.798-8.687a28.306 28.306 0 0 1-3.443-.154c.405 3.056 1.698 8.076 5.751 11.982z" fill="#57c834"/><path d="M14.183 195.37a56.79 56.79 0 0 1-3.235 2.247c-11.421 5.552-11.972 7.253-1.291 11.256 2.78.989 4.951 1.909 6.643 2.812 2.743-6.525.228-12.601-2.117-16.315z" fill="#ff9b24"/><path d="M27.985 206.121s17.636 12.548 26.816-4.344l.725 1.448s-7.822 19.29-27.541 4.344v-1.448z" fill="#3e3f40"/><path d="M41.179 196.052c1.559-.364 3.081.446 3.4 1.809.319 1.363-.687 2.762-2.246 3.126-1.559.364-3.081-.446-3.4-1.808-.319-1.364.686-2.763 2.246-3.127z" fill="#303030"/><path d="M45.742 177.886c4.603 0 8.335 3.727 8.335 8.325 0 4.598-3.732 8.325-8.335 8.325-4.603 0-8.335-3.728-8.335-8.325 0-4.597 3.732-8.325 8.335-8.325zM29.072 182.954c4.603 0 8.335 3.727 8.335 8.325 0 4.598-3.732 8.325-8.335 8.325-4.603 0-8.335-3.727-8.335-8.325 0-4.597 3.732-8.325 8.335-8.325z" fill="#3e3f40"/><path d="M46.467 176.439c4.603 0 8.335 3.727 8.335 8.325 0 4.598-3.732 8.325-8.335 8.325s-8.335-3.727-8.335-8.325c0-4.598 3.731-8.325 8.335-8.325zM29.797 181.506c4.603 0 8.335 3.727 8.335 8.325 0 4.598-3.732 8.325-8.335 8.325-4.603 0-8.335-3.728-8.335-8.325 0-4.597 3.732-8.325 8.335-8.325z" fill="#fff"/><path d="M48.279 180.058a2.173 2.173 0 1 1 0 4.344 2.173 2.173 0 1 1 0-4.344zM31.609 185.126a2.173 2.173 0 1 1 0 4.344 2.173 2.173 0 1 1 0-4.344z" fill="#303030"/></g><g><path d="M146 163.84c4.695 0 8.502 3.843 8.502 8.583s-3.806 8.583-8.502 8.583c-4.695 0-8.502-3.843-8.502-8.583.001-4.74 3.807-8.583 8.502-8.583z" fill="#fff" stroke="#4f4f4f" stroke-width=".462" stroke-miterlimit="10"/><path d="M140.96 165.815c.929-1.257 2.776-1.825 2.776-1.825 1.683-.22 2.872.045 2.872.045l-.469 1.833c-1.51.159-3.791 1.169-3.791 1.169l-1.388-1.222zM141.663 170.571s2.134 2.125 2.785 2.497c0 0-.807 2.63-.911 3.48 0 0-2.246.144-3.6-.44 0 0-.816-1.366-.946-3.571 0 0 1.631-1.541 2.672-1.966zM146.097 178.939s2.464-.213 3.739-1.249c0 0 .625.85 1.301 1.328 0 0-1.338 1.272-2.415 1.555 0 0-1.178.606-3.025.293 0 .002.218-.864.4-1.927zM148.951 168.286s-.521 2.497-.833 3.507c0 0 1.848 1.567 2.681 2.418 0 0 1.781-1.051 2.041-1.875 0 0 .548-1.997-.519-3.671 0-.001-1.574-.884-3.37-.379z" fill="#4f4f4f"/><path d="M132.324 227.989c-4.455-1.137-7.634-1.644-10.306-1.644-2.349 0-4.334.39-6.248 1.227l-.092.041-.078-.063c-4.36-3.553-10.455-4.75-14.801-5.128l-.204-.018.061-.195c1.453-4.637 1.173-7.362-4.345-10.307l-.132-.07.058-.139c2.692-6.404.334-12.379-2.118-16.264l-.081-.129.121-.091c4.474-3.356 7.126-6.559 8.346-10.082l.057-.165.162.067c3.726 1.549 7.35 2.335 10.772 2.335 6.702 0 12.385-3.016 16.891-8.963l.111-.147.133.127c3.208 3.052 6.211 5.055 11.261 5.606l.128.014.017.128c.365 2.753 1.596 7.968 5.738 11.96l.118.113-.112.119c-4.96 5.227-8.466 12.63-3.432 17.731l.086.088-.059.108c-1.784 3.233-5.704 9.315-11.916 13.718l-.062.044-.074-.021z" fill="#adadad"/><path d="M144.232 214.166c-5.198-5.268-1.462-12.805 3.43-17.96-4.078-3.93-5.379-8.982-5.787-12.057-5.172-.565-8.19-2.637-11.356-5.65-8.903 11.749-20.559 9.716-27.858 6.681-1.209 3.491-3.864 6.755-8.403 10.16 2.359 3.738 4.889 9.852 2.13 16.416 5.71 3.047 5.866 5.899 4.424 10.501 4.555.397 10.559 1.635 14.891 5.165 4.285-1.875 9.052-1.534 16.66.407 6.189-4.384 10.102-10.459 11.869-13.663z" fill="#fff"/><path d="M130.52 178.5c-2.722-2.59-5.558-5.873-9.975-9.492-12.067-9.783-27.946-8.379-18.961 2.185 1.914 5.39 2.513 9.848 1.079 13.988 7.297 3.034 18.954 5.068 27.857-6.681z" fill="#3e3f40"/><path d="M98.467 229.083c-1.736 10.579 2.174 10.43 9.52 4.255 2.741-2.864 5.143-4.789 7.718-5.916-4.331-3.53-10.336-4.768-14.891-5.165-.603 1.924-1.48 4.15-2.347 6.826z" fill="#358ef8"/><path d="M147.662 196.207a29.25 29.25 0 0 1 3.512-3.16c9.932-9.569 8.083-11.207-5.834-8.741a28.43 28.43 0 0 1-3.464-.155c.407 3.074 1.709 8.126 5.786 12.056z" fill="#57c834"/><path d="M94.259 195.341a57.135 57.135 0 0 1-3.255 2.261c-11.492 5.586-12.047 7.298-1.299 11.326 2.797.995 4.982 1.921 6.685 2.829 2.759-6.565.228-12.678-2.131-16.416z" fill="#ff9b24"/><path d="M108.147 206.159s17.746 12.627 26.983-4.371l.729 1.457s-7.87 19.41-27.713 4.371v-1.457z" fill="#3e3f40"/><path d="M121.422 196.027c1.569-.366 3.101.449 3.421 1.82.321 1.371-.691 2.779-2.26 3.146-1.569.366-3.101-.449-3.421-1.82-.32-1.371.691-2.78 2.26-3.146z" fill="#303030"/><path d="M126.014 177.749c4.632 0 8.387 3.751 8.387 8.377 0 4.627-3.755 8.377-8.387 8.377-4.632 0-8.387-3.751-8.387-8.377 0-4.626 3.755-8.377 8.387-8.377zM109.241 182.848c4.632 0 8.387 3.751 8.387 8.377 0 4.627-3.755 8.377-8.387 8.377-4.632 0-8.387-3.751-8.387-8.377 0-4.626 3.755-8.377 8.387-8.377z" fill="#3e3f40"/><path d="M126.743 176.292c4.632 0 8.387 3.751 8.387 8.377 0 4.627-3.755 8.377-8.387 8.377s-8.387-3.751-8.387-8.377c.001-4.626 3.755-8.377 8.387-8.377zM109.97 181.391c4.632 0 8.387 3.751 8.387 8.377 0 4.627-3.755 8.377-8.387 8.377-4.632 0-8.387-3.751-8.387-8.377 0-4.626 3.755-8.377 8.387-8.377z" fill="#fff"/><path d="M128.566 179.934c1.208 0 2.188.979 2.188 2.185a2.187 2.187 0 0 1-4.376 0c0-1.207.98-2.185 2.188-2.185zM111.793 185.033c1.208 0 2.188.978 2.188 2.185s-.98 2.185-2.188 2.185a2.187 2.187 0 0 1-2.188-2.185c0-1.206.98-2.185 2.188-2.185z" fill="#303030"/><path d="M131.628 235.762l-.753-6.375h12.662l.493-2.096-12.044-.031 4.415-18.771H158l-6.415 27.274h-19.957zm13.915-14.904l1.402-5.962h-2.411l-1.402 5.962h2.411z" fill="#ff3627"/><path d="M150.281 234.117l5.641-23.982h-18.218l-3.642 15.485 12.044.031-1.266 5.382h-12.114l.364 3.084h17.191zm-3.434-11.614h-5.792l2.177-9.253h5.792l-2.177 9.253z" fill="#fff" stroke="#ff3627" stroke-width=".677" stroke-miterlimit="10"/></g><g><path d="M197.712 162.974c19.563 0 35.421 16.01 35.421 35.758 0 19.749-15.859 35.758-35.421 35.758-19.563 0-35.421-16.01-35.421-35.758s15.858-35.758 35.421-35.758z" fill="#fff" stroke="#4f4f4f" stroke-width="1.827" stroke-miterlimit="10"/><path d="M173.543 212.935l-3.607 8.74M223.684 184.531l1.082-8.74M169.936 199.825L162 194.727M185.808 214.392l15.151 13.11M187.972 202.01l21.644-7.283M195.614 169.236l17.609 13.838M182.738 174.334l-3.423 21.121" fill="#4f4f4f" stroke="#4f4f4f" stroke-width=".609" stroke-miterlimit="10"/><path d="M176.712 171.204c3.872-5.235 11.566-7.605 11.566-7.605 7.011-.917 11.966.189 11.966.189l-1.952 7.637c-6.289.664-15.795 4.87-15.795 4.87l-5.785-5.091zM179.64 191.016s8.892 8.855 11.604 10.405c0 0-3.361 10.958-3.795 14.5 0 0-9.36.6-14.999-1.835 0 0-3.399-5.691-3.941-14.879-.001 0 6.793-6.42 11.131-8.191zM198.114 225.883s10.264-.886 15.578-5.202c0 0 2.603 3.542 5.422 5.534 0 0-5.576 5.301-10.061 6.48 0 0-4.906 2.526-12.604 1.221 0 .001.906-3.605 1.665-8.033zM210.005 181.498s-2.169 10.404-3.47 14.611c0 0 7.699 6.53 11.17 10.073 0 0 7.42-4.381 8.504-7.812 0 0 2.282-8.321-2.164-15.295 0-.001-6.557-3.68-14.04-1.577z" fill="#4f4f4f"/><path d="M226.209 196.912l7.215 5.827" fill="#4f4f4f" stroke="#4f4f4f" stroke-width=".609" stroke-miterlimit="10"/><path d="M220.513 227.512l-6.014 8.463c.548 1.029 2.096 1.263 2.868.177l6.254-8.8c.032-.045.077-.075.112-.116l-1.402-.377a1.69 1.69 0 0 0-1.818.653zM221.758 208.298l1.477-.497c-.076-.066-.158-.123-.223-.203l-6.785-8.398c-.859-1.063-2.445-.691-2.886.434l6.563 8.123a1.688 1.688 0 0 0 1.854.541zM237.66 226.864l-6.437-8.667a1.69 1.69 0 0 1-.06-1.93l5.89-9.048c.874-1.343-.437-3.036-1.956-2.525l-1.458.491c.582.515.816 1.412.307 2.194l-5.89 9.048a1.689 1.689 0 0 0 .06 1.93l6.437 8.667c.523.704.397 1.551-.076 2.107l1.387.373c1.547.417 2.751-1.353 1.796-2.64z" fill="#f18202"/><path d="M213.748 224.477a1.691 1.691 0 0 0-1.183-1.527l-10.302-3.228c-1.529-.479-1.596-2.619-.099-3.192l10.083-3.858a1.69 1.69 0 0 0 1.086-1.597l-.113-10.795a1.704 1.704 0 0 1 .12-.646l-.222-.274c-1.007-1.247-3.022-.523-3.005 1.08l.113 10.795a1.692 1.692 0 0 1-1.086 1.597l-10.083 3.858c-1.497.573-1.431 2.713.099 3.192l10.302 3.228a1.69 1.69 0 0 1 1.183 1.527l.553 10.782c.082 1.601 2.138 2.199 3.066.893l.239-.337a1.695 1.695 0 0 1-.198-.716l-.553-10.782zM224.865 208.138l8.774-2.953a1.648 1.648 0 0 0-1.649-.331l-8.756 2.947c.447.385 1.059.53 1.631.337zM223.733 227.236l9.022 2.428a1.648 1.648 0 0 0 1.72-.534l-9.038-2.432a1.68 1.68 0 0 0-1.704.538z" fill="#f5c22a"/><path d="M234.552 227.024l-6.437-8.667a1.69 1.69 0 0 1-.06-1.93l5.89-9.048c.509-.782.275-1.679-.307-2.194l-8.774 2.953a1.674 1.674 0 0 1-1.631-.337l-1.477.497c-.67.225-1.41.01-1.854-.54l-6.563-8.123a1.72 1.72 0 0 0-.12.646l.113 10.795a1.692 1.692 0 0 1-1.086 1.597l-10.083 3.858c-1.497.573-1.431 2.713.099 3.192l10.302 3.228a1.69 1.69 0 0 1 1.183 1.527l.553 10.782c.014.269.087.508.198.716l6.014-8.463a1.69 1.69 0 0 1 1.817-.653l1.402.377a1.678 1.678 0 0 1 1.705-.537l9.038 2.432c.475-.557.601-1.404.078-2.108z" fill="#f3a618"/></g><g><path d="M303.057 224.252c-13.967 13.976-36.614 13.976-50.581 0-13.967-13.976-13.968-36.637 0-50.613 13.967-13.976 36.613-13.976 50.581 0 13.967 13.976 13.967 36.636 0 50.613z" fill="#ffa34a" stroke="#c16527" stroke-width="1.845" stroke-miterlimit="10"/><path d="M242.285 204.287a35.348 35.348 0 0 1-.211-1.455l-.008-.062.016-.06a44.576 44.576 0 0 1 4.363-10.47 37.183 37.183 0 0 1 4.019-5.25 13.274 13.274 0 0 0-.24-.436c-1.062-1.84-2.551-3.382-4.193-4.342l-.261-.153.14-.268c.254-.486.514-.958.772-1.403l.159-.273.274.156c1.965 1.12 3.681 2.87 4.97 5.067a34.675 34.675 0 0 1 3.809-3.161c.622-.43 1.278-.857 2.052-1.337-1.399-3.671-2.377-7.043-2.908-10.027l-.033-.185.146-.118c.477-.385.963-.757 1.444-1.107l.423-.308.078.517c.201 1.337.519 2.813.943 4.386a63.214 63.214 0 0 0 1.851 5.687c1.953-1.109 4.099-2.189 6.701-3.373-.969-2.399-.895-5.133.212-7.209 1.524-2.611 4.075-4.42 8.036-5.702a23.554 23.554 0 0 1 3.976-.897l.027-.004.027.001c.624.019 1.256.055 1.879.107l.021.631c-1.955.302-3.785.808-5.44 1.504-2.293.941-5.287 2.635-6.542 5.364-.818 1.561-.863 3.384-.141 5.303 9.412-3.905 18.198-5.21 26.12-3.879 4.368.964 8.375 2.741 11.603 5.141l.037.027.027.036c.251.333.503.682.771 1.066l-.441.444c-3.452-2.361-7.728-3.924-12.364-4.52-7.463-1.257-15.783-.02-24.746 3.676a14.643 14.643 0 0 0 3.394 3.669c3.302 2.599 7.343 4.394 11.251 6.13l1.028.458c9.159 3.953 17.896 8.125 24.099 15.642.31.418.593.85.851 1.297.726 1.259 1.29 2.687 1.724 4.365l.023.088-.027.087c-.092.292-.187.583-.287.872l-.274.796-.321-.777a20.416 20.416 0 0 0-1.18-2.43c-.66-1.144-1.377-2.075-2.192-2.845l-.014-.014-.013-.015c-5.896-7.154-14.38-11.192-23.288-15.031l-1.269-.566c-3.911-1.74-7.956-3.539-11.496-6.314-1.681-1.325-3.046-2.844-4.06-4.52-2.642 1.198-4.902 2.34-6.893 3.484 1.734 4.254 3.999 8.812 6.735 13.553a157.649 157.649 0 0 0 3.136 5.191c11.096 17.596 20.934 25.922 24.648 28.684l.394.293-.429.24a37.35 37.35 0 0 1-1.568.826l-.178.088-.157-.121c-4.663-3.592-14.059-12.113-24.594-28.821a163.935 163.935 0 0 1-3.181-5.265c-2.717-4.709-4.981-9.248-6.736-13.504-.606.381-1.119.718-1.596 1.049a32.878 32.878 0 0 0-4.066 3.449c1.379 3.531 1.615 7.187 1.844 10.725l.064.98c.052.925.097 1.85.142 2.775.336 6.843.683 13.92 3.595 20.024a43.246 43.246 0 0 0 1.63 3.112 38.984 38.984 0 0 0 4.433 6.223l-.356.505a35.854 35.854 0 0 1-1.314-.55l-.055-.024-.042-.043c-2.332-2.361-4.447-5.128-6.284-8.224-3.12-6.581-3.471-13.714-3.81-20.612-.05-1.025-.101-2.044-.159-3.056l-.033-.52c-.202-3.214-.41-6.532-1.359-9.483a34.883 34.883 0 0 0-3.082 4.153 42.767 42.767 0 0 0-5.43 10.913l-.616-.05z" fill="#c16527"/><path d="M300.424 227.937l-6.045 8.507c.551 1.035 2.107 1.27 2.883.178l6.286-8.845c.032-.045.077-.075.113-.116l-1.41-.379a1.697 1.697 0 0 0-1.827.655zM301.675 208.626l1.484-.499c-.077-.066-.159-.123-.224-.204l-6.819-8.441c-.863-1.068-2.458-.694-2.9.437l6.596 8.165a1.7 1.7 0 0 0 1.863.542zM317.658 227.286l-6.47-8.711a1.698 1.698 0 0 1-.06-1.94l5.92-9.094c.879-1.35-.439-3.051-1.966-2.537l-1.466.493c.585.518.82 1.419.308 2.205l-5.92 9.094a1.698 1.698 0 0 0 .06 1.94l6.47 8.711c.526.708.399 1.559-.077 2.118l1.394.375c1.557.419 2.768-1.36 1.807-2.654z" fill="#f18202"/><path d="M293.624 224.888a1.698 1.698 0 0 0-1.189-1.534l-10.355-3.245c-1.537-.482-1.604-2.633-.099-3.208l10.135-3.877a1.7 1.7 0 0 0 1.092-1.605l-.114-10.85a1.716 1.716 0 0 1 .12-.649l-.223-.276c-1.012-1.253-3.038-.525-3.021 1.086l.114 10.851a1.7 1.7 0 0 1-1.092 1.605l-10.135 3.877c-1.505.576-1.438 2.727.099 3.208l10.355 3.245a1.7 1.7 0 0 1 1.189 1.534l.556 10.837c.083 1.609 2.149 2.21 3.082.897l.24-.338a1.71 1.71 0 0 1-.199-.72l-.555-10.838zM304.798 208.465l8.819-2.968a1.654 1.654 0 0 0-1.658-.332l-8.8 2.962a1.687 1.687 0 0 0 1.639.338zM303.66 227.66l9.069 2.441a1.66 1.66 0 0 0 1.729-.536l-9.084-2.445a1.689 1.689 0 0 0-1.714.54z" fill="#f5c22a"/><path d="M314.535 227.447l-6.47-8.711a1.698 1.698 0 0 1-.06-1.94l5.92-9.094c.512-.786.276-1.687-.308-2.205l-8.819 2.968a1.682 1.682 0 0 1-1.639-.339l-1.484.499a1.699 1.699 0 0 1-1.864-.543l-6.596-8.165a1.697 1.697 0 0 0-.12.649l.114 10.85a1.7 1.7 0 0 1-1.092 1.605l-10.135 3.877c-1.505.576-1.438 2.727.099 3.208l10.355 3.245a1.701 1.701 0 0 1 1.189 1.534l.556 10.837c.014.271.088.51.199.72l6.045-8.507a1.701 1.701 0 0 1 1.827-.657l1.41.379a1.686 1.686 0 0 1 1.714-.54l9.084 2.445c.473-.556.6-1.407.075-2.115z" fill="#f3a618"/></g><g><defs><circle id="c" cx="40" cy="280" r="38"/></defs><clipPath id="d"><use xlink:href="#c" overflow="visible"/></clipPath><g clip-path="url(#d)" fill-rule="evenodd" clip-rule="evenodd"><circle cx="38.579" cy="258.025" r="34.064" fill="#fc0"/><circle cx="19.09" cy="290.322" r="34.064" fill="#0cf"/><circle cx="60.59" cy="292.088" r="34.064" fill="#b100fe"/></g><linearGradient id="e" gradientUnits="userSpaceOnUse" x1="41.166" y1="317.925" x2="41.166" y2="249.598"><stop offset="0" stop-color="#f71b26"/><stop offset="1" stop-color="#ff8187"/></linearGradient><path d="M65.682 255.529s5.935.794 7.736 9.32l.954 29.019c.065-.022.468 5.507-4.142 8.896-4.663 2.701-21.929 12.973-22.989 13.45-1.06.477-5.019 3.328-16.215.424-6.025-2.852-16.109-7.625-17.38-8.578-5.299-3.707-5.299-8.049-5.299-8.049l-.423-34.951s1.13-5.437 4.875-6.672l25.647-8.79 27.236 5.931z" clip-path="url(#d)" fill-rule="evenodd" clip-rule="evenodd" fill="url(#e)"/><linearGradient id="f" gradientUnits="userSpaceOnUse" x1="38.863" y1="306.682" x2="38.863" y2="295.678"><stop offset="0" stop-color="#f8313c"/><stop offset="1" stop-color="#fe6d75"/></linearGradient><ellipse cx="38.863" cy="301.18" rx="9.672" ry="5.502" clip-path="url(#d)" fill-rule="evenodd" clip-rule="evenodd" fill="url(#f)"/><radialGradient id="g" cx="41.166" cy="275.876" r="20.287" gradientUnits="userSpaceOnUse"><stop offset="0" stop-color="#fff"/><stop offset="1" stop-color="#fe6d75"/></radialGradient><path d="M41.167 255.595c11.207 0 20.293 9.08 20.293 20.281 0 11.201-9.086 20.282-20.293 20.282-11.208 0-20.293-9.08-20.293-20.282-.001-11.201 9.085-20.281 20.293-20.281z" clip-path="url(#d)" fill-rule="evenodd" clip-rule="evenodd" fill="url(#g)"/><path d="M13.137 263.564l20.878 8.739c2.634 1.257 5.193 4.04 5.193 6.672v34.314c0 2.632-6.48 4.328-9.114 3.071l-16.109-8.049c-2.634-1.257-5.617-5.417-5.617-8.049v-34.42c0-2.631 1.888-3.746 4.769-2.278z" clip-path="url(#d)" fill-rule="evenodd" clip-rule="evenodd" fill="#ed121b"/><linearGradient id="h" gradientUnits="userSpaceOnUse" x1="57.122" y1="315.429" x2="57.122" y2="262.49"><stop offset="0" stop-color="#ce0109"/><stop offset="1" stop-color="#dc020b"/></linearGradient><path d="M69.151 262.823l-23.103 9.002c-2.634 1.257-5.723 3.721-5.723 6.354l.53 32.725c0 3.534 3.725 5.388 6.359 4.13l21.196-12.497c2.634-1.258 5.511-5.204 5.511-7.837l-.848-28.595c-.001-2.632-1.236-4.38-3.922-3.282z" clip-path="url(#d)" fill-rule="evenodd" clip-rule="evenodd" fill="url(#h)"/><path d="M14.552 262.379s-5.988-2.171.318-4.448c6.306-2.277 23.209-8.473 23.209-8.473s2.791-1.341 7.418-.212l20.56 6.354s4.486 2.048 1.696 5.613c0 0-.53.424-1.272.741-.742.318-20.984 7.943-20.984 7.943s-6.994 2.436-12.611.318l-18.334-7.836z" clip-path="url(#d)" fill-rule="evenodd" clip-rule="evenodd" fill="#f40104"/><linearGradient id="i" gradientUnits="userSpaceOnUse" x1="27.95" y1="307.435" x2="27.95" y2="265.072"><stop offset="0" stop-color="#ed121b"/><stop offset="1" stop-color="#fe6d75"/></linearGradient><path d="M16.663 265.072s.777 3.742 7.1 10.591c6.323 6.849 15.084 29.654 15.473 31.772v-28.701s-.071-4.413-6.359-6.99l-16.214-6.672z" clip-path="url(#d)" fill-rule="evenodd" clip-rule="evenodd" fill="url(#i)"/><linearGradient id="j" gradientUnits="userSpaceOnUse" x1="51.298" y1="304.586" x2="51.298" y2="265.506"><stop offset="0" stop-color="#fd0101"/><stop offset="1" stop-color="#fe5b5c"/></linearGradient><path d="M62.271 265.506s-9.061 5.084-11.764 20.017c-2.914 13.609-9.75 19.063-9.75 19.063l-.424-26.265s-.53-3.654 6.359-6.778l15.579-6.037z" clip-path="url(#d)" fill-rule="evenodd" clip-rule="evenodd" fill="url(#j)"/><g clip-path="url(#d)"><linearGradient id="k" gradientUnits="userSpaceOnUse" x1="21.541" y1="294.136" x2="36.9" y2="294.136"><stop offset="0" stop-color="#fefcec"/><stop offset="1" stop-color="#faba09"/></linearGradient><path d="M29.596 298.633s-1.166 1.483-.424 4.66 2.225 6.778 4.239 6.99c1.448-.141 1.413-5.26.636-7.096-.778-1.835-1.837-5.083-4.451-4.554zm7.1-3.495c-.459-1.2-2.897-1.377-3.603-2.012-.247-.424.848-5.401.848-5.401v-.953s-.615-1.017-4.239-2.436c0 0 .191-.741.424-1.271.233-.53.615-2.965 0-3.601-.615-.635-3.158-1.822-5.405-1.377 0 0-.185 1.324 2.014 1.694 0 0 .689.556-.318 3.283 0 0-.583.106-1.166-.318s-1.881-1.509-2.014-.318c-.132 1.191.265 2.648 2.755 3.389.503 1.774.106 3.813.106 3.813s.053.715-1.696-.318c-1.749-1.033-2.861-1.324-2.861.53s.318 3.071.318 3.071 2.04.424 2.861 1.165c-.239 1.139-.636 3.548-.848 4.554-.212 1.006-1.325 7.122-.318 8.049 0 0 3.003-2.93 4.027-11.332 0 0 .601-.353 1.484 0s5.97 2.895 7.63 2.754c.001.001.46-1.764.001-2.965z" fill-rule="evenodd" clip-rule="evenodd" fill="url(#k)"/></g><linearGradient id="l" gradientUnits="userSpaceOnUse" x1="10.393" y1="285.51" x2="23.995" y2="285.51"><stop offset="0" stop-color="#fefcec"/><stop offset="1" stop-color="#faba09"/></linearGradient><path d="M12.523 274.006s-.662 4.422-.106 7.308c-.662-.026-3.868.768-.53 3.813 0 0 .689 3.363 1.272 2.542.583-.821.477-2.145.636-2.118.159.027 2.835.106 2.437 1.271-.397 1.165-2.331 8.684-.424 9.849 1.908 1.165 2.649.847 2.649.847l1.272-.106s.132-.582.106-1.271c-.027-.688-1.166-9.77.53-9.214 1.696.556 3.259 1.43 3.603.106.344-1.324-2.755-2.303-3.709-2.542 0 0-.159-3.998 2.649-11.014 0 0-3.02-.794-6.147 9.638l-1.696-.636c.159-.291 1.722-3.707 1.06-6.354-.662-2.649-4.159-2.146-3.602-2.119z" clip-path="url(#d)" fill-rule="evenodd" clip-rule="evenodd" fill="url(#l)"/><path d="M30.832 287.884s.212 2.312-.212 3.389-1.996.335-2.12-.741c-.124-1.077.442-3.195.636-3.283.194-.088.212-.406.954 0 .742.405.742.635.742.635z" clip-path="url(#d)" fill-rule="evenodd" clip-rule="evenodd" fill="#fd0101"/><linearGradient id="m" gradientUnits="userSpaceOnUse" x1="66.091" y1="289.848" x2="46.3" y2="289.848"><stop offset="0" stop-color="#faba09"/><stop offset="1" stop-color="#fefcec"/></linearGradient><path d="M57.746 277.88c.005-.001-4.822 1.991-10.174 4.13-.375-.036-.848.106-.848.106s-.774-4.072 3.179-6.037c3.646-1.165 15.791-6.249 15.791-6.249l-8.478 15.039s5.553-2.118 7.524.424 1.717 5.719-.318 10.379c-2.035 4.66-13.396 12.222-18.122 14.192 0 0 10.895-10.697 12.293-14.192 1.399-3.495-.805-7.604-5.617-7.096-.039-1.239-.027-1.282 0-2.224.594-.953 4.77-8.472 4.77-8.472z" clip-path="url(#d)" fill-rule="evenodd" clip-rule="evenodd" fill="url(#m)"/><g clip-path="url(#d)"><path d="M50.08 255.503l-6.995-.212-8.266 11.968 6.889.106 2.332-3.601s7.23 1.167 10.81-2.436c2.309-4.063-4.77-5.825-4.77-5.825zm-7.206-.317h3.815l1.378-1.589h-6.571l-8.372 11.967h2.649l7.101-10.378zm-1.484-1.907l3.603.106 1.484-1.8h-6.465l-8.266 11.968 2.438.212 7.206-10.486zm-10.386 5.931c.933-1.207 3.709-.635 3.709-.635s2.098-2.955 2.226-3.071c-6.925-.757-12.128 2.135-11.559 5.19.567 3.05 6.044 3.07 6.049 3.07l1.378-2.118c-.001 0-2.736-1.229-1.803-2.436z" fill-rule="evenodd" clip-rule="evenodd" fill="#fff"/></g><g clip-path="url(#d)"><path d="M46.016 255.072l.954-.953h-5.405l-7.736 11.12H35.1l7.101-10.273 3.815.106zm-1.483-2.013l.954-.953h-5.405l-7.842 11.332h1.378l7.101-10.379h3.814zm-14.095 6.143c1.101-1.623 3.789-.874 3.815-.953l1.696-2.33s-8.266-.371-9.962 3.283c-1.696 3.654 4.319 4.104 4.875 4.13l1.06-1.589c-.004.011-2.615-.874-1.484-2.541zm18.864-3.177l-6.253-.106-7.63 11.12h5.617l2.543-3.707s7.313.988 10.598-2.33c2.119-3.742-4.875-4.977-4.875-4.977z" fill-rule="evenodd" clip-rule="evenodd" fill="#f40104"/></g><path d="M47.296 257.844l-2.225 3.177s-.239.45 2.649.212c2.888-.238 4.133-3.468-.424-3.389z" clip-path="url(#d)" fill-rule="evenodd" clip-rule="evenodd" fill="#fff"/><path d="M47.666 258.514l-1.59 2.33s2.967-.035 3.603-1.377c.283-1.024-2.013-.953-2.013-.953z" clip-path="url(#d)" fill-rule="evenodd" clip-rule="evenodd" fill="#f40104"/></g><g><path d="M200 242c20.987 0 38 17.013 38 38s-17.013 38-38 38-38-17.013-38-38 17.013-38 38-38z" fill-rule="evenodd" clip-rule="evenodd" fill="#ffd955"/><path d="M200 262.653h-12.865l-19.298 20.803h4.825l8.041-6.401h11.257l4.824-3.2-4.824 6.401h-8.041s-9.132 9.602-11.257 9.602c-1.328 0-9.149-5.151-9.649-6.401s19.406-25.229 20.906-25.604 16.081 4.8 16.081 4.8z" fill-rule="evenodd" clip-rule="evenodd" fill="#ff3646"/><path d="M176.631 255.173s11.437-1.329 22 6c0 0-3.213-8.516-20-11l-2 5z" fill-rule="evenodd" clip-rule="evenodd" fill="#ffa42b"/><path d="M186.175 247.485s15.225 7.629 19.377 22.695h5.536s-7.316-14.685-22.145-22.695h-2.768z" fill-rule="evenodd" clip-rule="evenodd" fill="#5488ff"/><path d="M196.932 250.174s13.587 7.331 18.609 22.155l7.584-.809s-7.457-14.288-22.729-21.503l-3.464.157z" fill-rule="evenodd" clip-rule="evenodd" fill="#413c39"/><path d="M209.029 252.359s15.928 10.716 19.471 27.625l7.558.016s-6.878-17.839-22.703-27.641h-4.326z" fill-rule="evenodd" clip-rule="evenodd" fill="#4bb929"/><path d="M179.12 290.103l-2.901 1.288-.747 4.295h1.598l-1.998 9.878h4.395l2.849-15.461h-3.196zm6.392 0l-2.901 1.288-.747 4.295h1.598l-1.998 9.878h4.395l2.849-15.461h-3.196zm5.882 11.928l1.638-6.717c.272-1.157-.076-1.737-1.045-1.737h-1.726l-.52 2.13h.803l-2.294 9.404h1.181c.807 0 1.29-.322 1.447-.967.17.546.53.868 1.081.967h8.373c.936.011 1.509-.415 1.72-1.278l.22-.901h-10.447c-.351-.131-.495-.432-.431-.901zm.865-9.322c.363 0 .716-.145 1.06-.434.343-.289.564-.636.663-1.04.096-.393.043-.734-.159-1.024a.977.977 0 0 0-.848-.434c-.374 0-.732.145-1.075.434-.343.29-.563.631-.658 1.024-.099.404-.047.751.155 1.04.201.289.489.434.862.434zm9.3 4.456h1.817l.519-2.13h-3.361l.439-1.802h2.952l.519-2.13h-2.952l.364-1.491h-2.468l-.364 1.491h-1.363l.543-1.294h-2.074a4.828 4.828 0 0 1-1.572 2.163l-.58 2.441a4.233 4.233 0 0 0 2.271-1.18h1.09c.777 0 1.067.404.87 1.212l-.144.59h-4.027l-.519 2.13H198.273c.545 0 .739.322.582.967l-.607 2.49c-.251 1.027.102 1.546 1.059 1.556h2.968l.519-2.13h-1.575c-.242 0-.33-.136-.263-.409l.603-2.474zm-6.318 5.145l1.833-4.069h-2.256l-1.833 4.069h2.256zm17.292-12.661l1.505-6.074h10.537l2.258-5.315h-16.559l-3.763 15.185 4.516 1.519s4.946-4.664 6.774-.759c1.828 3.905-2.796 8.46-5.269 6.833-2.473-1.627-3.011-3.037-3.011-3.037l-6.021.759s1.129 8.352 8.279 8.352 11.505-3.254 12.795-9.111c1.292-5.857-2.149-13.342-12.041-8.352z" fill-rule="evenodd" clip-rule="evenodd" fill="#504116"/></g><g><path d="M280 242c20.987 0 38 17.013 38 38s-17.013 38-38 38-38-17.013-38-38 17.013-38 38-38z" fill-rule="evenodd" clip-rule="evenodd" fill="#f8cd5b"/><defs><circle id="n" cx="280" cy="280" r="35.75"/></defs><clipPath id="o"><use xlink:href="#n" overflow="visible"/></clipPath><g clip-path="url(#o)"><path d="M280 244.25c19.744 0 35.75 16.006 35.75 35.75s-16.006 35.75-35.75 35.75-35.75-16.006-35.75-35.75 16.006-35.75 35.75-35.75z" fill-rule="evenodd" clip-rule="evenodd" fill="#efba2d"/></g><linearGradient id="p" gradientUnits="userSpaceOnUse" x1="266.736" y1="291.273" x2="266.736" y2="250.359"><stop offset="0" stop-color="#fff"/><stop offset=".094" stop-color="#f9efe8"/><stop offset=".276" stop-color="#fff"/><stop offset="1" stop-color="#fff"/></linearGradient><path d="M249.156 255.424l28.048-5.036a1.37 1.37 0 0 1 1.616 1.072l6.554 33.12a1.376 1.376 0 0 1-1.058 1.629l-28.048 5.036a1.37 1.37 0 0 1-1.616-1.072l-6.554-33.12a1.375 1.375 0 0 1 1.058-1.629z" clip-path="url(#o)" fill-rule="evenodd" clip-rule="evenodd" fill="url(#p)" stroke="#e5b126" stroke-miterlimit="10"/><linearGradient id="q" gradientUnits="userSpaceOnUse" x1="295.337" y1="291.5" x2="295.337" y2="251.787"><stop offset="0" stop-color="#fff"/><stop offset=".094" stop-color="#f9efe8"/><stop offset=".276" stop-color="#fff"/><stop offset="1" stop-color="#fff"/></linearGradient><path d="M285.497 251.807l26.111 5.244a1.32 1.32 0 0 1 1.083 1.529l-5.966 31.825a1.338 1.338 0 0 1-1.548 1.075l-26.111-5.244a1.32 1.32 0 0 1-1.083-1.529l5.966-31.825c.128-.719.821-1.2 1.548-1.075z" clip-path="url(#o)" fill-rule="evenodd" clip-rule="evenodd" fill="url(#q)" stroke="#e5b126" stroke-miterlimit="10"/><g clip-path="url(#o)"><path d="M260.832 266.782c.697.842 1.62 1.936 1.82 2.067.326.213 4.167-1.108-2.71-4.903l-.878-2.797a1.392 1.392 0 0 0-1.745-.893 1.373 1.373 0 0 0-.893 1.732l1.796 5.72c-.535.925-2.44 4.406-1.663 5.803.895 1.608 2.123.921 2.69-2.53l2.429 7.735a1.392 1.392 0 0 0 1.745.893 1.373 1.373 0 0 0 .893-1.732l-3.484-11.095zm9.114 4.456l7.879-3.133a.932.932 0 0 0 .514-1.219.943.943 0 0 0-1.22-.529s-1.009.232-2.463.592c.191-1.767.559-7.344-2.313-8.161-1.153-.328-2.644-.121-4.148.316l-.174-1.207a1.423 1.423 0 0 0-1.591-1.21 1.39 1.39 0 0 0-1.188 1.583l.264 1.827c-1.893.835-3.447 1.774-3.842 2.09-.862.691-.26 1.976 1.095 1.607.787-.215 1.98-.852 3.074-1.421l.976 6.769c-1.257.424-2.238.828-2.626 1.155-1.579 1.329-1.207 2.139-1.012 2.622a.943.943 0 0 0 1.22.529l2.875-1.143.528 3.658a1.423 1.423 0 0 0 1.591 1.21 1.39 1.39 0 0 0 1.188-1.583l-.627-4.352zm-1.446-10.022c1.422-.432 3.811-.616 3.507 6.408-.815.215-1.66.445-2.484.681l-1.023-7.089zm9.037 9.806c-2.137-.325-4.764-.314-6.483.864 0 0 2.403 1.714 5.891 1.588s2.729-2.126.592-2.452z" fill-rule="evenodd" clip-rule="evenodd" fill="#506ecb"/></g><linearGradient id="r" gradientUnits="userSpaceOnUse" x1="280.895" y1="300.935" x2="280.895" y2="263.325" gradientTransform="rotate(3.032 -29.993 37.974)"><stop offset="0" stop-color="#fff"/><stop offset=".094" stop-color="#f9efe8"/><stop offset=".276" stop-color="#fff"/><stop offset="1" stop-color="#fff"/></linearGradient><path d="M255.794 278.908l25.187 1.44a1.413 1.413 0 0 1 1.348 1.476l-1.792 34.636a1.414 1.414 0 0 1-1.47 1.355l-25.187-1.44a1.413 1.413 0 0 1-1.348-1.476l1.792-34.636a1.415 1.415 0 0 1 1.47-1.355z" clip-path="url(#o)" fill-rule="evenodd" clip-rule="evenodd" fill="url(#r)" stroke="#e5b126" stroke-miterlimit="10"/><g clip-path="url(#o)"><path d="M296.836 258.528c-3.508-.731-3.83-.739-6.533 1.436-2.703 2.176-4.524 8.158-2.151 9.565.476.282 1.23.62 2.149.98l-5.264 2.788s.563 3.381 3.606 1.856a24.616 24.616 0 0 0 5.082-3.446c.156.05.309.099.467.148l-1.445 5.196a1.472 1.472 0 0 0 1.064 1.839 1.58 1.58 0 0 0 1.885-1.112l.799-2.874c.388.883 2.048 4.555 2.868 4.693.932.157 4.067-2.515 1.031-3.982-2.488-1.202-2.865-1.758-3.554-1.951l.268-.964c2.397.645 4.694 1.136 6.123 1.224 3.601.22 1.731-2.093.466-2.553-.701-.255-3.115-.67-5.876-1.236l1.567-5.635a1.472 1.472 0 0 0-1.064-1.839 1.58 1.58 0 0 0-1.885 1.112l-1.588 5.711c-1.287-.304-2.547-.639-3.652-1.004-4.412-1.456 2.707-8.296 3.276-8.089.569.207 11.472 2.538 11.472 2.538 5.165-1.823-5.603-3.67-9.111-4.401z" fill-rule="evenodd" clip-rule="evenodd" fill="#506ecb"/></g><g clip-path="url(#o)"><path d="M269.609 294.721a.844.844 0 0 0-.788-.897l-3.255-.249-.103-5.451c-.027-1.435-.983-2.551-2.134-2.493-1.152.058-2.063 1.268-2.036 2.703l.093 4.922-2.81-.215a.848.848 0 0 0-.919.766.844.844 0 0 0 .788.897l2.972.227.088 4.646-2.961.895c-1.776 1.649 1.649 1.731 1.649 1.731s.545-.142 1.355-.368l.068 3.57c.027 1.435.983 2.551 2.134 2.493 1.152-.058 2.063-1.268 2.036-2.703l-.088-4.636c1.333-.458 2.556-.946 3.177-1.369 1.808-1.231-.508-1.689-.508-1.689l-2.711.82-.058-3.072 3.093.236a.842.842 0 0 0 .918-.764zm3.486-8.724l-.591-.022a1.41 1.41 0 0 0-1.463 1.357l-.729 19.421a1.41 1.41 0 0 0 1.357 1.463l.591.022a1.41 1.41 0 0 0 1.463-1.357l.729-19.421a1.41 1.41 0 0 0-1.357-1.463z" fill-rule="evenodd" clip-rule="evenodd" fill="#ed5133"/><path d="M277.093 300.587c-.512-.596-.634-1.247-.728-1.907-.022-.148-.152-.135-.157.001-.014.351-.051.817-.588 1.334-.576.553-1.457.424-2.34-.603-.953-1.11-1.026-2.54-.316-3.222.691-.664 1.936-.622 2.507-.364.2.089.345.137.413.072.048-.046.014-.126-.057-.208-.794-.925-2.536-1.464-3.167-1.305-.02.005-.227.002-.061-.244.136-.203 1.809-1.351 2.387-1.455.075-.013.085.102.049.159-.452.714.623 2.22 1.082 2.754.071.082.143.126.2.07.067-.065.044-.174.012-.293-.194-.695-.233-1.82.535-2.557.768-.737 2.155-.346 2.932.558.777.904.951 2.086.299 2.713-.384.369-1.016.489-1.407.564-.103.024-.08.152.031.139.686-.078 1.138.163 1.615.717.318.37.643 1.482-.585 2.662-1.228 1.181-2.091 1.073-2.656.415z" fill-rule="evenodd" clip-rule="evenodd" fill="#1bb36e"/></g><linearGradient id="s" gradientUnits="userSpaceOnUse" x1="293.815" y1="320.757" x2="293.815" y2="278.168"><stop offset="0" stop-color="#fff"/><stop offset=".094" stop-color="#f9efe8"/><stop offset=".276" stop-color="#fff"/><stop offset="1" stop-color="#fff"/></linearGradient><path d="M286.012 278.206l24.567 6.077a1.412 1.412 0 0 1 1.045 1.703l-8.304 33.678a1.416 1.416 0 0 1-1.7 1.054l-24.567-6.078a1.411 1.411 0 0 1-1.045-1.703l8.304-33.678a1.416 1.416 0 0 1 1.7-1.053z" clip-path="url(#o)" fill-rule="evenodd" clip-rule="evenodd" fill="url(#s)" stroke="#e5b126" stroke-miterlimit="10"/><g clip-path="url(#o)"><path d="M303.613 292.506l-7.031-1.863.105-.309c.282-.834-.143-1.737-.95-2.016-.807-.279-1.689.17-1.971 1.004l-.178.528-6.3-1.669c-.451-.119-.933.272-1.078.874-.144.602.104 1.187.555 1.307l6.103 1.617-.293.868c-.1.297-.108.602-.043.885-2.504-.187-5.123.141-5.403.716-3.065 3.747-1.382 6.259.177 7.205-1.054 1.011-2.619 2.485-2.911 4.381-.385 2.499.857 2.213 1.694 1.978.837-.234 4.211-5.102 4.211-5.102s-.13-.264-.33-.61c1.249.399 2.778.822 4.263 1.152-.455 1.165-2.242 6.083-.291 6.725 2.216.729 6.403 1.457 6.483-.833.079-2.291-3.53-.729-3.53-.729s-.73-2.901.141-4.673c1.042.117 1.909.118 2.393-.082 2.153-.888 4.78-3.431 2.588-5.847-1.882-2.074-4.248-3.21-6.682-3.819.064-.104.12-.214.161-.335l.367-1.086 7.227 1.915c.451.119.933-.272 1.078-.874s-.104-1.189-.555-1.308zm-10.19 9.981l-3.598-3.894c.012-.069.027-.139.036-.206l4.473-3.395 3.528 4.57-4.439 2.925z" fill-rule="evenodd" clip-rule="evenodd" fill="#ed5133"/></g></g><g><path d="M124.8 298.44l-11.419 16.066c1.04 1.954 3.98 2.398 5.446.336l11.873-16.706c.061-.085.146-.142.213-.219l-2.663-.717a3.21 3.21 0 0 0-3.45 1.24zM127.162 261.967l2.803-.943c-.145-.125-.301-.233-.424-.385l-12.881-15.941c-1.63-2.018-4.643-1.311-5.479.825l12.46 15.42a3.213 3.213 0 0 0 3.521 1.024zM157.354 297.21l-12.221-16.453a3.208 3.208 0 0 1-.113-3.664l11.183-17.175c1.66-2.55-.829-5.763-3.714-4.792l-2.768.931c1.104.978 1.548 2.681.582 4.164l-11.183 17.175a3.21 3.21 0 0 0 .113 3.664l12.221 16.453c.993 1.336.753 2.944-.145 3.999l2.634.709c2.939.792 5.226-2.568 3.411-5.011z" fill="#f18202"/><path d="M111.955 292.68a3.211 3.211 0 0 0-2.246-2.898l-19.559-6.128c-2.904-.91-3.029-4.972-.187-6.06l19.144-7.323a3.21 3.21 0 0 0 2.063-3.031l-.215-20.493a3.248 3.248 0 0 1 .227-1.226l-.421-.521c-1.912-2.367-5.738-.992-5.706 2.05l.215 20.493a3.21 3.21 0 0 1-2.063 3.031l-19.144 7.323c-2.842 1.087-2.717 5.15.187 6.059l19.559 6.128a3.21 3.21 0 0 1 2.246 2.898l1.05 20.467c.156 3.039 4.059 4.175 5.822 1.694l.454-.639a3.222 3.222 0 0 1-.376-1.359l-1.05-20.465zM133.062 261.663l16.658-5.606a3.126 3.126 0 0 0-3.131-.628l-16.623 5.594c.848.731 2.009 1.006 3.096.64zM130.913 297.916l17.13 4.61c1.331.358 2.523-.139 3.266-1.013l-17.159-4.617c-1.195-.322-2.437.099-3.237 1.02z" fill="#f5c22a"/><path d="M151.454 297.514l-12.221-16.453a3.208 3.208 0 0 1-.113-3.664l11.183-17.175c.966-1.484.522-3.187-.582-4.164l-16.658 5.606c-1.087.366-2.249.091-3.097-.639l-2.803.943a3.21 3.21 0 0 1-3.52-1.025l-12.46-15.42c-.145.37-.232.777-.227 1.226l.215 20.493a3.21 3.21 0 0 1-2.063 3.031l-19.144 7.323c-2.842 1.087-2.717 5.15.187 6.06l19.559 6.128a3.21 3.21 0 0 1 2.246 2.898l1.05 20.467c.026.511.166.964.376 1.359L124.8 298.44a3.21 3.21 0 0 1 3.451-1.24l2.663.717c.799-.921 2.042-1.342 3.237-1.02l17.159 4.617c.897-1.056 1.137-2.663.144-4z" fill="#f3a618"/><path d="M92.006 279.551l-2.407.712-1.37-4.631 7.566-2.238 6.261 21.163-4.624 3.339-5.426-18.345zm9.534-3.438l-2.431.719-1.384-4.679 7.644-2.261 6.325 21.38-4.671 3.373-5.483-18.532zm16.256 8.128l3.996.96 14.024-4.134-.476 3.067-14.644 4.331-2.08-.555-3.301 2.918-4.361-14.74-1.59.47-.821-2.777 5.664-1.675 3.589 12.135zm-7.881-17.331c.41-.112.842-.123 1.295-.031.453.092.851.305 1.193.638.342.333.581.719.715 1.158a2.5 2.5 0 0 1 .041 1.332 2.622 2.622 0 0 1-.644 1.175 2.517 2.517 0 0 1-1.132.694 2.44 2.44 0 0 1-1.344.045 2.608 2.608 0 0 1-1.181-.642 2.434 2.434 0 0 1-.693-1.152 2.621 2.621 0 0 1-.033-1.347c.106-.466.324-.863.652-1.191a2.68 2.68 0 0 1 1.131-.679zm11.831 5.454l-1.075-3.633-2.043.604.096 2.393-3.927 1.161-.303-7.094 3.927-1.161.08 1.799 1.37-.405-.568-1.92 3.878-1.147.568 1.92 5.897-1.744-.473 3.08-4.624 1.368 1.075 3.633 6.019-1.78-.41 3.021-2.594.767 1.361 4.599 4.082-1.221-.432 3.081-6.732 1.978-2.181-7.283-8.124 2.402-.789-2.666 5.922-1.752zm2.017 3.354l-.479 7.059-3.878 1.147.479-7.059 3.878-1.147zm10.983-.693l-4.761-16.092 16.989-5.024-.327 5.889-9.57 2.83 1.12 3.785c.026.13.059.244.101.342.044.098.095.158.157.181.062.023.163-.013.3-.109l.573-.438c.262-.188.634-.353 1.116-.495l4.166-1.232c.521-.154 1.24-.239 2.159-.256a4.046 4.046 0 0 1 2.496.782 5.697 5.697 0 0 1 1.743 2.008c.415.802.81 1.77 1.18 2.909.372 1.138.648 2.06.829 2.765.173.721.284 1.319.334 1.794.05.475.072 1.096.066 1.863-.008.768-.1 1.377-.277 1.829a5.22 5.22 0 0 1-.617 1.165 4.856 4.856 0 0 1-.835.888 6.67 6.67 0 0 1-1.153.755c-.447.236-.968.469-1.561.7-.593.231-1.934.62-4.02 1.168-1.148.312-1.98.52-2.495.624a7.056 7.056 0 0 1-1.53.142 4.513 4.513 0 0 1-1.478-.276c-.48-.175-.898-.4-1.254-.674a7.8 7.8 0 0 1-1.025-.948c-.327-.359-.647-.822-.96-1.392-.313-.569-.522-1.031-.628-1.387l-.843-2.502 5.613-1.66c.09.539.244 1.038.463 1.497.219.46.637.794 1.258 1.003.621.209 1.408.173 2.358-.108a5.42 5.42 0 0 0 1.733-.823c.53-.377.831-.808.901-1.291.07-.483-.024-1.169-.287-2.056-.242-.77-.483-1.339-.724-1.709-.24-.371-.54-.596-.902-.675-.362-.079-.784-.047-1.266.095l-2.415.714c-.585.173-.894.34-.929.502l-.623 1.384-5.175 1.533z" fill="#fff" stroke="#f18202" stroke-width="2" stroke-miterlimit="10"/><path d="M91.056 281.451l-2.407.712-1.37-4.631 7.566-2.238 6.261 21.163-4.624 3.339-5.426-18.345zm9.534-3.438l-2.431.719-1.384-4.679 7.644-2.261 6.325 21.381-4.671 3.373-5.483-18.533zm16.256 8.127l3.996.96 14.024-4.134-.476 3.067-14.644 4.331-2.08-.555-3.301 2.918-4.361-14.74-1.59.47-.821-2.777 5.664-1.675 3.589 12.135zm-7.881-17.33c.41-.112.842-.123 1.295-.031.453.092.851.305 1.193.638.342.333.581.719.715 1.158a2.5 2.5 0 0 1 .041 1.332 2.622 2.622 0 0 1-.644 1.175 2.517 2.517 0 0 1-1.132.694 2.44 2.44 0 0 1-1.344.045 2.608 2.608 0 0 1-1.181-.642 2.434 2.434 0 0 1-.693-1.152 2.621 2.621 0 0 1-.033-1.347c.106-.466.324-.863.652-1.191a2.66 2.66 0 0 1 1.131-.679zm11.831 5.454l-1.075-3.633-2.043.604.096 2.393-3.927 1.161-.303-7.094 3.927-1.161.08 1.799 1.37-.405-.568-1.92 3.878-1.147.568 1.92 5.897-1.744-.473 3.08-4.624 1.368 1.075 3.633 6.019-1.78-.41 3.021-2.594.767 1.361 4.599 4.082-1.221-.432 3.081-6.732 1.978-2.181-7.283-8.124 2.402-.789-2.666 5.922-1.752zm2.017 3.354l-.479 7.059-3.878 1.147.479-7.059 3.878-1.147zm10.983-.693l-4.761-16.092 16.989-5.024-.327 5.889-9.57 2.83 1.12 3.785c.026.13.059.244.101.342.044.098.095.158.157.181s.163-.013.3-.109l.573-.438c.262-.188.634-.353 1.116-.495l4.166-1.232c.521-.154 1.24-.239 2.159-.256a4.046 4.046 0 0 1 2.496.782 5.697 5.697 0 0 1 1.743 2.008c.415.802.81 1.77 1.18 2.909.372 1.138.648 2.06.829 2.765.173.721.284 1.319.334 1.794.05.475.072 1.096.066 1.863-.008.768-.1 1.377-.277 1.829a5.22 5.22 0 0 1-.617 1.165c-.236.325-.513.621-.835.888s-.705.519-1.153.755c-.447.236-.968.469-1.561.7-.593.231-1.934.62-4.02 1.168-1.148.312-1.98.52-2.495.624a7.056 7.056 0 0 1-1.53.142 4.513 4.513 0 0 1-1.478-.276c-.48-.175-.898-.4-1.254-.674a7.8 7.8 0 0 1-1.025-.948c-.327-.359-.647-.822-.96-1.392-.313-.569-.522-1.031-.628-1.387l-.843-2.502 5.613-1.66c.09.539.244 1.038.463 1.497s.637.794 1.258 1.003c.621.209 1.408.173 2.358-.108a5.439 5.439 0 0 0 1.733-.822c.53-.377.831-.808.901-1.291.07-.483-.024-1.169-.287-2.056-.242-.77-.483-1.339-.724-1.709-.24-.37-.54-.596-.902-.675s-.784-.047-1.266.095l-2.415.714c-.585.173-.894.34-.929.502l-.623 1.384-5.175 1.532z" fill="#f18202"/><path d="M92.006 279.551l-2.407.712-1.37-4.631 7.566-2.238 6.261 21.163-4.624 3.339-5.426-18.345zm9.534-3.438l-2.431.719-1.384-4.679 7.644-2.261 6.325 21.38-4.671 3.373-5.483-18.532zm16.256 8.128l3.996.96 14.024-4.134-.476 3.067-14.644 4.331-2.08-.555-3.301 2.918-4.361-14.74-1.59.47-.821-2.777 5.664-1.675 3.589 12.135zm-7.881-17.331c.41-.112.842-.123 1.295-.031.453.092.851.305 1.193.638.342.333.581.719.715 1.158a2.5 2.5 0 0 1 .041 1.332 2.622 2.622 0 0 1-.644 1.175 2.517 2.517 0 0 1-1.132.694 2.44 2.44 0 0 1-1.344.045 2.608 2.608 0 0 1-1.181-.642 2.434 2.434 0 0 1-.693-1.152 2.621 2.621 0 0 1-.033-1.347c.106-.466.324-.863.652-1.191a2.68 2.68 0 0 1 1.131-.679zm11.831 5.454l-1.075-3.633-2.043.604.096 2.393-3.927 1.161-.303-7.094 3.927-1.161.08 1.799 1.37-.405-.568-1.92 3.878-1.147.568 1.92 5.897-1.744-.473 3.08-4.624 1.368 1.075 3.633 6.019-1.78-.41 3.021-2.594.767 1.361 4.599 4.082-1.221-.432 3.081-6.732 1.978-2.181-7.283-8.124 2.402-.789-2.666 5.922-1.752zm2.017 3.354l-.479 7.059-3.878 1.147.479-7.059 3.878-1.147zm10.983-.693l-4.761-16.092 16.989-5.024-.327 5.889-9.57 2.83 1.12 3.785c.026.13.059.244.101.342.044.098.095.158.157.181.062.023.163-.013.3-.109l.573-.438c.262-.188.634-.353 1.116-.495l4.166-1.232c.521-.154 1.24-.239 2.159-.256a4.046 4.046 0 0 1 2.496.782 5.697 5.697 0 0 1 1.743 2.008c.415.802.81 1.77 1.18 2.909.372 1.138.648 2.06.829 2.765.173.721.284 1.319.334 1.794.05.475.072 1.096.066 1.863-.008.768-.1 1.377-.277 1.829a5.22 5.22 0 0 1-.617 1.165 4.856 4.856 0 0 1-.835.888 6.67 6.67 0 0 1-1.153.755c-.447.236-.968.469-1.561.7-.593.231-1.934.62-4.02 1.168-1.148.312-1.98.52-2.495.624a7.056 7.056 0 0 1-1.53.142 4.513 4.513 0 0 1-1.478-.276c-.48-.175-.898-.4-1.254-.674a7.8 7.8 0 0 1-1.025-.948c-.327-.359-.647-.822-.96-1.392-.313-.569-.522-1.031-.628-1.387l-.843-2.502 5.613-1.66c.09.539.244 1.038.463 1.497.219.46.637.794 1.258 1.003.621.209 1.408.173 2.358-.108a5.42 5.42 0 0 0 1.733-.823c.53-.377.831-.808.901-1.291.07-.483-.024-1.169-.287-2.056-.242-.77-.483-1.339-.724-1.709-.24-.371-.54-.596-.902-.675-.362-.079-.784-.047-1.266.095l-2.415.714c-.585.173-.894.34-.929.502l-.623 1.384-5.175 1.533z" fill="#fff"/></g></svg>