<svg id="图层_1" data-name="图层 1" xmlns="http://www.w3.org/2000/svg" width="280" height="70" viewBox="0 0 280 70" style="background:#fff;"><defs><style>.cls-1{fill:#f71e1e;}.cls-2{fill:#666;}.cls-3{fill:#ffb87e;fill-rule:evenodd;}.cls-4{opacity:0.7;}.cls-5{fill:#999;}.cls-6,.cls-7{font-size:12px;fill:#a4a4a4;}.cls-6{font-family:ArialNarrow, Arial Narrow;letter-spacing:-0.02em;}.cls-7{font-family:MicrosoftYaHei, Microsoft YaHei;letter-spacing:-0.07em;}</style></defs><title>166weblogo-2345</title><polygon class="cls-1" points="1 13.99 1 19.64 4.45 17.42 4.45 46.83 10.92 46.83 10.92 11.78 4.45 11.78 1 13.99"/><path class="cls-1" d="M29,23.74l-3,6.21a9.21,9.21,0,0,1,3.68,2.19,5,5,0,0,1,1.09,3.69A5,5,0,0,1,29,39.21a4.7,4.7,0,0,1-3.15,1.13l-.47,0A5,5,0,0,1,22,38.44a5.19,5.19,0,0,1-1.13-3.81,7.66,7.66,0,0,1,.63-2.28l9.34-20-.69-.07L24,11.7,16.8,26.62c-2.19,4.64-2.53,7.19-2.57,7.66a10.94,10.94,0,0,0,2.7,8.37,11.21,11.21,0,0,0,7.81,4.29,11.21,11.21,0,0,0,8.68-2.61,11.58,11.58,0,0,0,4.22-8.17,11.07,11.07,0,0,0-1.37-6.8C34.53,26.29,30.85,24.42,29,23.74Z"/><path class="cls-1" d="M63,29.35c-1.75-3.06-5.43-4.92-7.27-5.61l-3,6.21a9.21,9.21,0,0,1,3.68,2.19,5,5,0,0,1,1.09,3.69,5,5,0,0,1-1.76,3.39,4.7,4.7,0,0,1-3.15,1.13l-.47,0a5,5,0,0,1-3.35-1.88,5.19,5.19,0,0,1-1.13-3.81,7.66,7.66,0,0,1,.63-2.28l9.34-20-.69-.07-6.16-.61L43.52,26.62c-2.19,4.64-2.53,7.19-2.57,7.66a10.94,10.94,0,0,0,2.7,8.37,11.62,11.62,0,0,0,16.49,1.67,11.58,11.58,0,0,0,4.22-8.17A11.07,11.07,0,0,0,63,29.35Z"/><path class="cls-1" d="M76.75,26h4.93V22.71H76.62l-.18-1H72.65l-.1,1H67.63V26H71c1.11,0,1.8.74,1.76,2.13V36h4Z"/><path class="cls-1" d="M67.63,11.8v3.32h11.8c1.47,0,2.23-.65,2.28-1.81l0-1.51H67.63Z"/><polygon class="cls-1" points="72.12 27.2 68.9 27.2 67.69 35.95 71.04 35.95 72.12 27.2"/><path class="cls-1" d="M77.09,21.32l2,0A1.62,1.62,0,0,0,80.72,20l.58-3.69H78.08Z"/><path class="cls-1" d="M80.76,28.44a1.67,1.67,0,0,0-1.7-1.25H77.34l1,8.76h3.35Z"/><path class="cls-1" d="M91.15,28.1H87.24c-.71,2.11-2.58,3.43-5,4V36C86.18,35.55,89.66,32.93,91.15,28.1Z"/><path class="cls-1" d="M82.23,15.68v3.88a10.9,10.9,0,0,0,8.87-7.76H87.24A6.24,6.24,0,0,1,82.23,15.68Z"/><path class="cls-1" d="M91.1,20H87.35a6.6,6.6,0,0,1-5.13,3.92v3.88A10.34,10.34,0,0,0,91.1,20Z"/><path class="cls-1" d="M94.58,14.52h4.74c1,0,1.34,0,1.34.37v.79H97.19a2.54,2.54,0,0,0-2.61,2.44v4.59h23.06l0-4.52A2.57,2.57,0,0,0,115,15.68h-3.4V14.52H118V11.8H94.58Zm6.08,6.08H98.54V18.27h.94c.89,0,1.19.13,1.19.78Zm10.95-2.33h1.06c.74,0,1.07.13,1.07.78V20.6h-2.13Zm-6.69-3.75H106c.74,0,1.07-.08,1.07.37v.79h-2.13Zm0,3.75H106c.74,0,1.07.13,1.07.78V20.6h-2.13Z"/><path class="cls-1" d="M108.29,30.39H118V27.63H94.58v2.76h7.92a1.7,1.7,0,0,1,1.81,1.72V36h3.95Z"/><rect class="cls-1" x="95.19" y="23.88" width="22.2" height="2.59"/><polygon class="cls-1" points="100.43 31.55 96.51 31.55 95.56 35.95 99.57 35.95 100.43 31.55"/><path class="cls-1" d="M116.36,32.85a1.7,1.7,0,0,0-2-1.29h-2.23L113,36h3.94Z"/><path class="cls-1" d="M68.33,19.35c.16,1.23.79,2,1.88,2L72,21.29l-1.27-5-3.07,0Z"/><path class="cls-1" d="M72.68,19.35c.16,1.23.79,2,1.88,2l1.82-.05-1.27-5-3.07,0Z"/><path class="cls-1" d="M70.19,45.71A1.71,1.71,0,0,1,68.73,45a2.9,2.9,0,0,1-.5-1.82,2.94,2.94,0,0,1,.51-1.83,1.74,1.74,0,0,1,1.46-.7,2,2,0,0,1,1.22.35,1.69,1.69,0,0,1,.59,1.1h1a2.54,2.54,0,0,0-.89-1.72,3,3,0,0,0-1.88-.55,2.7,2.7,0,0,0-2.23,1,3.57,3.57,0,0,0-.75,2.35A3.52,3.52,0,0,0,68,45.58a2.72,2.72,0,0,0,2.21,1,2.82,2.82,0,0,0,1.88-.61A3,3,0,0,0,73,44.08H72A1.68,1.68,0,0,1,70.19,45.71Zm8-5.83a3.19,3.19,0,0,0-1.88.49A2.18,2.18,0,0,0,75.34,42h1a1.41,1.41,0,0,1,.59-1,2,2,0,0,1,1.2-.32q1.65,0,1.65,1.59v.21H78.23a4.11,4.11,0,0,0-2.1.46,1.87,1.87,0,0,0-1,1.76A1.66,1.66,0,0,0,75.75,46a2.23,2.23,0,0,0,1.52.49,3.33,3.33,0,0,0,1.57-.38,2.93,2.93,0,0,0,1-.85v1.06h.92v-4a2.5,2.5,0,0,0-.56-1.72A2.62,2.62,0,0,0,78.16,39.88Zm1.59,3.92a1.78,1.78,0,0,1-.65,1.35,2.39,2.39,0,0,1-1.63.59,1.51,1.51,0,0,1-1-.28,1,1,0,0,1-.34-.76q0-1.44,2.13-1.44h1.45Zm4.54-6.12a.71.71,0,0,0-.53.21.62.62,0,0,0-.21.51.71.71,0,0,0,.21.52.77.77,0,0,0,1.05,0,.72.72,0,0,0,.22-.52.63.63,0,0,0-.22-.51A.71.71,0,0,0,84.29,37.68Zm-.49,8.68h1V40.05h-1Zm4.91-1.45a.71.71,0,0,0-.53.21.65.65,0,0,0-.22.51.72.72,0,0,0,.22.52.77.77,0,0,0,1.05,0,.69.69,0,0,0,.22-.52.65.65,0,0,0-.22-.51A.71.71,0,0,0,88.71,44.91Zm6.33.81A1.71,1.71,0,0,1,93.58,45a2.9,2.9,0,0,1-.5-1.82,2.94,2.94,0,0,1,.51-1.83,1.74,1.74,0,0,1,1.46-.7,2,2,0,0,1,1.22.35,1.69,1.69,0,0,1,.59,1.1h1a2.54,2.54,0,0,0-.89-1.72,3,3,0,0,0-1.88-.55,2.7,2.7,0,0,0-2.23,1,3.57,3.57,0,0,0-.75,2.35,3.52,3.52,0,0,0,.75,2.34,2.72,2.72,0,0,0,2.21,1,2.82,2.82,0,0,0,1.88-.61,3,3,0,0,0,.94-1.84h-1A1.68,1.68,0,0,1,95,45.71Zm8-5.83a2.82,2.82,0,0,0-2.26,1,3.46,3.46,0,0,0-.81,2.35,3.39,3.39,0,0,0,.81,2.33,2.82,2.82,0,0,0,2.26,1,2.86,2.86,0,0,0,2.27-1,3.82,3.82,0,0,0,0-4.68A2.82,2.82,0,0,0,103.08,39.88Zm1.58,5.06a1.88,1.88,0,0,1-1.58.77,1.81,1.81,0,0,1-1.57-.77,3.26,3.26,0,0,1,0-3.48,1.81,1.81,0,0,1,1.57-.77,1.88,1.88,0,0,1,1.58.77,3.26,3.26,0,0,1,0,3.48ZM117,40.5a2.17,2.17,0,0,0-1.6-.62,2,2,0,0,0-1.11.29,2.25,2.25,0,0,0-.88.9,2,2,0,0,0-2-1.2,2.11,2.11,0,0,0-1.79,1v-.84h-1v6.31h1V42.52a1.88,1.88,0,0,1,.44-1.27,1.36,1.36,0,0,1,1.11-.54q1.45,0,1.45,1.67v4h1v-4a1.74,1.74,0,0,1,.43-1.23,1.29,1.29,0,0,1,1-.46,1.45,1.45,0,0,1,1.17.43,1.87,1.87,0,0,1,.35,1.24v4h1V42.22A2.46,2.46,0,0,0,117,40.5Z"/><path class="cls-2" d="M153.55,34.56q-.24-.91-2.44-1l-1.6.67-.29-.17-.06-.55a22.75,22.75,0,0,0,1-4.71,1.28,1.28,0,0,0-.69-.46l-.3.08a5,5,0,0,0-2.52,2.37l-1,2.46-.08,0-.63-.24-.23.06-.24.31,0,.15q1.13.91,1.58.79l.43-.52a4,4,0,0,1,.44-2q-.18-.68,1.74-2.56l.27.09a10.75,10.75,0,0,1-.81,3.93q-.38,2.53-1.21,2.75l-1.07.85q-3.14,2.77-3.08,3l0,.15c0,.05.13.1.36.15l.08,0,1.31-1.16a10.4,10.4,0,0,0,2-1.83c.26,0,.41,0,.44.13a7.1,7.1,0,0,1-.35,1.71,25.84,25.84,0,0,1-1.81,4.76l-.23.06-.82-.35c-.2.05-.28.16-.24.31q.26,1,1.8,1,.68-.18,1.42-2.88a36.13,36.13,0,0,0,1.78-5.48q.15-1.25,2.64-1.91l.15,0a1.11,1.11,0,0,1,1.24.4q.08,3.94-.53,4.1a7.43,7.43,0,0,0-2.9-.28c-.38.21-.55.36-.52.46l.06.23.1.06q3,.09,3.21.84v.32q-.52,3.21-1.35,3.43-.3.08-1.35-.53l-.23.06,0,.25q1.12,1.48,2.25,1.18.6-.16,1.48-2.33a20.18,20.18,0,0,1,.69-3.5,17.51,17.51,0,0,0,.21-4.1Zm17.05,4.21-.07.09-.16,0a10.31,10.31,0,0,0-2.44.61l-.25-.13,0-1q-.15-1.24,1.73-3.28l-.06-.47c-.08-.2-.36-.35-.84-.45q-.78.09-1-.12l0-1.57-.19-1.55q-.07-.54,2.21-1.29l.64.08c.21,0,.3-.11.28-.27v-.08a.87.87,0,0,0-.55-.64q-2.24-.28-2.63-.94-.8-2-1.49-1.94h-.08l-.2.34.27.91.32,2.64q.07.54-2.92,1.93a.47.47,0,0,1-.35-.27,7,7,0,0,0,.48-1.87q-.07-.54-.9-.91a.5.5,0,0,0-.43.37l0,.23.13.46-.45,2.18a3.14,3.14,0,0,0-.51,1,.76.76,0,0,0,.63.63l.23,0a22.34,22.34,0,0,1,3.68-2.1l.43.26.06,1.17.21,1.71-.2.34q-2.84,1.92-2.79,2.3.07.54,1.66,2l-.1.48q-1.84,1.72-2.11,2.06c0,.36.33.59.87.68a9.89,9.89,0,0,0,2.17-.89,20,20,0,0,1,3.63-1.22c.15,0,.27.07.35.27l-.25.5,0,.16.18.21a4.37,4.37,0,0,0,2-1.74l0-.31A1.33,1.33,0,0,0,170.6,38.77ZM166,40.19l0-.16.14-.17.31,0,0,.31Zm-.21-1.78q-.62.08-1-.83l0-.31q.72-1.19,1.42-1.27l.35.27Q166.72,37.9,165.76,38.41ZM167.14,29c0-.1.11-.2.36-.28l.26.2,0,.16-.27.35-.35-.27Zm20-.47a1.88,1.88,0,0,0,1-.55q1.13-.45,1.15-.61,1.61-.57,1.63-.81.05-.62-1.81-.93c-.16,0-.25.24-.3.76l-1.94,1.64,0,.23C186.84,28.36,186.93,28.44,187.13,28.56Zm-5.46-2.25q1.06.4,1,.71l-.3.76v.08c0,.1.11.22.36.34h.08q1.23-.61,1.28-1.23v-.16q0-.39-2.31-1.44a.48.48,0,0,0-.58.34C181.24,25.89,181.38,26.08,181.67,26.31Zm1.15,9.89-2.38,2.31-.23,0-.14-.17,0-.23.94-2.82-.42-1.52a15.32,15.32,0,0,1,1.49-2.86.61.61,0,0,0-.42-.66q-.78-.06-1.92,3.29l0,.23.28,1.36a12.5,12.5,0,0,1-.76,2.53l-.54,1.84q.14,1.11.77,1.16h.16q.49-.27.51-.51a18.76,18.76,0,0,0,3-3.67l-.21-.25Zm8.74-.46a10.55,10.55,0,0,0-4.64,1.19l-.23-.1-.78-1a.41.41,0,0,0-.51.43l.32,2.77q-.07,1.8,1,1.89h.08c.1,0,.19-.12.27-.37L186.82,39a2,2,0,0,1,1.55-1.68,8.56,8.56,0,0,1,2.25-.68c.16,0,.28.13.36.34v.16l-2,2q-1.32.76-1.33.91a1.61,1.61,0,0,0,1.43.74h.08l1.74-.25.46.12.34-.36a1.19,1.19,0,0,0-.57-.75l-.86-.07-.07-.08,0-.23L191.53,38a2.56,2.56,0,0,0,1.06-1.48v-.08A1.23,1.23,0,0,0,191.56,35.75Zm1.2-5.08-.39,0a4.91,4.91,0,0,0-1.91.31l-.37-.27q-.33-1.75-1.11-1.81l-.23,0-.34.29,0,.23a2,2,0,0,1,.59,1.38l0,.23q-.1.31-2.68,1.11l-.07-.08v.16l-.07-.08-2.4.59-.62-.13c-.27.08-.41.2-.42.36q0,.55.87.85l4.9-1.4h.08c.1,0,.2.15.28.41L188.48,35a.47.47,0,0,0,.29.34q.62.05,1-2.51.11-1.4,3-1.17l.92.31q.4-.12.42-.36Q194.15,30.94,192.76,30.67Zm17.75,3.8-.26,0q-.17,0-.38.39l.08,1-.24,1.53-.07,2.41q-.52,4.35-1,4.31-.6-.06-.62.2l0,.26q.6.92,1,1l.26,0,.27-.15q.89-1.12,1.32-5.4v-.09l.15-3.18Q211.25,34.89,210.51,34.47Zm7.33-.73q-.67-1.1-5.33-2l-1.11-.11,0-.34,1-.5q2.31-.63,2.34-1a.78.78,0,0,0-.44-.74l-.68-.07-1.74,1-.32-.21.17-.85,0-1.12.34,0,.08.09q1.44-.55,1.68-1.21.05-.51-.79-.77l-.52,0a12,12,0,0,1-2.65.6l-.68-.07-.28.23,0,.34q.21.54,1.23.64l.43,0q.25.11.21.54a1.66,1.66,0,0,1-.37,1.09q-.13,1.28-2,1.79-2.18.21-2.23.73a1.34,1.34,0,0,0,.63.58,2.7,2.7,0,0,0,1.5-.28c.23,0,.33.12.32.29l0,.17-1.48,1.84Q205.95,36.09,205,36q-.35.05-2.22,3.15l-.26,0-.15-.19.06-.6-.08-2.69,1.27-3.15-.21-.45h-.09q-.69-.07-1.9,3.44l.12,2.26-.62,3.57.3.46h.09q.77.08,2-1.87,1.47-2.62,1.91-2.66.68.07,3.27-2.44,1.35-2.28,2.21-2.2l.51.05a11.76,11.76,0,0,1,2.71.53l.52,0q1.68.51,1.64.86a3.69,3.69,0,0,0,1.67.6l.38-.39C218.05,33.9,218,33.75,217.84,33.74Zm-14-5.12q.42,1,.93,1a1,1,0,0,0,.59-.72l0-.34q0-.43-2.1-1.42c-.3.09-.45.21-.47.38A3.12,3.12,0,0,0,203.84,28.62Zm12.31,9.87-.43,0a3.11,3.11,0,0,0-1.54.71l-1.08-.45-.26,0q-.17,0-.31.49t1.61,1.2a2.52,2.52,0,0,1,1.92-1l.25.11q.49,1.09.92,1.13V40.5c.17,0,.32-.08.46-.3l0-.34Q217.82,39.09,216.15,38.49Zm-10.48,2.92A.56.56,0,0,0,206,42q.85.09,1.2-1.61l-.27-.72Q206.29,39.58,205.67,41.41Zm20.61-14.58h.11a10.31,10.31,0,0,0,2.83-1l1.16,0c.14,0,.28-.18.41-.54s-.47-.83-1.39-1h-.32l-.83.75q-2.2,1-2.3,1.31v.21Zm-.94,5.71.52-.33q0-.63-1.4-1.55h-.21l-.42.32Q223.84,31.74,225.34,32.55Zm14,7.64h-.63c-.14,0-.28-.17-.43-.52a25.46,25.46,0,0,0,1.19-4.14l-.12-.53a2.31,2.31,0,0,0-1.19-1.77v-.32l1.59-5.2q0-1.16-1.4-1.55c-.35.15-.52.33-.52.54a1.32,1.32,0,0,1,.44.94v.53a39.33,39.33,0,0,0-1.47,5.51V34l.22.42q1.06.3,1.18.82v.53L237,40.13v.11a1.14,1.14,0,0,0,.54.83q2.75.16,2.75.58,0,.63-2.47,3l.12.53h.21l.53-.12Q242,42.25,242,41.62,241.94,40.35,239.3,40.19Zm-6.87-11.68v-.42q-.43-.62-.86-.62-2.2.89-2.3,1.21-1.37.13-1.57.45a2.61,2.61,0,0,0,.75.83h.63l.42-.22A6.79,6.79,0,0,1,231,28.54h.11a65.94,65.94,0,0,1-4,5.46,15.38,15.38,0,0,0-2.37,2.79h.21l3-2.7h.32l.22.21v.42a1.6,1.6,0,0,1-.4,1L224,38.59a2.57,2.57,0,0,0-1.26.55h-.21l-.11-.1c-.42.22-.63.4-.62.54s.18.42.32.42h.11a14.76,14.76,0,0,0,3.14-1.33l1.77-1.41.43.2a36.19,36.19,0,0,1-3.79,5.66v.42a1,1,0,0,0,.85.51l.95-.23,1.87-1.62.32.31v.42l-.1.42.11.42,0,.95.54.52h.32l.42-.32-.13-1.26a16.13,16.13,0,0,1,.47-3.17,11.72,11.72,0,0,0,2-2.15c0-.14-.18-.28-.54-.41l-.73.65q-.53,0-.64-.3v-.42l.48-2.44,2-1.73v-.32a.89.89,0,0,0-.75-.51l-1.26.34h-.21c-.14,0-.29-.17-.43-.52v-.21Q232.45,29.46,232.43,28.51Z"/><path class="cls-3" d="M238.14,18.08a7.51,7.51,0,0,0-.24,1.24c0,.19-.56.81-.56.81l-1.3.7a5.3,5.3,0,0,1,1.44,0,2.41,2.41,0,0,1,.83.59l.74,1.32s-.07-1.1,0-1.44.79-.85.79-.85l.84-.62s-1.3.16-1.63.16C238.67,20.25,238.14,18.08,238.14,18.08Zm12.68,10.69c-.83-.11.51-4.26.51-4.26A15,15,0,0,0,249.27,26c-.21.32-1.94.4-1.94.4l-2.84-.79a10.6,10.6,0,0,1,2.07,2,4.82,4.82,0,0,1,.39,2l-.77,2.93s1.42-1.68,1.93-2.13,2.32-.14,2.32-.14l2.07.26S251.31,29.22,250.82,28.76Z"/><g class="cls-4"><path class="cls-5" d="M148.25,53.48A122.42,122.42,0,0,1,170.92,48a90.31,90.31,0,0,1,23.36-.43c3.89.52,7.69,1.2,11.54,1.72s7.7,1,11.56,1.33a213.51,213.51,0,0,0,23.26,1,157.45,157.45,0,0,1-23.33-.19q-5.82-.47-11.62-1.23c-1.93-.26-3.86-.52-5.78-.84s-3.83-.62-5.74-.9a96.32,96.32,0,0,0-23.15.16A141.18,141.18,0,0,0,148.25,53.48Z"/></g><text class="cls-6" transform="translate(2.67 61.14) scale(1 0.95)">2345.COM</text><text class="cls-7" transform="translate(50.67 60.67)">战略合作伙伴</text></svg>