<?xml version="1.0" encoding="utf-8"?>
<!-- Generator: Adobe Illustrator 21.0.0, SVG Export Plug-In . SVG Version: 6.00 Build 0)  -->
<svg version="1.1" id="图层_1" xmlns="http://www.w3.org/2000/svg" xmlns:xlink="http://www.w3.org/1999/xlink" x="0px" y="0px"
	 viewBox="0 0 280 70" style="enable-background:new 0 0 280 70;" xml:space="preserve">
<style type="text/css">
	.st0{fill:#FFFFFF;}
</style>
<g>
	<polygon class="st0" points="1,19.5 1,25.5 4.7,23.2 4.7,54.8 11.6,54.8 11.6,17.1 4.7,17.1 	"/>
	<path class="st0" d="M31,30l-3.2,6.7c0.8,0.2,3,1.2,3.9,2.4s1.3,2.5,1.2,4c-0.1,1.5-0.8,2.7-1.9,3.6c-0.9,0.8-2.1,1.2-3.4,1.2
		c-0.2,0-0.3,0-0.5,0c-1.4-0.1-2.6-0.8-3.6-2c-0.9-1.1-1.4-2.6-1.2-4.1c0.1-0.7,0.3-1.7,0.7-2.5l10-21.5l-0.7-0.1L25.7,17l-7.8,16.1
		c-2.4,5-2.7,7.7-2.8,8.2c-0.3,3.3,0.6,6.3,2.9,9c2.3,2.8,5,4.3,8.4,4.6c3.6,0.4,6.6-0.6,9.3-2.8c2.7-2.3,4.2-5.1,4.5-8.8
		c0.3-2.7-0.2-5.1-1.5-7.3C36.9,32.7,33,30.7,31,30z"/>
	<path class="st0" d="M67.5,36c-1.9-3.3-5.8-5.3-7.8-6l-3.2,6.7c0.8,0.2,3,1.2,3.9,2.4s1.3,2.5,1.2,4s-0.8,2.7-1.9,3.6
		c-0.9,0.8-2.1,1.2-3.4,1.2c-0.2,0-0.3,0-0.5,0c-1.4-0.1-2.6-0.8-3.6-2c-0.9-1.1-1.4-2.6-1.2-4.1c0.1-0.7,0.3-1.7,0.7-2.5l10-21.5
		L61,17.7L54.3,17l-7.8,16.1c-2.4,5-2.7,7.7-2.8,8.2c-0.3,3.3,0.6,6.3,2.9,9c2.3,2.8,5,4.3,8.4,4.6c3.6,0.4,6.6-0.6,9.3-2.8
		c2.7-2.3,4.2-5.1,4.5-8.8C69.2,40.6,68.7,38.2,67.5,36z"/>
</g>
<g>
	<path class="st0" d="M82.2,32.4h5.3v-3.5h-5.4l-0.2-1h-4.1l-0.1,1h-5.3v3.5h3.7c1.2,0,1.9,0.8,1.9,2.3v8.4h4.2V32.4z"/>
	<path class="st0" d="M72.4,17.1v3.6H85c1.6,0,2.4-0.7,2.4-2v-1.6H72.7H72.4z"/>
	<polygon class="st0" points="77.2,33.7 73.8,33.7 72.5,43.1 76.1,43.1 	"/>
	<path class="st0" d="M82.6,27.4h2.2c0.8,0,1.6-0.6,1.7-1.5l0.6-4h-3.5L82.6,27.4z"/>
	<path class="st0" d="M86.5,35c-0.1-0.5-0.6-1.3-1.8-1.3h-1.8l1,9.4h3.6L86.5,35z"/>
	<path class="st0" d="M97.6,34.7h-4.2C92.6,37,90.6,38.4,88,39v4.2C92.3,42.7,96,39.9,97.6,34.7z"/>
	<path class="st0" d="M88.1,21.3v4.2c4.2-0.7,8-3.5,9.5-8.4h-4.1C92.4,19.5,90.4,21.1,88.1,21.3z"/>
	<path class="st0" d="M97.6,25.9h-4c-1,2.3-3.2,4-5.5,4.2v4.2C92.3,33.8,96,31.1,97.6,25.9z"/>
	<path class="st0" d="M101.3,20h5.1c1.1,0,1.4,0,1.4,0.4v0.9h-3.7c-1.7,0-2.8,1.3-2.8,2.6V26v1.2v1.6H126v-4.9
		c0-1.5-1.2-2.7-2.8-2.7h-3.6V20h6.8v-2.9h-25.1V20z M107.8,26.6h-2.3v-2.5h1c1,0,1.3,0.1,1.3,0.8V26.6z M119.6,24.1h1.1
		c0.8,0,1.2,0.1,1.2,0.8v1.7h-2.3C119.6,26.6,119.6,24.1,119.6,24.1z M112.4,20h1.1c0.8,0,1.2-0.1,1.2,0.4v0.9h-2.3
		C112.4,21.3,112.4,20,112.4,20z M112.4,24.1h1.1c0.8,0,1.2,0.1,1.2,0.8v1.7h-2.3C112.4,26.6,112.4,24.1,112.4,24.1z"/>
	<path class="st0" d="M116,37.1h10.4v-3h-25.1v3h8.5c1.1,0,1.9,0.8,1.9,1.8V43h4.2L116,37.1z"/>
	<rect x="102" y="30.1" class="st0" width="23.8" height="2.8"/>
	<polygon class="st0" points="107.6,38.4 103.4,38.4 102.4,43.1 106.7,43.1 	"/>
	<path class="st0" d="M124.7,39.8c-0.3-1-0.9-1.4-2.1-1.4h-2.4l0.9,4.7h4.2L124.7,39.8z"/>
	<path class="st0" d="M73.2,25.2c0.2,1.3,0.9,2.1,2,2.1l1.9-0.1l-1.4-5.4h-3.3L73.2,25.2z"/>
	<path class="st0" d="M77.8,25.2c0.2,1.3,0.9,2.1,2,2.1l1.9-0.1l-1.4-5.4H77L77.8,25.2z"/>
</g>
<g>
	<g>
		<path class="st0" d="M75.2,53.6c-0.7,0-1.2-0.2-1.6-0.7s-0.5-1.1-0.5-2c0-0.8,0.2-1.5,0.6-2s0.9-0.7,1.6-0.7c0.5,0,1,0.1,1.3,0.4
			c0.3,0.3,0.5,0.7,0.6,1.2h1c-0.1-0.8-0.4-1.4-1-1.9c-0.5-0.4-1.2-0.6-2-0.6c-1,0-1.8,0.4-2.4,1.1C72.3,49,72,49.9,72,50.9
			s0.3,1.9,0.8,2.5c0.6,0.7,1.4,1,2.4,1c0.8,0,1.5-0.2,2-0.7c0.5-0.4,0.9-1.1,1-2h-1C77,53,76.3,53.6,75.2,53.6z M83.7,47.3
			c-0.9,0-1.5,0.2-2,0.5c-0.6,0.4-0.9,1-1,1.7h1c0.1-0.5,0.3-0.8,0.6-1.1c0.3-0.2,0.7-0.3,1.3-0.3c1.2,0,1.8,0.6,1.8,1.7V50h-1.6
			c-0.9,0-1.7,0.2-2.3,0.5c-0.7,0.4-1,1-1,1.9c0,0.6,0.2,1.1,0.6,1.4c0.4,0.4,0.9,0.5,1.6,0.5c0.6,0,1.2-0.1,1.7-0.4
			c0.4-0.2,0.8-0.5,1-0.9v1.1h1V50c0-0.8-0.2-1.4-0.6-1.9C85.4,47.6,84.7,47.3,83.7,47.3z M85.4,51.6c0,0.6-0.2,1-0.7,1.5
			c-0.5,0.4-1.1,0.6-1.7,0.6c-0.4,0-0.8-0.1-1-0.3s-0.4-0.5-0.4-0.8c0-1,0.8-1.5,2.3-1.5h1.6v0.5H85.4z M90.3,45
			c-0.2,0-0.4,0.1-0.6,0.2c-0.1,0.1-0.2,0.3-0.2,0.6c0,0.2,0.1,0.4,0.2,0.6c0.2,0.1,0.4,0.2,0.6,0.2s0.4-0.1,0.6-0.2
			c0.2-0.2,0.2-0.3,0.2-0.6c0-0.2-0.1-0.4-0.2-0.6C90.7,45,90.5,45,90.3,45z M89.8,54.3h1v-6.8h-1V54.3z M95,52.7
			c-0.2,0-0.4,0.1-0.6,0.2c-0.2,0.1-0.2,0.3-0.2,0.6c0,0.2,0.1,0.4,0.2,0.6c0.2,0.1,0.4,0.2,0.6,0.2s0.4-0.1,0.6-0.2
			c0.2-0.1,0.2-0.3,0.2-0.6c0-0.2-0.1-0.4-0.2-0.6C95.4,52.8,95.3,52.7,95,52.7z M101.8,53.6c-0.7,0-1.2-0.2-1.6-0.7s-0.5-1.1-0.5-2
			c0-0.8,0.2-1.5,0.6-2s0.9-0.7,1.6-0.7c0.5,0,1,0.1,1.3,0.4c0.3,0.3,0.5,0.7,0.6,1.2h1c-0.1-0.8-0.4-1.4-1-1.9
			c-0.5-0.4-1.2-0.6-2-0.6c-1,0-1.8,0.4-2.4,1.1c-0.5,0.6-0.8,1.5-0.8,2.5s0.3,1.9,0.8,2.5c0.6,0.7,1.4,1,2.4,1c0.8,0,1.5-0.2,2-0.7
			c0.5-0.4,0.9-1.1,1-2h-1C103.6,53,103,53.6,101.8,53.6z M110.4,47.3c-1,0-1.8,0.4-2.4,1.1c-0.6,0.7-0.9,1.5-0.9,2.5
			s0.3,1.9,0.9,2.5c0.6,0.7,1.4,1.1,2.4,1.1s1.8-0.4,2.4-1.1c0.6-0.7,0.9-1.5,0.9-2.5s-0.3-1.9-0.9-2.5
			C112.3,47.7,111.5,47.3,110.4,47.3z M112.1,52.8c-0.4,0.6-1,0.8-1.7,0.8s-1.3-0.3-1.7-0.8c-0.4-0.5-0.5-1.1-0.5-1.9
			c0-0.8,0.2-1.4,0.5-1.9c0.4-0.6,1-0.8,1.7-0.8s1.3,0.3,1.7,0.8c0.4,0.5,0.5,1.1,0.5,1.9C112.7,51.7,112.5,52.3,112.1,52.8z
			 M125.4,48c-0.4-0.4-1-0.7-1.7-0.7c-0.5,0-0.9,0.1-1.2,0.3c-0.4,0.2-0.7,0.5-0.9,1c-0.4-0.9-1.1-1.3-2.1-1.3
			c-0.8,0-1.4,0.4-1.9,1.1v-0.9h-1v6.8h1v-4.1c0-0.5,0.2-1,0.5-1.4s0.7-0.6,1.2-0.6c1,0,1.6,0.6,1.6,1.8v4.3h1V50
			c0-0.6,0.2-1,0.5-1.3s0.7-0.5,1.1-0.5c0.6,0,1,0.2,1.3,0.5s0.4,0.7,0.4,1.3v4.3h1v-4.5C126,49.1,125.8,48.5,125.4,48z"/>
	</g>
</g>
</svg>
