<svg id="图层_1" data-name="图层 1" xmlns="http://www.w3.org/2000/svg" xmlns:xlink="http://www.w3.org/1999/xlink" width="88" height="88" viewBox="0 0 88 88"><defs><style>.cls-1{fill:#fff}.cls-1,.cls-11,.cls-12,.cls-13,.cls-14,.cls-15,.cls-16,.cls-17,.cls-18,.cls-9{fill-rule:evenodd}.cls-2{fill:#c6c6c6}.cls-3{fill:url(#未命名的渐变_25)}.cls-4{fill:#434343}.cls-5{fill:#ff3646}.cls-6{fill:#3eb819}.cls-7{fill:#f27d00}.cls-8{fill:#0090ec}.cls-9{fill:url(#未命名的渐变_9)}.cls-10{fill:#ffeb11}.cls-11{fill:url(#未命名的渐变_9-2)}.cls-12{fill:url(#未命名的渐变_27)}.cls-13{fill:url(#未命名的渐变_27-2)}.cls-14{fill:url(#未命名的渐变_27-3)}.cls-15{fill:url(#未命名的渐变_27-4)}.cls-16{fill:url(#未命名的渐变_27-5)}.cls-17{fill:url(#未命名的渐变_27-6)}.cls-18{fill:url(#未命名的渐变_27-7)}</style><radialGradient id="未命名的渐变_25" cx="45" cy="45" r="44" gradientUnits="userSpaceOnUse"><stop offset=".87" stop-color="#fff"/><stop offset="1" stop-color="#dbdcdc"/></radialGradient><linearGradient id="未命名的渐变_9" x1="42.9" y1="70.7" x2="64.41" y2="70.7" gradientTransform="rotate(2 -208.064 14.234)" gradientUnits="userSpaceOnUse"><stop offset="0" stop-color="#169df4"/><stop offset="1" stop-color="#c4e6fc"/></linearGradient><linearGradient id="未命名的渐变_9-2" x1="-9.45" y1="195.66" x2="8.61" y2="195.66" gradientTransform="rotate(-30.62 -194.192 2.656)" xlink:href="#未命名的渐变_9"/><linearGradient id="未命名的渐变_27" x1="-118.53" y1="259.7" x2="-100.47" y2="259.7" gradientTransform="rotate(-61.82 -187.621 -2.914)" gradientUnits="userSpaceOnUse"><stop offset="0" stop-color="#169df4"/><stop offset="1" stop-color="#d9f0ff"/></linearGradient><linearGradient id="未命名的渐变_27-2" x1="-243.67" y1="250.01" x2="-225.62" y2="250.01" gradientTransform="rotate(-91.85 -183.29 -10.613)" xlink:href="#未命名的渐变_27"/><linearGradient id="未命名的渐变_27-3" x1="-361.46" y1="159.36" x2="-343.4" y2="159.36" gradientTransform="rotate(-125.94 -179.177 -18.988)" xlink:href="#未命名的渐变_27"/><linearGradient id="未命名的渐变_27-4" x1="-409.73" y1="28.78" x2="-391.68" y2="28.78" gradientTransform="rotate(-155.76 -177.67 -29.582)" xlink:href="#未命名的渐变_27"/><linearGradient id="未命名的渐变_27-5" x1="-393.51" y1="-97.06" x2="-377.85" y2="-97.06" gradientTransform="rotate(178.67 -177.535 -40.81)" xlink:href="#未命名的渐变_27"/><linearGradient id="未命名的渐变_27-6" x1="-308.05" y1="-226.72" x2="-296.11" y2="-226.72" gradientTransform="rotate(147.13 -178.146 -56.691)" xlink:href="#未命名的渐变_27"/><linearGradient id="未命名的渐变_27-7" x1="-247.22" y1="-267.83" x2="-238.21" y2="-267.83" gradientTransform="rotate(133.63 -179.304 -65.427)" xlink:href="#未命名的渐变_27"/></defs><title>广东11选5</title><path class="cls-1" d="M45 88.42A43.42 43.42 0 1 1 88.42 45 43.47 43.47 0 0 1 45 88.42z" transform="translate(-1 -1)"/><path class="cls-2" d="M45 2.16A42.84 42.84 0 1 1 2.16 45 42.89 42.89 0 0 1 45 2.16M45 1a44 44 0 1 0 44 44A44 44 0 0 0 45 1z" transform="translate(-1 -1)"/><path class="cls-3" d="M45 2.16A42.84 42.84 0 1 1 2.16 45 42.89 42.89 0 0 1 45 2.16M45 1a44 44 0 1 0 44 44A44 44 0 0 0 45 1z" transform="translate(-1 -1)"/><path class="cls-4" d="M39 20.86l-5.67 18.36a.89.89 0 0 0 .84 1.15h5.8a.89.89 0 0 0 .85-.61L47 21.46a.89.89 0 0 0-.83-1.17h-6.3a.89.89 0 0 0-.87.57z" transform="translate(-1 -1)"/><path class="cls-5" d="M66.44 34.23l-20.16-.48a.12.12 0 0 0-.12.16l2.06 6.7a1.19 1.19 0 0 0 1.12.84l19.2.32a.84.84 0 0 0 .82-1.09l-1.7-5.52a1.31 1.31 0 0 0-1.22-.93z" transform="translate(-1 -1)"/><path class="cls-6" d="M62.88 64l-6.29-18.23a.89.89 0 0 0-1.37-.42l-4.62 3.42a.89.89 0 0 0-.31 1l6.14 18.36a.89.89 0 0 0 1.37.43L62.57 65a.89.89 0 0 0 .31-1z" transform="translate(-1 -1)"/><path class="cls-7" d="M32.73 69.59l15.45-11.53a.89.89 0 0 0 0-1.43l-4.58-3.31a.89.89 0 0 0-1 0L26.9 64.7a.89.89 0 0 0 0 1.44l4.78 3.46a.89.89 0 0 0 1.05-.01z" transform="translate(-1 -1)"/><path class="cls-8" d="M18.24 42.85l15.1 11.88a.89.89 0 0 0 1.37-.37L36.84 49a.89.89 0 0 0-.26-1L21.66 35.62a.89.89 0 0 0-1.39.36L18 41.83a.89.89 0 0 0 .24 1.02z" transform="translate(-1 -1)"/><path class="cls-9" d="M47.94 73.56s.81 9.5 14.34 6.39c0 0-13.27 10.3-21.65 3.48z" transform="translate(-1 -1)"/><path class="cls-10" d="M47.76 85.87L45 82.17l-4.4 1.26 2.65-3.77-2.53-3.83 4.36 1.36 2.83-3.63v4.62l4.29 1.59-4.33 1.49z" transform="translate(-1 -1)"/><path class="cls-11" d="M65.52 67.26s4.87 6.35 13-2c0 0-4.72 13.29-13.73 12.26z" transform="translate(-1 -1)"/><path class="cls-10" d="M71 76l-3.6-1.38-2.54 2.88.14-3.81-3.53-1.56 3.7-1 .36-3.85 2.12 3.24 3.75-.82-2.4 3z" transform="translate(-1 -1)"/><path class="cls-12" d="M74.73 52.63s7.46 2.91 10.13-8.44c0 0 2.85 13.81-5.39 17.6z" transform="translate(-1 -1)"/><path class="cls-10" d="M83.84 57.38L80 58l-.75 3.77-1.8-3.43-3.83.42L76.34 56l-1.62-3.51 3.46 1.74L81 51.66l-.55 3.8z" transform="translate(-1 -1)"/><path class="cls-13" d="M73.84 35.65s7.91-1.21 4.55-12.37c0 0 9.38 10.53 4.14 17.93z" transform="translate(-1 -1)"/><path class="cls-10" d="M84.16 35.11l-2.94 2.49 1.31 3.61-3.31-2-3.07 2.34.9-3.73-3.2-2.17 3.86-.3 1.09-3.68 1.49 3.54z" transform="translate(-1 -1)"/><path class="cls-14" d="M64.63 22.2s5.87-5.44-3.17-12.79c0 0 13.67 3.47 13.48 12.53z" transform="translate(-1 -1)"/><path class="cls-10" d="M72.87 16l-1 3.71 3.11 2.26-3.86.2-1.28 3.63-1.35-3.59h-3.86l3-2.41-1.13-3.67 3.22 2.1z" transform="translate(-1 -1)"/><path class="cls-15" d="M50.46 14.75s2.39-7.64-9.11-9.52c0 0 13.58-3.79 17.93 4.17z" transform="translate(-1 -1)"/><path class="cls-10" d="M54.51 5.25L55.46 9l3.82.42L56 11.49l.75 3.78-3-2.45-3.36 1.92 1.43-3.6-2.75-2.59 3.84.22z" transform="translate(-1 -1)"/><path class="cls-16" d="M34.73 15s-1-6.87-10.69-4c0 0 9.21-8 15.59-3.45z" transform="translate(-1 -1)"/><path class="cls-10" d="M34.34 6l2.14 2.57 3.14-1.1-1.76 2.85 2 2.68-3.23-.81-1.9 2.81-.23-3.35-3.18-1 3.08-1.27z" transform="translate(-1 -1)"/><path class="cls-17" d="M21.84 20.57s-3.39-4.07-8.56 1.64c0 0 2.78-8.91 8.76-8.46z" transform="translate(-1 -1)"/><path class="cls-10" d="M18 14.9l2.41.82 1.6-2v2.56l2.37.94L22 18l-.14 2.55-1.49-2.09-2.46.64 1.5-2.05z" transform="translate(-1 -1)"/><path class="cls-18" d="M13.89 29s-3.2-2.39-6 2.71c0 0 .47-7 4.93-7.74z" transform="translate(-1 -1)"/><path class="cls-10" d="M10.09 25.48l1.91.18.83-1.73.44 1.88 1.9.27-1.64 1 .35 1.9-1.46-1.27-1.69.9.74-1.77z" transform="translate(-1 -1)"/></svg>