<svg id="图层_1" xmlns="http://www.w3.org/2000/svg" xmlns:xlink="http://www.w3.org/1999/xlink" viewBox="0 0 80 80"><style>.st0{clip-path:url(#SVGID_2_)}.st1{fill:#fc0}.st1,.st2,.st3{fill-rule:evenodd;clip-rule:evenodd}.st2{fill:#0cf}.st3{fill:#b100fe}.st4,.st5{clip-path:url(#SVGID_2_)}.st4{fill-rule:evenodd;clip-rule:evenodd;fill:url(#SVGID_3_)}.st5{fill:url(#SVGID_4_)}.st5,.st6,.st7{fill-rule:evenodd;clip-rule:evenodd}.st6{clip-path:url(#SVGID_2_);fill:url(#SVGID_5_)}.st7{fill:#f55100}.st7,.st8,.st9{clip-path:url(#SVGID_2_)}.st8{fill-rule:evenodd;clip-rule:evenodd;fill:url(#SVGID_6_)}.st9{fill:url(#SVGID_7_)}.st10,.st11,.st9{fill-rule:evenodd;clip-rule:evenodd}.st10{clip-path:url(#SVGID_2_);fill:url(#SVGID_8_)}.st11{fill:url(#SVGID_9_)}.st12,.st13{clip-path:url(#SVGID_2_)}.st12{fill-rule:evenodd;clip-rule:evenodd;fill:url(#SVGID_10_)}.st13{fill:#ea7500}.st13,.st14,.st15,.st16,.st17{fill-rule:evenodd;clip-rule:evenodd}.st14{clip-path:url(#SVGID_2_);fill:url(#SVGID_11_)}.st15{fill:#fff}.st16{fill:#f55100}.st17{clip-path:url(#SVGID_2_);fill:#fff}</style><defs><circle id="SVGID_1_" cx="40" cy="40" r="38"/></defs><clipPath id="SVGID_2_"><use xlink:href="#SVGID_1_" overflow="visible"/></clipPath><g class="st0"><circle class="st1" cx="38.6" cy="18" r="34.1"/><circle class="st2" cx="19.1" cy="50.3" r="34.1"/><circle class="st3" cx="60.6" cy="52.1" r="34.1"/></g><linearGradient id="SVGID_3_" gradientUnits="userSpaceOnUse" x1="41.166" y1="77.925" x2="41.166" y2="9.598"><stop offset="0" stop-color="#ff6c00"/><stop offset="1" stop-color="#ff7e00"/></linearGradient><path class="st4" d="M65.7 15.5s5.9.8 7.7 9.3l1 29c.1 0 .5 5.5-4.1 8.9-4.7 2.7-21.9 13-23 13.4-1.1.5-5 3.3-16.2.4-6-2.9-16.1-7.6-17.4-8.6-5.3-3.7-5.3-8-5.3-8l-.5-34.8s1.1-5.4 4.9-6.7l25.6-8.8 27.3 5.9z"/><linearGradient id="SVGID_4_" gradientUnits="userSpaceOnUse" x1="38.863" y1="66.682" x2="38.863" y2="55.678"><stop offset="0" stop-color="#ff6f00"/><stop offset="1" stop-color="#ff7b00"/></linearGradient><ellipse class="st5" cx="38.9" cy="61.2" rx="9.7" ry="5.5"/><radialGradient id="SVGID_5_" cx="41.166" cy="35.876" r="20.287" gradientUnits="userSpaceOnUse"><stop offset="0" stop-color="#fff"/><stop offset="1" stop-color="#ff7b00"/></radialGradient><path class="st6" d="M41.2 15.6c11.2 0 20.3 9.1 20.3 20.3 0 11.2-9.1 20.3-20.3 20.3-11.2 0-20.3-9.1-20.3-20.3 0-11.2 9.1-20.3 20.3-20.3z"/><path class="st7" d="M13.1 23.6L34 32.3c2.6 1.3 5.2 4 5.2 6.7v34.3c0 2.6-6.5 4.3-9.1 3.1l-16.1-8c-2.6-1.3-5.6-5.4-5.6-8V25.8c0-2.6 1.9-3.7 4.7-2.2z"/><linearGradient id="SVGID_6_" gradientUnits="userSpaceOnUse" x1="57.122" y1="75.429" x2="57.122" y2="22.489"><stop offset="0" stop-color="#d53700"/><stop offset=".999" stop-color="#f55100"/></linearGradient><path class="st8" d="M69.2 22.8l-23.1 9c-2.6 1.3-5.7 3.7-5.7 6.4l.5 32.7c0 3.5 3.7 5.4 6.4 4.1l21.2-12.5c2.6-1.3 5.5-5.2 5.5-7.8l-.8-28.6c-.1-2.6-1.4-4.4-4-3.3z"/><path class="st7" d="M14.6 22.4s-6-2.2.3-4.4c6.3-2.3 23.2-8.5 23.2-8.5s2.8-1.3 7.4-.2l20.6 6.4s4.5 2 1.7 5.6c0 0-.5.4-1.3.7-.7.3-21 7.9-21 7.9s-7 2.4-12.6.3l-18.3-7.8z"/><linearGradient id="SVGID_7_" gradientUnits="userSpaceOnUse" x1="27.95" y1="67.435" x2="27.95" y2="25.072"><stop offset="0" stop-color="#f55100"/><stop offset="1" stop-color="#ff711b"/></linearGradient><path class="st9" d="M16.7 25.1s.8 3.7 7.1 10.6c6.3 6.8 15.1 29.7 15.5 31.8V38.7s-.1-4.4-6.4-7l-16.2-6.6z"/><linearGradient id="SVGID_8_" gradientUnits="userSpaceOnUse" x1="51.298" y1="64.586" x2="51.298" y2="25.506"><stop offset="0" stop-color="#f55100"/><stop offset="1" stop-color="#ff6e04"/></linearGradient><path class="st10" d="M62.3 25.5s-9.1 5.1-11.8 20c-2.9 13.6-9.7 19.1-9.7 19.1l-.4-26.3s-.5-3.7 6.4-6.8l15.5-6z"/><g class="st0"><linearGradient id="SVGID_9_" gradientUnits="userSpaceOnUse" x1="21.541" y1="54.136" x2="36.9" y2="54.136"><stop offset="0" stop-color="#fefcec"/><stop offset="1" stop-color="#faba09"/></linearGradient><path class="st11" d="M29.6 58.6s-1.2 1.5-.4 4.7c.7 3.2 2.2 6.8 4.2 7 1.4-.1 1.4-5.3.6-7.1-.7-1.8-1.8-5.1-4.4-4.6zm7.1-3.5c-.5-1.2-2.9-1.4-3.6-2-.2-.4.8-5.4.8-5.4v-1s-.6-1-4.2-2.4c0 0 .2-.7.4-1.3.2-.5.6-3 0-3.6-.6-.6-3.2-1.8-5.4-1.4 0 0-.2 1.3 2 1.7 0 0 .7.6-.3 3.3 0 0-.6.1-1.2-.3s-1.9-1.5-2-.3c-.1 1.2.3 2.6 2.8 3.4.5 1.8.1 3.8.1 3.8s.1.7-1.7-.3c-1.7-1-2.9-1.3-2.9.5s.3 3.1.3 3.1 2 .4 2.9 1.2c-.2 1.1-.6 3.5-.8 4.6-.2 1-1.3 7.1-.3 8 0 0 3-2.9 4-11.3 0 0 .6-.4 1.5 0s6 2.9 7.6 2.8c0-.1.5-1.9 0-3.1z"/></g><linearGradient id="SVGID_10_" gradientUnits="userSpaceOnUse" x1="10.393" y1="45.51" x2="23.995" y2="45.51"><stop offset="0" stop-color="#fefcec"/><stop offset="1" stop-color="#faba09"/></linearGradient><path class="st12" d="M12.5 34s-.7 4.4-.1 7.3c-.7 0-3.9.8-.5 3.8 0 0 .7 3.4 1.3 2.5.6-.8.5-2.1.6-2.1.2 0 2.8.1 2.4 1.3-.4 1.2-2.3 8.7-.4 9.8 1.9 1.2 2.6.8 2.6.8l1.3-.1s.1-.6.1-1.3c0-.7-1.2-9.8.5-9.2 1.7.6 3.3 1.4 3.6.1.3-1.3-2.8-2.3-3.7-2.5 0 0-.2-4 2.6-11 0 0-3-.8-6.1 9.6l-1.7-.6c.2-.3 1.7-3.7 1.1-6.4-.6-2.5-4.1-2-3.6-2z"/><path class="st13" d="M30.8 47.9s.2 2.3-.2 3.4-2 .3-2.1-.7c-.1-1.1.4-3.2.6-3.3.2-.1.2-.4 1 0 .7.4.7.6.7.6z"/><linearGradient id="SVGID_11_" gradientUnits="userSpaceOnUse" x1="66.091" y1="49.847" x2="46.3" y2="49.847"><stop offset="0" stop-color="#faba09"/><stop offset="1" stop-color="#fefcec"/></linearGradient><path class="st14" d="M57.7 37.9s-4.8 2-10.2 4.1c-.4 0-.8.1-.8.1s-.8-4.1 3.2-6c3.6-1.2 15.8-6.2 15.8-6.2l-8.5 15s5.6-2.1 7.5.4c2 2.5 1.7 5.7-.3 10.4S51 67.9 46.3 69.9c0 0 10.9-10.7 12.3-14.2 1.4-3.5-.8-7.6-5.6-7.1v-2.2c.6-1 4.7-8.5 4.7-8.5z"/><g class="st0"><path class="st15" d="M50.1 15.5l-7-.2-8.3 12 6.9.1 2.3-3.6s7.2 1.2 10.8-2.4c2.4-4.1-4.7-5.9-4.7-5.9zm-7.2-.3h3.8l1.4-1.6h-6.6l-8.4 12h2.6l7.2-10.4zm-1.5-1.9l3.6.1 1.5-1.8H40l-8.3 12 2.4.2 7.3-10.5zM31 19.2c.9-1.2 3.7-.6 3.7-.6s2.1-3 2.2-3.1c-6.9-.8-12.1 2.1-11.6 5.2.6 3.1 6 3.1 6 3.1l1.4-2.1c.1-.1-2.6-1.3-1.7-2.5z"/></g><g class="st0"><path class="st16" d="M46 15.1l1-1h-5.4l-7.7 11.1h1.3l7-10.2 3.8.1zm-1.5-2l1-1h-5.4l-7.8 11.3h1.4L40.8 13h3.7zm-14.1 6.1c1.1-1.6 3.8-.9 3.8-1l1.7-2.3s-8.3-.4-10 3.3c-1.7 3.7 4.3 4.1 4.9 4.1l1.1-1.6c0 .1-2.6-.8-1.5-2.5zM49.3 16l-6.3-.1L35.4 27H41l2.5-3.7s7.3 1 10.6-2.3c2.2-3.7-4.8-5-4.8-5z"/></g><path class="st17" d="M47.3 17.8L45.1 21s-.2.5 2.6.2c2.9-.2 4.2-3.4-.4-3.4z"/><path class="st7" d="M47.7 18.5l-1.6 2.3s3 0 3.6-1.4c.3-1-2-.9-2-.9z"/></svg>