<?xml version="1.0" encoding="iso-8859-1"?>
<!-- Generator: Adobe Illustrator 21.0.0, SVG Export Plug-In . SVG Version: 6.00 Build 0)  -->
<svg version="1.1" id="shsihicai" xmlns="http://www.w3.org/2000/svg" xmlns:xlink="http://www.w3.org/1999/xlink" x="0px" y="0px"
	 viewBox="0 0 80 80" style="enable-background:new 0 0 80 80;" xml:space="preserve">
<symbol  id="shishicai" viewBox="-40 -40 80 80">
	<rect x="-40" y="-40" style="fill:none;" width="80" height="80"/>
	<g>
		<linearGradient id="SVGID_1_" gradientUnits="userSpaceOnUse" x1="-38" y1="0" x2="38" y2="0">
			<stop  offset="0" style="stop-color:#FF4A4A"/>
			<stop  offset="1" style="stop-color:#FF5F72"/>
		</linearGradient>
		<circle style="fill:url(#SVGID_1_);" cx="0" cy="0" r="38"/>
		<linearGradient id="SVGID_2_" gradientUnits="userSpaceOnUse" x1="-27.9057" y1="-1.1093" x2="27.4036" y2="-1.1093">
			<stop  offset="0" style="stop-color:#FF3937"/>
			<stop  offset="1" style="stop-color:#F2715F"/>
		</linearGradient>
		<path style="opacity:0.5;fill-rule:evenodd;clip-rule:evenodd;fill:url(#SVGID_2_);" d="M23.279,18.092
			c8.021-9.829,3.989-26.393-9.006-36.998S-15.76-30.14-23.781-20.311s-3.989,26.393,9.006,36.998S15.258,27.921,23.279,18.092z"/>
		<g>
			<g>
				<g>
					<g>
						<path style="fill-rule:evenodd;clip-rule:evenodd;fill:#FFFFFF;" d="M22.142,16.156c-1.007,3.995,2.628,8.499,2.628,8.499
							l-4.008-1.351c0,0-2.392-4.468-2.078-6.871s1.774-4.043,0.215-7.915c-1.559-3.872-5.889-9.647-4.025-11.704
							c1.864-2.058,4.062-2.994,0.197-6.283c-3.865-3.289-12.472-6.905-16.215-16.847l8.074,2.211c0,0,0.68,4.718,4.704,8.01
							c4.071,3.331,9.661,7.451,9.905,10.432s-2.875,3.11-3.365,4.675c-0.49,1.565,1.27,3.979,3.068,6.537
							C23.039,8.107,23.149,12.16,22.142,16.156z"/>
						<polygon style="fill-rule:evenodd;clip-rule:evenodd;fill:#FFFFFF;" points="17.036,17.808 13.962,16.224 13.869,12.592 
							17.036,14.082 						"/>
						<path style="fill-rule:evenodd;clip-rule:evenodd;fill:#FFFFFF;" d="M-6.203,2.639L-4.527,8.6l1.025,0.466l0.279,1.49
							l-5.868-2.794L-14.027-9.47l5.961,2.794l2.701,9.594L-6.203,2.639z M-8.8-3.546l-1.503-0.745l0.699,2.756l1.472,0.564
							L-8.8-3.546z M-7.593,2.107l-1.472-0.601l0.76,2.781l1.428,0.567L-7.593,2.107z"/>
						<polygon style="fill-rule:evenodd;clip-rule:evenodd;fill:#FFFFFF;" points="13.682,0.484 14.241,8.959 15.638,9.704 
							16.197,12.126 12.192,10.077 12.379,11.102 9.119,9.518 8.746,8.401 4.555,6.351 3.903,3.837 5.3,4.395 1.108,-5.664 
							4.182,-4.267 7.628,4.023 5.579,-3.801 9.025,-2.125 11.075,5.886 10.609,-1.007 						"/>
						<polygon style="fill-rule:evenodd;clip-rule:evenodd;fill:#FFFFFF;" points="7.721,9.425 9.584,13.71 9.677,10.357 
							12.751,12.033 12.751,15.759 9.957,14.362 10.329,15.2 17.315,18.739 18.898,22.372 15.545,20.788 15.266,19.857 
							8.373,16.411 4.555,7.935 						"/>
						<path style="fill-rule:evenodd;clip-rule:evenodd;fill:#FFFFFF;" d="M-22.024-3.271l1.677,5.961l1.025,0.466l0.279,1.49
							l-5.868-2.794l-4.936-17.231l5.961,2.794l2.701,9.594L-22.024-3.271z M-24.783-9.599l-1.41-0.645l0.639,2.561l1.346,0.497
							L-24.783-9.599z M-23.472-3.514l-1.444-0.468l0.763,2.474l1.276,0.492L-23.472-3.514z"/>
						<path style="fill-rule:evenodd;clip-rule:evenodd;fill:#FFFFFF;" d="M2.506,7.376l1.583,0.838L5.3,12.685l-1.304-0.652
							l0.745,3.446l-2.98-1.397L0.643,10.45l-4.843-2.422L-5.411,3.65c0,0,3.629,1.669,4.75,2.235l-0.373-1.397
							c0.738-2.727-1.304-5.03-1.304-5.03s-0.132-0.388-0.466-1.49c-0.334-1.102-2.515-1.677-2.515-1.677l-1.211-4.191
							c0,0,3.355,1.572,4.471,2.142c1.115,0.571,1.677,3.074,1.677,3.074L2.506,7.376z"/>
						<path style="fill-rule:evenodd;clip-rule:evenodd;fill:#FFFFFF;" d="M-1.98,1.335c0.5,1.261,0.348,2.487-0.338,2.736
							c-0.686,0.25-1.647-0.57-2.147-1.831c-0.5-1.261-0.348-2.487,0.338-2.736C-3.441-0.746-2.48,0.074-1.98,1.335z"/>
						<path style="fill-rule:evenodd;clip-rule:evenodd;fill:#FFFFFF;" d="M-17.675-4.59c0.5,1.261,0.348,2.487-0.338,2.736
							c-0.686,0.25-1.648-0.57-2.147-1.831s-0.348-2.487,0.338-2.736C-19.135-6.671-18.174-5.851-17.675-4.59z"/>
						<path style="fill-rule:evenodd;clip-rule:evenodd;fill:#FFFFFF;" d="M-11.732,2.16l1.211,4.471l-1.304-0.652l0.745,3.446
							l-2.981-1.397l-1.118-3.633l-4.843-2.422l-1.211-4.378c0,0,3.629,1.669,4.75,2.235l-0.373-1.397
							c0.738-2.727-1.304-5.03-1.304-5.03s-0.132-0.388-0.466-1.49c-0.334-1.102-2.515-1.677-2.515-1.677l-1.211-4.191
							c0,0,3.355,1.572,4.471,2.142c1.115,0.571,1.677,3.074,1.677,3.074l2.887,10.059L-11.732,2.16z"/>
					</g>
				</g>
			</g>
			<g>
				<g>
					<path style="fill-rule:evenodd;clip-rule:evenodd;fill:#FFFFFF;" d="M-10.902-13.951c-0.941,0.136-1.978-0.879-2.316-2.266
						c-0.338-1.387,0.151-2.622,1.091-2.758c0.941-0.136,1.978,0.879,2.316,2.266C-9.473-15.321-9.961-14.086-10.902-13.951z
						 M-10.644-16.629c-0.167-0.709-0.675-1.228-1.134-1.16c-0.459,0.068-0.696,0.698-0.529,1.406s0.675,1.228,1.134,1.16
						C-10.714-15.291-10.477-15.921-10.644-16.629z M-9.661-14.553l1.103,0.44l-0.207-3.519l1.015,0.361l0.294,3.598l1.696,0.657
						l-0.12-3.44l1.02,0.444l0.207,3.519l1.01,0.277l0.069,1.173l-6.02-2.336L-9.661-14.553z M-0.498-10.888l0.059,1.005
						l-2.881-1.092l-0.189-4.613l2.881,1.092l0.059,1.005l-1.861-0.647l0.054,0.922l1.608,0.578l0.054,0.922l-1.603-0.494
						l0.035,0.586L-0.498-10.888z M5.333-7.531l-0.599-1.73L4.06-8.045L2.87-8.564c0,0,1.088-1.856,1.208-2.005l-0.123-2.095
						l1.103,0.44l0.123,2.095l1.421,3.027L5.333-7.531z M2.037-11.457c0,0,0.555,0.751,0.642,1.055
						c0.087,0.304,0.289,1.837-0.572,1.547c-0.861-0.29-2.201-0.795-2.201-0.795l-0.359-4.687l1.02,0.444l0.108,1.843l0.413-0.024
						l0.582-1.38l1.185,0.435C2.856-13.019,2.415-11.432,2.037-11.457z M1.581-10.758l-0.603-0.385l-0.165,0.01l-0.028,0.927
						c0,0,0.582,0.221,0.845,0.287S1.581-10.758,1.581-10.758z M-14.854-15.509l-1.098-0.356l-0.276-4.692l2.716,1.101l0.147,1.084
						l-1.608-0.578L-14.854-15.509z"/>
				</g>
			</g>
		</g>
	</g>
</symbol>
<use xlink:href="#shishicai"  width="80" height="80" x="-40" y="-40" transform="matrix(1 0 0 -1 40 40)" style="overflow:visible;"/>
</svg>
