<svg xmlns="http://www.w3.org/2000/svg" xmlns:xlink="http://www.w3.org/1999/xlink" width="98" height="98" viewBox="0 0 98 98"><defs><style>.cls-1{isolation:isolate}.cls-2{fill:url(#linear-gradient)}.cls-3{fill:url(#linear-gradient-2)}.cls-4{fill:#5b4588;opacity:.66;mix-blend-mode:overlay}.cls-5{fill:#f34433}.cls-6{fill:url(#linear-gradient-3)}.cls-7{fill:#f22f2a}.cls-8{fill:#ef2318}.cls-9{fill:#fd5a4b;fill-rule:evenodd}.cls-10{fill:#fff}</style><linearGradient id="linear-gradient" x1="50" y1="1" x2="50" y2="99.73" gradientUnits="userSpaceOnUse"><stop offset="0" stop-color="#fe4233"/><stop offset="1" stop-color="#fc695a"/></linearGradient><linearGradient id="linear-gradient-2" x1="44.27" x2="44.27" y2="98.73" gradientUnits="userSpaceOnUse"><stop offset="0" stop-color="#0091f6"/><stop offset="1" stop-color="#2faefd"/></linearGradient><linearGradient id="linear-gradient-3" x1="46.18" x2="46.18" y2="98.73" xlink:href="#linear-gradient-2"/></defs><title>sd11x5</title><g class="cls-1"><g id="图层_1" data-name="图层 1"><path class="cls-2" d="M99 50A49 49 0 1 1 50 1a49 49 0 0 1 49 49z" transform="translate(-1 -1)"/><path class="cls-3" d="M44.23 48.09l.07.03-.07-.03z"/><path class="cls-4" d="M44.23 48.09l.07.03-.07-.03z"/><path class="cls-5" d="M48.56 51.73l-2.57.4C33 61.8 26.82 78 29.74 92.3a10.06 10.06 0 0 0 .62 2.6A49.5 49.5 0 0 0 50 99c-2.31-1.95-16.14-14.88-1.44-47.27z" transform="translate(-1 -1)"/><path class="cls-6" d="M46.16 44.97l.04.06-.04-.06z"/><path class="cls-4" d="M46.16 44.97l.04.06-.04-.06z"/><path class="cls-5" d="M48.26 49.81L46 48.51c-16.34-.69-31.25 6.08-38.2 19a11.75 11.75 0 0 0-1.3 2.81 3.76 3.76 0 0 0 .05 1.85c.64 1.28 1.32 2.55 2.08 3.79a48.94 48.94 0 0 0 9.9 11.66c-.53-2.81-2.71-21.85 29.73-37.81z" transform="translate(-1 -1)"/><path class="cls-7" d="M49.39 47.72l-.94-2.48v.06C36.24 34.52 20.31 30.4 6.6 36.05a12.08 12.08 0 0 0-2.82 1.36 3.75 3.75 0 0 0-.74.77 49.06 49.06 0 0 0-1 20c1.84-3.05 12.72-18.26 47.35-10.46z" transform="translate(-1 -1)"/><path class="cls-8" d="M51.42 47.15l.87-2.51v.06C49.71 28.66 40 15.49 25.72 11.26a12.19 12.19 0 0 0-3.07-.71 3.88 3.88 0 0 0-.68.05A48.69 48.69 0 0 0 8.33 25.44c4.15-1.39 21.93-5.18 43.09 21.71z" transform="translate(-1 -1)"/><path class="cls-8" d="M53.32 48.86l2.27-1.38c8.48-14.19 9.47-30.67 1-43A12 12 0 0 0 54.67 2a3.86 3.86 0 0 0-.54-.37 48.73 48.73 0 0 0-20.69 2.9c3.71 1.24 20.87 9.1 19.88 44.33z" transform="translate(-1 -1)"/><path class="cls-9" d="M50.4 36.56A13.84 13.84 0 1 1 36.56 50.4 13.84 13.84 0 0 1 50.4 36.56z" transform="translate(-1 -1)"/><path class="cls-10" d="M88.16 33.25H61.68l-6.23 24.14 7.78 1.34a8.38 8.38 0 0 1 6.66-3.31 5.19 5.19 0 0 1 4.34 2 5.6 5.6 0 0 1 1 4.71 8 8 0 0 1-2.68 4.55 7.66 7.66 0 0 1-5.26 1.93q-5.6 0-6-5.61l-9.5 1.4q.88 12.1 14.31 12.1A19.4 19.4 0 0 0 79 72.26a18 18 0 0 0 6.35-10.87q1.13-6-2.12-9.78a11.18 11.18 0 0 0-9-3.79 14 14 0 0 0-9.65 3.65l2.5-9.47h18.35z" transform="translate(-1 -1)"/><path class="cls-10" d="M38.75 38.66h-6.5l-.56 3.17h1.83l-3 16h31.95l-2.28-3.47H35.86l.44-1.84zm-3.17-6.42a3.41 3.41 0 0 0-1.25 1 3.37 3.37 0 0 0-.64 1.42 2.44 2.44 0 0 0 .12 1.42 2.21 2.21 0 0 0 .86 1 2.37 2.37 0 0 0 1.37.37 3.15 3.15 0 0 0 1.48-.38 3.74 3.74 0 0 0 1.23-1 3.2 3.2 0 0 0 .62-1.41 2.68 2.68 0 0 0-.14-1.44 2 2 0 0 0-.88-1 2.67 2.67 0 0 0-1.35-.34 3.31 3.31 0 0 0-1.42.36zm3.79 9l-.54 3h9.32l-1.45 8.32h7.72l2-3.1H51.7l.93-5.25h3l1.92-3h-6.93l.74-4.15h5.31l2-3.08H51.9l.39-2.19h-4.45L47.45 34h-1.57l.82-1.91h-4.52L39 39.66h4.51l1.1-2.54h2.29l-.74 4.15zm2.69 4.15l-4 7.26h4.45l4-7.26zm-18.78-3.53l-1.95 15.87h6.86l3.06-24.93h-4.58a44 44 0 0 1-4.84 2.27L21 41.86c.44-.06 1.8.11 2.28 0zm-10.63 0l-1.94 15.87h6.86l3.06-24.93H16a44 44 0 0 1-4.84 2.27l-.83 6.8c.44-.06 1.8.11 2.28 0z" transform="translate(-1 -1)"/></g></g></svg>