<?xml version="1.0" encoding="utf-8"?>
<!-- Generator: Adobe Illustrator 21.0.0, SVG Export Plug-In . SVG Version: 6.00 Build 0)  -->
<svg version="1.1" id="图层_1" xmlns="http://www.w3.org/2000/svg" xmlns:xlink="http://www.w3.org/1999/xlink" x="0px" y="0px"
	 viewBox="0 0 80 80" style="enable-background:new 0 0 80 80;" xml:space="preserve">
<style type="text/css">
	.st0{fill-rule:evenodd;clip-rule:evenodd;fill:url(#SVGID_1_);}
	.st1{fill-rule:evenodd;clip-rule:evenodd;fill:#3CAFFC;}
	.st2{fill:#FFFFFF;}
</style>
<g>
	<linearGradient id="SVGID_1_" gradientUnits="userSpaceOnUse" x1="40" y1="8.543671e-02" x2="40" y2="77.4039">
		<stop  offset="0" style="stop-color:#0091F6"/>
		<stop  offset="1" style="stop-color:#2FAEFD"/>
	</linearGradient>
	<path class="st0" d="M40,1c21.5,0,39,17.5,39,39c0,21.5-17.5,39-39,39S1,61.5,1,40C1,18.5,18.5,1,40,1z"/>
	<path class="st1" d="M45.3,37.4l10.2-10.3c2.5-2.5,6.6-2.5,9.1,0l10.2,10.3c2.5,2.5,2.5,6.6,0,9.2L64.6,56.8
		c-2.5,2.5-6.6,2.5-9.1,0L45.3,46.5C42.8,44,42.8,39.9,45.3,37.4z"/>
	<path class="st1" d="M5.2,37.4l10.2-10.3c2.5-2.5,6.6-2.5,9.1,0l10.2,10.3c2.5,2.5,2.5,6.6,0,9.2L24.5,56.8c-2.5,2.5-6.6,2.5-9.1,0
		L5.2,46.5C2.7,44,2.7,39.9,5.2,37.4z"/>
	<path class="st1" d="M25.3,15.5L35.5,5.2c2.5-2.5,6.6-2.5,9.1,0l10.2,10.3c2.5,2.5,2.5,6.6,0,9.2L44.5,35c-2.5,2.5-6.6,2.5-9.1,0
		L25.3,24.7C22.8,22.2,22.8,18.1,25.3,15.5z"/>
	<path class="st2" d="M21.3,31.4h-3.9v19.5h3.9V35.3h1.6v20.3h3.9V35.3h2.3v-3.9h-2.3v-3.9h-3.9v3.9H21.3L21.3,31.4z M28.3,35.3H33
		v6.2h-5.5v3.9h4.7l-2.5,5.3c-0.4,0.7-0.9,0.9-1.6,0.9l-0.6,0.1v3.9h2.3c1.3,0.1,2.5-1,3.3-2.3l2.2-4l2.9,4c0.6,1.2,1.5,2.3,2.5,2.3
		h3.9v-3.9l-1.9-0.1c-0.7,0.1-1.3-0.3-1.7-1.2l-3.4-5h7v-3.9h-0.8V31.4h-7v-3.9H33v3.9l-5,0L28.3,35.3z M36.9,35.3H40v6.2h-3.1V35.3
		z"/>
	<path class="st2" d="M53.9,56c5.8-0.4,9-2.7,9.6-7c-0.1-3.8-1.9-6.2-5.3-7.3c3.2-0.8,5-3,5.2-6.7c-0.4-4-3.5-6.2-9.1-6.9
		c-5.9,0.2-8.9,2.7-9.1,7.6H51c0.2-2.1,1.3-3.4,3.2-3.7c2.1,0.1,3.2,1.3,3.4,3.7c0,2.8-2.2,4.3-6.6,4.3v3.8c4.3-0.1,6.4,1.4,6.6,4.4
		c-0.2,2.6-1.4,4-3.5,4.1c-2.1-0.2-3.3-1.6-3.4-4.1h-5.9C44.7,53.5,47.7,56,53.9,56L53.9,56z"/>
</g>
</svg>
