<svg id="图层_1" data-name="图层 1" xmlns="http://www.w3.org/2000/svg" width="100" height="100" viewBox="0 0 100 100"><defs><style>.cls-1,.cls-2{fill-rule:evenodd}.cls-1{fill:url(#linear-gradient)}.cls-2{fill:#7c87ea}.cls-3{fill:#fff}</style><linearGradient id="linear-gradient" x1="50" y1="-1.17" x2="50" y2="97.95" gradientUnits="userSpaceOnUse"><stop offset="0" stop-color="#6871d0"/><stop offset="1" stop-color="#8d96e4"/></linearGradient></defs><title>jxk3</title><path class="cls-1" d="M50 0A50 50 0 1 1 0 50 50 50 0 0 1 50 0z"/><path class="cls-2" d="M56.8 46.62l13.09-13.21a8.17 8.17 0 0 1 11.63 0L94.6 46.62a8.36 8.36 0 0 1 0 11.74L81.52 71.58a8.17 8.17 0 0 1-11.63 0L56.8 58.37a8.36 8.36 0 0 1 0-11.75zm-51.4 0l13.08-13.21a8.17 8.17 0 0 1 11.63 0L43.2 46.62a8.36 8.36 0 0 1 0 11.74L30.11 71.58a8.17 8.17 0 0 1-11.63 0L5.4 58.37a8.36 8.36 0 0 1 0-11.75zm25.7-27.99L44.18 5.42a8.17 8.17 0 0 1 11.63 0L68.9 18.63a8.36 8.36 0 0 1 0 11.74L55.82 43.59a8.17 8.17 0 0 1-11.63 0L31.1 30.38a8.36 8.36 0 0 1 0-11.75z"/><path class="cls-3" d="M26 39h-5v25h5V44h2v26h5V44h3v-5h-3v-5h-5v5zm9 5h6v8h-7v5h6l-3.19 6.83a2 2 0 0 1-2 1.09L34 65v5h3c1.66.1 3.25-1.33 4.19-2.89L44 62l3.75 5.11c.83 1.56 1.9 3 3.25 2.89h5v-5l-2.47-.08q-1.41.16-2.19-1.56L47 57h9v-5h-1V39h-9v-5h-5v5h-6.38zm11 0h4v8h-4z"/><path class="cls-3" d="M67.83 70.56q11.13-.78 12.3-9-.2-7.22-6.84-9.37 6.25-1.56 6.64-8.59-.77-7.6-11.7-8.78-11.33.39-11.72 9.77h7.62q.39-4.1 4.1-4.69 4.1.2 4.3 4.69 0 5.47-8.4 5.47v4.88q8.2-.19 8.4 5.66-.39 5.08-4.49 5.27-4.1-.39-4.3-5.27h-7.62q-.2 10 11.72 10z"/></svg>