<svg id="图层_1" data-name="图层 1" xmlns="http://www.w3.org/2000/svg" width="200" height="400" viewBox="0 0 200 400"><defs><style>.cls-1,.cls-9{fill:#fff}.cls-2{fill:#36ad37}.cls-3{fill:#1eaa39}.cls-4{fill:#3f81ee}.cls-11,.cls-4,.cls-9{fill-rule:evenodd}.cls-5{fill:#de3232}.cls-6{fill:#004888}.cls-7{fill:#008089}.cls-8{fill:#fd7800}.cls-10,.cls-11{fill:#5d7eca}.cls-12{fill:#e2231a}.cls-13{fill:url(#未命名的渐变_28)}.cls-14{fill:#d2b364}</style><linearGradient id="未命名的渐变_28" x1="122.35" y1="336.74" x2="157.65" y2="301.44" gradientUnits="userSpaceOnUse"><stop offset="0" stop-color="#e4e4e3"/><stop offset=".2" stop-color="#cfd0d0"/><stop offset=".33" stop-color="#d9d9d9"/><stop offset=".75" stop-color="#f5f5f5"/><stop offset="1" stop-color="#fff"/></linearGradient></defs><title>recharge-way</title><path class="cls-1" d="M166 1h-52a13 13 0 0 0-13 13v52a13 13 0 0 0 13 13h52a13 13 0 0 0 13-13V14a13 13 0 0 0-13-13z"/><path class="cls-2" d="M139.1 28.1a2.7 2.7 0 0 0 2.9-2.9 2.7 2.7 0 0 0-2.9-2.9c-1.7 0-3.5 1.2-3.5 2.9s1.8 2.9 3.5 2.9zm7.5 11.1a2.3 2.3 0 0 0 0 4.7 2.6 2.6 0 0 0 2.9-2.3 2.6 2.6 0 0 0-2.9-2.4zM123 22.3c-1.7 0-3.5 1.2-3.5 2.9s1.7 2.9 3.5 2.9a2.7 2.7 0 0 0 2.9-2.9 2.7 2.7 0 0 0-2.9-2.9zm36.3 16.9a2.3 2.3 0 0 0 0 4.7 2.6 2.6 0 0 0 2.9-2.3 2.6 2.6 0 0 0-2.9-2.4z"/><path class="cls-2" d="M166 1h-52a13 13 0 0 0-13 13v52a13 13 0 0 0 13 13h52a13 13 0 0 0 13-13V14a13 13 0 0 0-13-13zm-35.5 51a38.9 38.9 0 0 1-8.1-1.2l-8 4.1 2.3-7c-5.8-4.1-9.2-9.3-9.2-15.7 0-11.1 10.4-19.8 23-19.8s21.2 7 23.2 16.4h-2.2c-10.9 0-19.6 8.3-19.6 18.4a17.5 17.5 0 0 0 .7 4.9zm33.9 8.2l1.7 5.8-6.3-3.5a28.6 28.6 0 0 1-6.9 1.2c-10.9 0-19.6-7.6-19.6-16.9S142 29.9 153 29.9s19.5 7.6 19.5 16.9c0 5.2-3.4 9.9-8.1 13.4z"/><path class="cls-3" d="M165.9 101H114a13 13 0 0 0-13 13v52a13 13 0 0 0 13 13h51.9a13 13 0 0 0 13-13v-52a13 13 0 0 0-13-13z"/><path class="cls-1" d="M113.9 140c0-16.3 13.7-29.6 30.9-30.4h-1.9c-19.9 0-36.1 13.6-36.1 30.4s16.2 30.4 36.1 30.4h1.9c-17.2-.8-30.9-14.1-30.9-30.4z"/><path class="cls-1" d="M146.1 115h-1.9c12.5.9 22.4 11.7 22.4 25s-9.9 24.1-22.4 25h1.9c15.2 0 27.5-11.2 27.5-25.1S161.3 115 146.1 115z"/><path class="cls-1" d="M143.7 137.7a2.2 2.2 0 0 0-.1 3 2.2 2.2 0 0 0 3 .7l9.5-7.2s1.6-1.3 0-3.2c0 0-7.1-11.9-18.9-5.1l-9.4 4.5s-12.1 4.7-5.4 13.4a12.8 12.8 0 0 0 3.3 3.1s9.5 7.5 10.8 8.2 7.8 4.2 13.7-1.9c0 0 11-11.9 11.9-14.1a4.6 4.6 0 0 0 .4-1.8s-.7-2.6-4 .4c0 0-4.9 5.3-7.4 7.6 0 0-2.9 3.7-6.8 1.1 0 0-2-.9-9.1-7.6 0 0-3.2-2.8-1.1-5.3 0 0 7.3-6.3 11.4-3.7a29.4 29.4 0 0 1 2.9 2 1.3 1.3 0 0 1 0 2.3z"/><path class="cls-4" d="M19.4 63.4c-7.6 0-11.5-3.3-11.5-9.9 0-3.5 2.1-6.1 5.2-7.6s9.3-1.1 13.6.3 7.8 3.9 11.5 6l-.6.7a40.9 40.9 0 0 1-9.6 7.7 20.9 20.9 0 0 1-8.6 2.8zm54.8-5.6l-2.6-.8-10.2-3.7c-.7-.2-9.1-3.4-9.2-3.3 4.8-9.7 5-14 5.6-21.4h-13v-8.1h16.3v-3.3H44.9V9.1h-6.1c-2.8 0-5.3.7-5.3 1.6v6.5H17.3v3.3h16.2v8.1h-13v3.2h27.6c-1.1 4.7-2.6 9.8-5.2 14.2L40 44.9a46.9 46.9 0 0 0-14.2-4.4c-4.2-.6-8.6-.9-12.6.6A14 14 0 0 0 5 49.5 15 15 0 0 0 5.8 62c3.5 6.3 12.2 8.3 18.9 7.3a30.5 30.5 0 0 0 11.7-4.1 33.8 33.8 0 0 0 5.2-4.1l4.2-4.3h.3c5.8 3.3 11.9 6.1 17.9 8.9l13.1 6.1a.3.3 0 0 1 .1.5C74.6 76.2 70.9 79 66 79H14A13 13 0 0 1 1 66V14A13 13 0 0 1 14 1h52a13 13 0 0 1 13 13v44.6c0 .5-3.1-.2-3.7-.4z"/><path class="cls-5" d="M11.5 171.5l14.7-63.1a11 11 0 0 1 6.6-7.4H14a13 13 0 0 0-13 13v52a13 13 0 0 0 13 13h1.1c-2.9-1.1-4.4-4-3.6-7.5z"/><path class="cls-6" d="M66 101H32.8a11 11 0 0 0-6.6 7.4l-14.7 63.1c-.8 3.5.7 6.4 3.6 7.5H50c-2.8-1.1-4.4-4-3.6-7.5l14.7-63.1a10.9 10.9 0 0 1 6.4-7.3z"/><path class="cls-7" d="M74.8 104.5a12.9 12.9 0 0 0-7.3-3.4 10.9 10.9 0 0 0-6.4 7.3l-14.7 63.1c-.8 3.5.7 6.4 3.6 7.5h16a13 13 0 0 0 13-13v-52a13 13 0 0 0-4.2-9.5z"/><path class="cls-1" d="M17.7 130.4h-3.1l-1.6 7.3c-.3 1.4-.6 2.4-1.4 3.1a2.5 2.5 0 0 1-1.6.6 1.5 1.5 0 0 1-1.7-1.4v-.3l.3-1.9s1.6-6.4 1.9-7.2H6.8v.5L5.1 138v.6l-.3 2a2.9 2.9 0 0 0 .3 1.5c.7 1.3 2.9 1.5 4 1.5a7.8 7.8 0 0 0 4-.9 5.9 5.9 0 0 0 2.5-4l.2-.7s1.6-6.6 1.9-7.5zm5.6 5.3a4.3 4.3 0 0 0-1.8.4l-.7.4.2-.8h-.1l-3 .5h-.1a39.8 39.8 0 0 1-.8 4.6l-.6 2.7h3l.5-2.4c.2-.7.5-2.3.6-2.8l.8-.3c.6 0 .6.6.5.8s-.3 1.6-.5 2.6l-.2.7-.3 1.5h3c.2-1.2.3-1.5.6-3.1l.2-.8c.3-1.5.5-2.3.3-2.9a1.5 1.5 0 0 0-1.6-1.1zm6.2 1.6l-1.5.3-1.5.2h-.1c-.1.5-.1.9-.2 1.4s-.2 1.1-.4 1.9a8.1 8.1 0 0 1-.3 1.1 9.3 9.3 0 0 0-.3 1.1h3.1l.2-1 .4-1.8.4-1.6.4-1.6zm5.6-1.5a4.8 4.8 0 0 0-3.3 1.2 5.5 5.5 0 0 0-1.5 2.9c-.2 1-.5 2.9 1.2 3.6a5.1 5.1 0 0 0 1.8.3 4.6 4.6 0 0 0 3.5-1.4 6.2 6.2 0 0 0 1.2-2.6c.4-1.7.1-2.5-.3-3a3.2 3.2 0 0 0-2.6-1zm0 3.8a5.8 5.8 0 0 1-.6 1.8 1.1 1.1 0 0 1-.8.5c-.1 0-.6 0-.6-.8a5.1 5.1 0 0 1 .2-1.2c.3-1.3.6-2.4 1.5-2.4s.6.8.3 2.1zm28.4-3.2h-.1v.3a1.9 1.9 0 0 0-1-.8 3.7 3.7 0 0 0-3.1 1.2 5.4 5.4 0 0 0-1.5 2.8c-.2 1-.5 2.9 1.2 3.6a3.5 3.5 0 0 0 1.5.3 2.5 2.5 0 0 0 1.4-.7v.5H65c.2-1.1.4-2.3.9-4.4l.7-3.1zm-.7 3.4l-.3 1.1-.3.6a1.5 1.5 0 0 1-1.1.5c-.1 0-.6 0-.6-.8a5.7 5.7 0 0 1 .2-1.3c.3-1.2.6-2.3 1.5-2.3s.8.6.8 1.5zm-17.7-4.1a4.4 4.4 0 0 0-1.8.4l-.7.4.2-.8h-.1l-3 .5h-.1a40.8 40.8 0 0 1-.8 4.6l-.6 2.7h3l.5-2.4c.2-.7.5-2.3.6-2.8l.8-.3c.6 0 .6.6.5.8s-.3 1.6-.5 2.6l-.2.7-.3 1.5h3c.2-1.2.2-1.5.6-3.1l.2-.8c.3-1.5.5-2.3.3-2.9a1.5 1.5 0 0 0-1.6-1.1zm14.5-1.5a5.3 5.3 0 0 0 .1-1.2 2.5 2.5 0 0 0-.4-1.5c-.8-1.1-2.4-1.1-4.3-1.2h-4.6v.5l-.8 4-2.1 8.8h3.3l.6-2.7.4-1.8.3-.3h.2c1.8 0 3.8 0 5.4-1.2a5.8 5.8 0 0 0 1.9-3.4zm-3.4.2a2.9 2.9 0 0 1-1.5 2 4.7 4.7 0 0 1-2.1.3h-.5v-.2l.9-3.9v-.4h.4l1.9.2a1.6 1.6 0 0 1 .9 2zm19.5 1.3l-2.9.5h-.1c-.9 2.2-.9 1.7-1.7 3.4v-.2l-.2-3.7h-.1l-2.8.5h-.1a18.5 18.5 0 0 1 .3 2l.3 1.9c.1 1.1.2 1.6.4 3.2s-1.1 2-1.9 3.3h2.6l.2-.2c.7-1.5 6.2-10.9 6.2-10.9zm-46.2-.5a2.5 2.5 0 0 0-2.4.3c-.7.5-.8 1.2-.2 1.6a2.5 2.5 0 0 0 2.4-.3c.8-.5.8-1.3.2-1.6z"/><path class="cls-8" d="M166 201h-52a13 13 0 0 0-13 13v52a13 13 0 0 0 13 13h52a13 13 0 0 0 13-13v-52a13 13 0 0 0-13-13z"/><path class="cls-9" d="M103.4 256.9c7-3.9 9.8-10.4 12-17.4.7-2.1 1.5-4.3 2.3-6.4 2.6-6.5 7.8-9.9 14.7-11 2.1-.3 4.3-.5 6.5-.7-.1.3-.2.5-.3.5-5 2.6-8 6.7-9.8 11.7-1.3 3.5-2.5 7.1-3.7 10.7-2.8 7.9-8.9 11.6-17.1 12.5l-4.5.3zm73.2-35.2l-3.3 2.4c-4.1 3.3-6.4 7.7-8 12.4l-2.5 7.3c-2.7 8.1-8.6 12.2-17.1 13.1l-3 .2h-1.4v-.3c5.4-2.9 8.3-7.5 10.2-13l3.1-9.1c2.9-8.2 9.1-12 17.7-12.9zm-11.3 20.5c2 6 5.2 11.4 11.3 14.8-5.6.5-13.9-1.6-16.4-4.6zm-50.8-5.7c-3.9-8.9-3.9-8.9-11.2-14.8 6.1.2 11.8 1 16.3 4.8zm26.4-14.7c6 .1 11.9.8 16.4 4.6l-5.3 10.2c-1.9-6-4.8-11.6-11.1-14.8zm-2.2 35.3c-5.9-.1-11.7-.8-16.1-4.6l5.2-10c2 5.9 4.7 11.4 10.9 14.6z"/><path class="cls-8" d="M66 301H14a13 13 0 0 0-13 13v52a13 13 0 0 0 13 13h52a13 13 0 0 0 13-13v-52a13 13 0 0 0-13-13z"/><path class="cls-1" d="M53.5 339.2a11.8 11.8 0 0 0 1.3-2.2 16 16 0 0 0 1.7-6.5 19.5 19.5 0 0 0-1.2-9c-1.5-3.4-4.2-4.6-7.7-5.6a23.1 23.1 0 0 0-13.7.2c-4.7 1.7-8.2 5.2-10.9 9.2l-12.8 18.2s25.1-6.3 43.3-4.3z"/><path class="cls-1" d="M57.6 322.5a12.5 12.5 0 0 0 1.4 2.7l3.3 6.4c2.3 4.5 4.7 9 7 13.5 3.8 7.6-3.7 13.7-10.3 16.2-12.9 4.7-26.3 3.6-26.3 3.6s30.5-14.5 24.9-42.4z"/><path class="cls-1" d="M41.9 355.9l-13.7-14.4c-5.2.5-11.1 1.1-15.8 3.3s-.5 10.2 2.6 13.1 7.4 6.5 12.8 5.9 8.5-3.3 11.9-5.9a18.5 18.5 0 0 0 2.2-2z"/><path class="cls-10" d="M66 201H14a13 13 0 0 0-13 13v52a13 13 0 0 0 13 13h52a13 13 0 0 0 13-13v-52a13 13 0 0 0-13-13z"/><path class="cls-9" d="M15.6 219.9h48.8a2.9 2.9 0 0 1 2.9 2.9v34.4a2.9 2.9 0 0 1-2.9 2.9H15.6a2.9 2.9 0 0 1-2.9-2.9v-34.4a2.9 2.9 0 0 1 2.9-2.9z"/><path class="cls-11" d="M11.4 230h56.8v5.7H11.4zm7.1 12.9h23v2.9h-23zm0 7.1h8.6v2.9h-8.6zm35.8-7.1h7.2v7.1h-7.2z"/><path class="cls-12" d="M166 301h-52a13 13 0 0 0-13 13v52a13 13 0 0 0 13 13h52a13 13 0 0 0 13-13v-52a13 13 0 0 0-13-13z"/><g id="_编组_" data-name="&lt;编组&gt;"><path id="_矩形_" data-name="&lt;矩形&gt;" class="cls-13" d="M116.7 308.2h46.7a2.7 2.7 0 0 1 2.7 2.7v17.4H114v-17.4a2.7 2.7 0 0 1 2.7-2.7z"/><path class="cls-14" d="M114 317.2h52.1v11.19H114z"/><path class="cls-1" d="M151.4 340.2h-4.8l-3.6 6.6v3.4l2.3-2.7v13.2h3v-16.8l3.1-3.7zm.4 7.1l4.3 8.2h2l-2.9-8.2h-3.4zm-19.7 6.1l4.3 7.3h1.9l-2.8-7.3h-3.4zm-18 7.3h1.9l4.4-7.3h-3.5l-2.8 7.3z"/><path class="cls-1" d="M122.8 340.2h-3.4l-.6 1.4h-4.7v1.9h4l-3.2 8h9.8v5c0 1.1-.2 1.6-.6 1.9a2.6 2.6 0 0 1-1.7.5v1.8a6.7 6.7 0 0 0 4.2-1.3 4.5 4.5 0 0 0 1.3-3.6v-4.4h9.3v-1.8h-9.3v-2.9h-3.4v2.9H119l2.3-6.1h16.9v-1.9h-16zm44.3 2.9H164v-2.9h-3.4v2.9h-10.5v1.9h10.5v11.5c0 1.1-.2 1.6-.6 1.9a2.6 2.6 0 0 1-1.7.5v1.8a6.7 6.7 0 0 0 4.2-1.3 4.5 4.5 0 0 0 1.3-3.6V345h3.2z"/><g id="_编组_2" data-name="&lt;编组&gt;"><path id="_复合路径_" data-name="&lt;复合路径&gt;" class="cls-1" d="M155.3 367a2.7 2.7 0 1 0 2.7 2.7 2.7 2.7 0 0 0-2.7-2.7zm0 4.6a1.9 1.9 0 1 1 1.9-1.9 1.9 1.9 0 0 1-1.9 1.9z"/><path id="_复合路径_2" data-name="&lt;复合路径&gt;" class="cls-1" d="M122.4 367.7a3.3 3.3 0 0 0-2.2-.7H119v5.4h1.1a3.3 3.3 0 0 0 2.2-.7 3 3 0 0 0 0-4zm-.6 3.4a2.2 2.2 0 0 1-1.5.5h-.4v-3.8h.4a2.2 2.2 0 0 1 1.5.5 2.3 2.3 0 0 1 0 2.9z"/><path id="_路径_" data-name="&lt;路径&gt;" class="cls-1" d="M115.6 370.2a2.6 2.6 0 0 1-.1.7l-.2.3-.5.2h-.7v.8h.1a2.6 2.6 0 0 0 1.7-.5 1.8 1.8 0 0 0 .6-1.4V367h-.9z"/><circle id="_路径_2" data-name="&lt;路径&gt;" class="cls-1" cx="143.8" cy="371.7" r=".5"/><path id="_路径_3" data-name="&lt;路径&gt;" class="cls-1" d="M164.5 367.1l-1.8 3.5-1.9-3.5h-.8v5.2h.8v-3.5l1.9 3.4 1.8-3.4v3.5h.9v-5.2h-.9z"/><path id="_路径_4" data-name="&lt;路径&gt;" class="cls-1" d="M150.2 371.1a1.9 1.9 0 1 1 0-2.8h.1l.6-.6h-.1a2.7 2.7 0 1 0 0 4h.1l-.6-.6z"/><path id="_复合路径_3" data-name="&lt;复合路径&gt;" class="cls-1" d="M133.2 367l-2.1 5.4h.9l.5-1.4h2.2l.5 1.4h.9L134 367zm1.2 3.2h-1.5l.8-2z"/><path id="_复合路径_4" data-name="&lt;复合路径&gt;" class="cls-1" d="M127.9 367h-2.3v5.4h.8v-2h1.5a1.7 1.7 0 1 0 0-3.4zm0 2.6h-1.5v-1.8h1.5a.9.9 0 1 1 0 1.8z"/><path id="_路径_5" data-name="&lt;路径&gt;" class="cls-1" d="M141.6 367l-1.6 2.4-1.5-2.4h-.9l1.9 3 .1.1v2.3h.8v-2.3l.1-.1.1-.2.2-.2 1.7-2.6h-.9z"/></g></g></svg>